<svg width="32" height="32" viewBox="0 0 32 32" fill="none" xmlns="http://www.w3.org/2000/svg">
<rect width="32" height="32" rx="4" fill="white"/>
<path d="M17.5373 16.5C17.5373 20.0898 14.5069 23 10.7687 23C7.03042 23 4 20.0898 4 16.5C4 12.9102 7.03042 10 10.7687 10C14.5068 10 17.5373 12.9102 17.5373 16.5Z" fill="#222631"/>
<path d="M24.9626 16.5004C24.9626 19.8797 23.4474 22.619 21.5783 22.619C19.7092 22.619 18.194 19.8797 18.194 16.5004C18.194 13.1212 19.7092 10.3818 21.5783 10.3818C23.4474 10.3818 24.9626 13.1212 24.9626 16.5004Z" fill="#222631"/>
<path d="M27.9999 16.4996C27.9999 19.5272 27.467 21.9816 26.8096 21.9816C26.1522 21.9816 25.6194 19.5272 25.6194 16.4996C25.6194 13.4719 26.1522 11.0176 26.8096 11.0176C27.467 11.0176 27.9999 13.4719 27.9999 16.4996Z" fill="#222631"/>
</svg>
