<svg width="32" height="32" viewBox="0 0 32 32" fill="none" xmlns="http://www.w3.org/2000/svg">
<g clip-path="url(#clip0_3921_3128)">
<path d="M26.2761 31.4545C19.447 32.1831 12.5598 32.1831 5.73067 31.4545C4.40452 31.3145 3.16644 30.7241 2.22283 29.7818C1.27923 28.8396 0.687118 27.6023 0.545214 26.2764C-0.183366 19.4473 -0.183366 12.56 0.545214 5.73091C0.685257 4.40476 1.27563 3.16668 2.21791 2.22308C3.16019 1.27947 4.39744 0.687362 5.72339 0.545458C12.5525 -0.183121 19.4397 -0.183121 26.2688 0.545458C27.595 0.685501 28.8331 1.27588 29.7767 2.21816C30.7203 3.16044 31.3124 4.39769 31.4543 5.72364C32.1829 12.5527 32.1829 19.44 31.4543 26.2691C31.3143 27.5952 30.7239 28.8333 29.7816 29.7769C28.8393 30.7205 27.6021 31.3126 26.2761 31.4545Z" fill="#E60000"/>
<path d="M25.5327 11.1897C25.1327 9.95882 23.8091 9.21336 22.5909 9.04245C18.2093 8.57699 13.7907 8.57699 9.40911 9.04245C8.19093 9.21336 6.86366 9.95155 6.46729 11.1897C5.84367 14.3673 5.84367 17.6358 6.46729 20.8134C6.86729 22.0425 8.19093 22.7897 9.40911 22.9606C13.7907 23.4261 18.2093 23.4261 22.5909 22.9606C23.8091 22.7897 25.1364 22.0515 25.5327 20.8134C26.1564 17.6358 26.1564 14.3673 25.5327 11.1897ZM13.6073 19.8334V12.1679L19.8473 16.0006C17.7437 17.2934 15.7018 18.5461 13.6073 19.8334Z" fill="white"/>
</g>
<defs>
<clipPath id="clip0_3921_3128">
<rect width="32" height="32" fill="white"/>
</clipPath>
</defs>
</svg>
