<svg width="344" height="100" viewBox="0 0 344 100" fill="none" xmlns="http://www.w3.org/2000/svg">
<g clip-path="url(#clip0_4576_52640)">
<path d="M233.081 40.6245C230.333 38.984 227.162 38.1373 223.674 38.1373C220.186 38.1373 217.139 38.9663 214.338 40.6068C211.555 42.2297 209.335 44.4523 207.697 47.1865C206.059 49.9383 205.214 53.0429 205.214 56.4121C205.214 59.7813 206.041 62.8859 207.68 65.673C209.3 68.4248 211.52 70.6651 214.268 72.3056C217.033 73.9637 220.204 74.828 223.639 74.828C227.074 74.828 230.245 73.9813 233.01 72.3056C235.758 70.6474 237.978 68.4072 239.581 65.6554C241.201 62.8859 242.012 59.7813 242.012 56.4121C242.012 53.0429 241.201 50.0089 239.581 47.2394C237.978 44.4876 235.776 42.2473 233.046 40.6245H233.081ZM232.482 61.6335C231.566 63.2211 230.368 64.4558 228.8 65.3908C227.268 66.3257 225.594 66.7843 223.674 66.7843C221.754 66.7843 220.081 66.3257 218.548 65.3908C216.98 64.4382 215.765 63.2034 214.831 61.6158C213.915 60.0635 213.457 58.3701 213.457 56.4827C213.457 54.5952 213.915 52.9194 214.831 51.3495C215.765 49.7619 216.98 48.5271 218.548 47.5746C220.081 46.6396 221.754 46.181 223.674 46.181C225.594 46.181 227.268 46.6396 228.8 47.5746C230.368 48.5271 231.566 49.7619 232.482 51.3318C233.38 52.9018 233.821 54.5776 233.821 56.4827C233.821 58.3878 233.38 60.0635 232.482 61.6335Z" fill="white"/>
<path d="M275.727 40.6245C272.979 38.984 269.809 38.1373 266.321 38.1373C262.833 38.1373 259.785 38.9487 257.002 40.5716C254.219 42.1768 251.982 44.3818 250.361 47.1159C248.723 49.8677 247.878 53.0076 247.878 56.4121V87.5463H256.104V71.3883C256.685 71.8293 257.284 72.235 257.918 72.6054C260.49 74.1224 263.361 74.881 266.462 74.881C269.914 74.881 273.05 74.0519 275.798 72.3937C278.546 70.7533 280.73 68.513 282.315 65.7259C283.901 62.9388 284.711 59.7989 284.711 56.4121C284.711 53.0253 283.901 50.0089 282.28 47.2394C280.677 44.4876 278.475 42.2473 275.745 40.6245H275.727ZM275.128 61.6688C274.212 63.274 273.014 64.5088 271.447 65.4613C269.914 66.3962 268.241 66.8549 266.321 66.8549C264.401 66.8549 262.727 66.3962 261.195 65.4613C259.627 64.5088 258.411 63.2563 257.478 61.6511C256.562 60.0635 256.104 58.3878 256.104 56.4827C256.104 54.5776 256.562 52.9018 257.478 51.3495C258.411 49.7619 259.627 48.5271 261.195 47.5746C262.727 46.6396 264.401 46.181 266.321 46.181C268.241 46.181 269.914 46.6396 271.447 47.5746C273.014 48.5271 274.212 49.7619 275.128 51.3318C276.027 52.9018 276.467 54.5776 276.467 56.4827C276.467 58.3878 276.027 60.0812 275.111 61.6688H275.128Z" fill="white"/>
<path d="M342.225 39.4779H333.998V74.8104H342.225V39.4779Z" fill="white"/>
<path d="M342.383 27.571C341.96 26.8125 341.379 26.2127 340.675 25.7718C339.23 24.8721 337.222 24.8016 335.601 25.7188C334.826 26.1598 334.192 26.7949 333.752 27.571C333.311 28.3472 333.082 29.2115 333.082 30.1288C333.082 31.0461 333.311 31.928 333.752 32.6866C334.192 33.4627 334.826 34.0977 335.601 34.5387C336.376 34.9797 337.222 35.209 338.103 35.209C339.054 35.209 339.935 34.9621 340.675 34.5035C341.379 34.0625 341.943 33.4627 342.383 32.7042C342.824 31.928 343.053 31.0637 343.053 30.1464C343.053 29.2292 342.824 28.3472 342.383 27.5887V27.571Z" fill="white"/>
<path d="M319.078 25.0485L319.043 41.5417C318.462 41.1007 317.845 40.6774 317.193 40.3069C314.639 38.8252 311.768 38.0667 308.668 38.0667C305.268 38.0667 302.15 38.8958 299.402 40.501C296.654 42.1238 294.47 44.3288 292.884 47.1159C291.299 49.8854 290.489 53.0429 290.489 56.4826C290.489 59.9224 291.299 62.8859 292.92 65.6553C294.523 68.4071 296.725 70.6474 299.49 72.3055C302.256 73.9637 305.426 74.828 308.861 74.828C312.296 74.828 315.45 74.0166 318.215 72.3937C320.981 70.7885 323.2 68.5659 324.838 65.8141C326.477 63.0446 327.305 59.9048 327.305 56.5003V25.0485H319.096H319.078ZM317.722 61.6158C316.806 63.2034 315.59 64.4206 314.023 65.3731C312.473 66.308 310.782 66.7666 308.844 66.7666C306.906 66.7666 305.25 66.308 303.718 65.3731C302.15 64.4206 300.952 63.1858 300.036 61.6158C299.138 60.0459 298.697 58.3701 298.697 56.465C298.697 54.5599 299.138 52.8665 300.054 51.2789C300.97 49.6737 302.168 48.4389 303.735 47.4863C305.268 46.5514 306.941 46.0928 308.861 46.0928C310.782 46.0928 312.473 46.5514 314.04 47.4863C315.608 48.4389 316.824 49.6737 317.74 51.2789C318.656 52.8665 319.096 54.5599 319.096 56.465C319.096 58.3701 318.656 60.0459 317.757 61.6158H317.722Z" fill="white"/>
<path d="M191.932 41.0478C189.483 39.5484 186.559 38.7723 183.23 38.7723C180.605 38.7723 178.174 39.3191 175.955 40.3951C175.127 40.8009 174.369 41.2595 173.647 41.7711V25.8247H165.421V74.828H173.647V57.0648C173.647 55.0362 174.052 53.2193 174.845 51.667C175.638 50.1323 176.695 48.9681 178.086 48.1037C179.46 47.2394 180.975 46.8337 182.719 46.8337C184.639 46.8337 186.154 47.257 187.387 48.1037C188.655 49.0034 189.571 50.1323 190.205 51.5964C190.875 53.1311 191.209 54.8598 191.209 56.7296V74.8104H199.436V56.4121C199.436 52.99 198.802 49.9383 197.569 47.3452C196.283 44.6816 194.398 42.5472 191.932 41.0478Z" fill="white"/>
<path d="M154.147 49.5678C152.632 48.5977 150.941 47.8039 149.091 47.257C147.383 46.7455 145.656 46.3045 143.983 45.9517C142.133 45.5283 140.372 45.0697 138.716 44.5581C137.36 44.1348 136.268 43.535 135.475 42.7589C134.858 42.1591 134.559 41.2242 134.559 39.9012C134.559 38.8428 134.858 37.9432 135.475 37.1141C136.144 36.1969 137.043 35.5089 138.17 34.9797C139.35 34.4329 140.601 34.1683 141.993 34.1683C144.142 34.1683 146.026 34.6446 147.577 35.5618C149.091 36.4615 150.201 37.7492 150.994 39.4955L151.945 41.6123L159.22 37.7668L158.445 35.9323C157.036 32.616 154.816 30.0759 151.804 28.3472C148.898 26.689 145.639 25.8423 142.133 25.8423C139.28 25.8423 136.62 26.4421 134.224 27.6416C131.793 28.8411 129.82 30.5169 128.341 32.6336C126.826 34.8033 126.051 37.3082 126.051 40.06C126.051 42.6178 126.562 44.8051 127.601 46.5338C128.605 48.2272 129.961 49.6208 131.652 50.6615C133.202 51.6317 134.911 52.4078 136.743 52.9547C138.452 53.4662 140.178 53.9249 141.904 54.2777C143.736 54.6481 145.498 55.0891 147.101 55.5654C148.422 55.9534 149.479 56.5532 150.236 57.3117C150.835 57.9115 151.135 58.8993 151.135 60.2576C151.135 61.6158 150.818 62.6566 150.148 63.5386C149.444 64.4911 148.51 65.1967 147.277 65.6906C145.956 66.2374 144.423 66.502 142.715 66.502C140.319 66.502 138.24 66.0081 136.514 65.0203C134.841 64.0678 133.661 62.7624 132.885 61.0513L131.952 58.9875L124.571 62.6742L125.364 64.5617C126.773 67.8779 129.116 70.471 132.322 72.2526C135.422 73.9813 138.91 74.8457 142.715 74.8457C145.815 74.8457 148.651 74.2459 151.152 73.064C153.707 71.8645 155.768 70.1535 157.283 68.0014C158.85 65.7788 159.643 63.1681 159.643 60.2399C159.643 57.6821 159.132 55.4948 158.11 53.7485C157.106 52.0374 155.785 50.6439 154.147 49.5855" fill="white"/>
<path d="M99.575 31.5047H67.938C58.144 31.5047 48.7551 27.7121 41.9203 20.9737C41.339 20.4092 40.3526 20.7973 40.3526 21.5911V57.8762C40.3526 59.7636 37.9745 60.7162 36.5829 59.3756L6.40806 30.3757C-5.25322 19.1745 3.00832 0 19.4962 0H59.5884C66.1237 0 72.3771 2.48721 77.0099 6.93244L100.438 29.4585C101.213 30.217 100.667 31.5047 99.5574 31.5047" fill="url(#paint0_linear_4576_52640)"/>
<path d="M82.2594 100H42.1671C35.6319 100 29.3608 97.5128 24.7457 93.0676L1.31741 70.5416C0.542344 69.783 1.08842 68.4953 2.19817 68.4953H33.7823C43.5763 68.4953 52.9476 72.2879 59.7823 79.0263C60.3636 79.5908 61.3501 79.2027 61.3501 78.4089L61.4029 42.1062C61.4029 40.2187 63.781 39.2838 65.1726 40.6068L94.1849 68.4953L95.3475 69.6066C107.009 80.8255 98.7472 99.9824 82.2594 99.9824" fill="white"/>
</g>
<defs>
<linearGradient id="paint0_linear_4576_52640" x1="1.10024" y1="30.293" x2="101.308" y2="30.293" gradientUnits="userSpaceOnUse">
<stop stop-color="#FED500"/>
<stop offset="1" stop-color="#FEC20E"/>
</linearGradient>
<clipPath id="clip0_4576_52640">
<rect width="342.105" height="100" fill="white" transform="translate(0.947388)"/>
</clipPath>
</defs>
</svg>
