<svg width="134" height="50" viewBox="0 0 134 50" fill="none" xmlns="http://www.w3.org/2000/svg">
<path d="M72.4952 23.3436C72.0093 23.0289 71.4639 22.7782 70.8725 22.5992C70.3242 22.4321 69.7685 22.2904 69.2321 22.1755C68.6392 22.0398 68.07 21.8891 67.5425 21.7265C67.1072 21.5923 66.758 21.3968 66.5039 21.1477C66.3062 20.9538 66.2096 20.6524 66.2096 20.2273C66.2096 19.8871 66.3047 19.5947 66.5009 19.3292C66.7193 19.0353 67.0017 18.8101 67.3672 18.6415C67.7461 18.4655 68.1473 18.3804 68.5946 18.3804C69.287 18.3804 69.8903 18.5311 70.3866 18.828C70.874 19.1204 71.2321 19.5336 71.4818 20.093L71.7864 20.7733L74.1208 19.5351L73.8712 18.9428C73.4209 17.8777 72.7032 17.0557 71.7403 16.5037C70.8057 15.9682 69.761 15.6952 68.6377 15.6952C67.7223 15.6952 66.8664 15.8891 66.0952 16.2725C65.3151 16.6604 64.6791 17.2004 64.2081 17.8777C63.7207 18.5773 63.474 19.3814 63.474 20.269C63.474 21.0955 63.6404 21.7966 63.9703 22.3516C64.2913 22.8961 64.7296 23.3436 65.2705 23.6823C65.7683 23.9955 66.3181 24.2447 66.9065 24.4222C67.4534 24.5893 68.0106 24.7325 68.5619 24.8488C69.1518 24.9697 69.7135 25.1099 70.2321 25.2651C70.6556 25.3919 70.9944 25.5813 71.2381 25.826C71.4298 26.0184 71.5264 26.3377 71.5264 26.7733C71.5264 27.1984 71.4238 27.5445 71.2128 27.8294C70.987 28.1353 70.6868 28.362 70.2915 28.5246C69.868 28.6992 69.3747 28.7872 68.8264 28.7872C68.0582 28.7872 67.388 28.6261 66.8323 28.3098C66.2943 28.0025 65.9139 27.5848 65.6658 27.0313L65.3686 26.366L63 27.555L63.2556 28.1606C63.7073 29.2303 64.4577 30.0627 65.4875 30.6355C66.4816 31.1905 67.6049 31.4709 68.8249 31.4709C69.819 31.4709 70.7299 31.2785 71.5323 30.8996C72.3525 30.5117 73.0168 29.9642 73.5041 29.2705C74.0064 28.556 74.2605 27.7161 74.2605 26.7718C74.2605 25.9483 74.0941 25.2457 73.7672 24.6818C73.4477 24.1343 73.0197 23.6823 72.4952 23.3436Z" fill="#374756"/>
<path d="M85.3675 20.2094C84.5665 19.7141 83.6081 19.4635 82.5174 19.4635C81.66 19.4635 80.8576 19.6425 80.1354 19.9975C79.8665 20.1303 79.6124 20.281 79.3776 20.4495V15H76.6836V31.3038H79.3776V25.4679C79.3776 24.7996 79.5099 24.2029 79.7714 23.6957C80.0299 23.1944 80.3777 22.811 80.8324 22.5261C81.2826 22.2442 81.7789 22.1069 82.3495 22.1069C82.9766 22.1069 83.4773 22.2442 83.8771 22.5261C84.2916 22.8185 84.5948 23.1944 84.8028 23.6748C85.0212 24.1805 85.1327 24.7474 85.1327 25.3635V31.3053H87.8267V25.2576C87.8267 24.1313 87.6201 23.1303 87.213 22.28C86.7925 21.4028 86.1728 20.7061 85.3675 20.2094Z" fill="#374756"/>
<path d="M98.6018 20.278C97.6983 19.738 96.6612 19.4635 95.5185 19.4635C94.4055 19.4635 93.3772 19.7365 92.4604 20.275C91.551 20.8106 90.8184 21.5371 90.285 22.4366C89.747 23.3422 89.4736 24.3626 89.4736 25.4695C89.4736 26.5749 89.7456 27.5983 90.2835 28.5097C90.8154 29.4138 91.5436 30.1477 92.444 30.6908C93.3534 31.2382 94.3877 31.5172 95.5185 31.5172C96.6478 31.5172 97.682 31.2397 98.5929 30.6908C99.4949 30.1477 100.219 29.4123 100.745 28.5068C101.274 27.5953 101.541 26.5734 101.541 25.471C101.541 24.382 101.272 23.3675 100.745 22.456C100.219 21.546 99.4978 20.8136 98.6018 20.278ZM98.4071 27.1806C98.107 27.7012 97.7117 28.1055 97.2005 28.4188C96.6998 28.7261 96.15 28.8737 95.5185 28.8737C94.8869 28.8737 94.3371 28.7246 93.8364 28.4173C93.3222 28.104 92.924 27.6967 92.6164 27.1746C92.3148 26.6629 92.1677 26.1109 92.1677 25.4889C92.1677 24.8668 92.3148 24.3163 92.6164 23.8031C92.924 23.281 93.3222 22.8752 93.8364 22.5605C94.3386 22.2532 94.8884 22.1055 95.5185 22.1055C96.1485 22.1055 96.6983 22.2547 97.2005 22.5605C97.7132 22.8737 98.107 23.278 98.4071 23.7972C98.7028 24.3118 98.847 24.8638 98.847 25.4889C98.847 26.1139 98.7028 26.6659 98.4071 27.1806Z" fill="#374756"/>
<path d="M112.315 20.278C111.412 19.738 110.375 19.4635 109.232 19.4635C108.12 19.4635 107.094 19.732 106.178 20.2631C105.266 20.7927 104.533 21.5162 104 22.4158C103.462 23.3228 103.188 24.3491 103.188 25.4695V36H105.882V30.3849C106.071 30.5296 106.269 30.6639 106.477 30.7862C107.316 31.283 108.259 31.5366 109.275 31.5366C110.404 31.5366 111.435 31.2621 112.337 30.7221C113.236 30.185 113.954 29.4466 114.474 28.5306C114.993 27.6132 115.257 26.5838 115.257 25.4695C115.257 24.3805 114.99 23.366 114.461 22.4546C113.932 21.5461 113.21 20.8136 112.315 20.278ZM112.118 27.194C111.817 27.7191 111.424 28.1264 110.912 28.4396C110.412 28.7455 109.862 28.8946 109.23 28.8946C108.6 28.8946 108.049 28.7455 107.548 28.4396C107.036 28.1264 106.637 27.7176 106.33 27.1895C106.027 26.6704 105.88 26.1139 105.88 25.4904C105.88 24.8683 106.027 24.3163 106.328 23.8046C106.636 23.2825 107.034 22.8767 107.548 22.562C108.05 22.2547 108.6 22.107 109.23 22.107C109.86 22.107 110.41 22.2561 110.912 22.562C111.425 22.8752 111.819 23.2795 112.119 23.7986C112.416 24.3133 112.56 24.8668 112.56 25.4904C112.56 26.1139 112.416 26.6718 112.118 27.194Z" fill="#374756"/>
<path d="M125.528 20.6062C125.337 20.46 125.133 20.3242 124.921 20.2004C124.083 19.7111 123.142 19.4635 122.127 19.4635C121.014 19.4635 119.992 19.7335 119.09 20.266C118.191 20.7971 117.472 21.5266 116.952 22.4366C116.431 23.3481 116.167 24.3819 116.167 25.5112C116.167 26.6002 116.436 27.6161 116.963 28.5261C117.489 29.4331 118.213 30.1671 119.115 30.7101C120.025 31.2576 121.059 31.5365 122.19 31.5365C123.316 31.5365 124.349 31.2665 125.257 30.7354C126.16 30.2074 126.89 29.4779 127.425 28.5709C127.962 27.6579 128.234 26.6286 128.234 25.5097V15H125.542L125.528 20.6062ZM125.1 27.2014C124.8 27.7205 124.404 28.1248 123.886 28.4366C123.377 28.7439 122.823 28.8946 122.191 28.8946C121.561 28.8946 121.01 28.7454 120.509 28.4381C119.998 28.1248 119.603 27.7205 119.302 27.2014C119.005 26.6867 118.861 26.1348 118.861 25.5097C118.861 24.8846 119.007 24.3267 119.304 23.8061C119.604 23.281 119.998 22.8737 120.509 22.5604C121.011 22.2531 121.561 22.1054 122.191 22.1054C122.823 22.1054 123.377 22.2546 123.886 22.5634C124.402 22.8752 124.799 23.2824 125.099 23.8061C125.396 24.3282 125.542 24.8861 125.542 25.5112C125.54 26.1348 125.396 26.6882 125.1 27.2014Z" fill="#374756"/>
<path d="M133.728 19.6947H131.034V31.3053H133.728V19.6947Z" fill="#374756"/>
<path d="M133.783 16.1204C133.642 15.8742 133.455 15.6743 133.224 15.5281C132.752 15.2298 132.09 15.2104 131.563 15.5132C131.307 15.6594 131.104 15.8638 130.958 16.1204C130.814 16.374 130.741 16.6574 130.741 16.9632C130.741 17.2676 130.814 17.551 130.958 17.8046C131.104 18.0612 131.309 18.2656 131.563 18.4118C131.816 18.5565 132.09 18.6296 132.38 18.6296C132.695 18.6296 132.978 18.5505 133.226 18.3954C133.455 18.2492 133.642 18.0508 133.783 17.8046C133.927 17.551 134 17.2676 134 16.9632C134.001 16.6574 133.929 16.374 133.783 16.1204Z" fill="#374756"/>
<path d="M47.401 15.9837H32.1942C27.4881 15.9837 22.9773 14.0587 19.6879 10.6411C19.4111 10.3547 18.9334 10.553 18.9334 10.9523V29.365C18.9334 30.3233 17.7908 30.8025 17.1231 30.125L2.6247 15.4136C-2.98251 9.72405 0.99356 0 8.92128 0H28.1937C31.3311 0 34.341 1.2668 36.5638 3.51399L47.8244 14.9455C48.1989 15.331 47.9329 15.9837 47.401 15.9837Z" fill="#FDD116"/>
<path d="M39.0821 50H19.8124C16.6722 50 13.6597 48.7332 11.4369 46.4805L0.176282 35.0545C-0.200971 34.6717 0.0677191 34.0191 0.599672 34.0191H15.782C20.4882 34.0191 24.9935 35.9441 28.2829 39.3617C28.5598 39.6481 29.0374 39.4498 29.0401 39.0505L29.0673 20.6295C29.07 19.6712 30.2099 19.192 30.8776 19.8695L44.8196 34.0163L45.3787 34.5836C50.9805 40.2732 47.0098 50 39.0821 50Z" fill="#374756"/>
</svg>
