<svg width="64" height="27" viewBox="0 0 64 27" fill="none" xmlns="http://www.w3.org/2000/svg">
<path d="M0.732422 0.333008H63.7324L59.1385 13.333L63.7324 26.333H0.732422L5.32601 13.333L0.732422 0.333008Z" fill="black"/>
<path d="M14.8058 14.434V13.405H19.0058V14.434H14.8058ZM23.9747 18.543C23.3307 18.543 22.7614 18.4147 22.2667 18.158C21.7721 17.8967 21.3847 17.535 21.1047 17.073C20.8247 16.611 20.6847 16.072 20.6847 15.456C20.6847 14.854 20.8271 14.3103 21.1117 13.825C21.4011 13.3397 21.8351 12.9663 22.4137 12.705L22.3927 13.16C21.9214 12.9313 21.5597 12.6093 21.3077 12.194C21.0557 11.774 20.9297 11.3097 20.9297 10.801C20.9297 10.2317 21.0604 9.74167 21.3217 9.33101C21.5831 8.92034 21.9424 8.60301 22.3997 8.37901C22.8571 8.15501 23.3821 8.04301 23.9747 8.04301C24.5674 8.04301 25.0924 8.15501 25.5497 8.37901C26.0071 8.60301 26.3664 8.92034 26.6277 9.33101C26.8891 9.74167 27.0197 10.2317 27.0197 10.801C27.0197 11.3097 26.9007 11.7717 26.6627 12.187C26.4247 12.5977 26.0584 12.922 25.5637 13.16L25.5357 12.712C26.1144 12.964 26.5484 13.335 26.8377 13.825C27.1317 14.3103 27.2787 14.854 27.2787 15.456C27.2787 16.072 27.1364 16.611 26.8517 17.073C26.5717 17.535 26.1821 17.8967 25.6827 18.158C25.1881 18.4147 24.6187 18.543 23.9747 18.543ZM23.9747 17.353C24.5627 17.353 25.0387 17.192 25.4027 16.87C25.7714 16.5433 25.9557 16.072 25.9557 15.456C25.9557 14.8353 25.7737 14.364 25.4097 14.042C25.0504 13.7153 24.5721 13.552 23.9747 13.552C23.3821 13.552 22.9037 13.7153 22.5397 14.042C22.1804 14.364 22.0007 14.8353 22.0007 15.456C22.0007 16.072 22.1827 16.5433 22.5467 16.87C22.9107 17.192 23.3867 17.353 23.9747 17.353ZM23.9747 12.355C24.4881 12.355 24.9034 12.2267 25.2207 11.97C25.5381 11.7087 25.6967 11.319 25.6967 10.801C25.6967 10.283 25.5381 9.89567 25.2207 9.63901C24.9034 9.37767 24.4881 9.24701 23.9747 9.24701C23.4661 9.24701 23.0507 9.37767 22.7287 9.63901C22.4114 9.89567 22.2527 10.283 22.2527 10.801C22.2527 11.319 22.4114 11.7087 22.7287 11.97C23.0507 12.2267 23.4661 12.355 23.9747 12.355ZM32.4982 18.543C31.8449 18.543 31.2615 18.396 30.7482 18.102C30.2395 17.8033 29.8359 17.3997 29.5372 16.891C29.2432 16.3777 29.0962 15.7943 29.0962 15.141V11.445C29.0962 10.7917 29.2432 10.2083 29.5372 9.69501C29.8359 9.18167 30.2395 8.77801 30.7482 8.48401C31.2615 8.19001 31.8449 8.04301 32.4982 8.04301C33.1515 8.04301 33.7349 8.19001 34.2482 8.48401C34.7615 8.77801 35.1652 9.18167 35.4592 9.69501C35.7532 10.2083 35.9002 10.7917 35.9002 11.445V15.141C35.9002 15.7943 35.7532 16.3777 35.4592 16.891C35.1652 17.3997 34.7615 17.8033 34.2482 18.102C33.7349 18.396 33.1515 18.543 32.4982 18.543ZM32.4982 17.346C32.8949 17.346 33.2542 17.2503 33.5762 17.059C33.8982 16.8677 34.1549 16.611 34.3462 16.289C34.5375 15.9623 34.6332 15.603 34.6332 15.211V11.368C34.6332 10.9713 34.5375 10.612 34.3462 10.29C34.1549 9.96801 33.8982 9.71134 33.5762 9.52001C33.2542 9.32867 32.8949 9.23301 32.4982 9.23301C32.1062 9.23301 31.7469 9.32867 31.4202 9.52001C31.0982 9.71134 30.8415 9.96801 30.6502 10.29C30.4589 10.612 30.3632 10.9713 30.3632 11.368V15.211C30.3632 15.603 30.4589 15.9623 30.6502 16.289C30.8415 16.611 31.0982 16.8677 31.4202 17.059C31.7469 17.2503 32.1062 17.346 32.4982 17.346ZM38.9799 18.333L38.1399 17.493L47.3939 8.25301L48.2339 9.09301L38.9799 18.333ZM46.1339 18.543C45.6719 18.543 45.2495 18.431 44.8669 18.207C44.4889 17.9783 44.1855 17.675 43.9569 17.297C43.7282 16.9143 43.6139 16.4897 43.6139 16.023C43.6139 15.5657 43.7306 15.1457 43.9639 14.763C44.1972 14.3803 44.5052 14.0747 44.8879 13.846C45.2705 13.6173 45.6859 13.503 46.1339 13.503C46.5959 13.503 47.0182 13.6173 47.4009 13.846C47.7835 14.07 48.0869 14.3733 48.3109 14.756C48.5395 15.134 48.6539 15.5563 48.6539 16.023C48.6539 16.4897 48.5395 16.9143 48.3109 17.297C48.0869 17.675 47.7835 17.9783 47.4009 18.207C47.0182 18.431 46.5959 18.543 46.1339 18.543ZM46.1339 17.444C46.3905 17.444 46.6262 17.3787 46.8409 17.248C47.0602 17.1173 47.2329 16.9447 47.3589 16.73C47.4896 16.5153 47.5549 16.2797 47.5549 16.023C47.5549 15.7663 47.4896 15.5307 47.3589 15.316C47.2329 15.0967 47.0602 14.924 46.8409 14.798C46.6262 14.6673 46.3905 14.602 46.1339 14.602C45.8772 14.602 45.6416 14.6673 45.4269 14.798C45.2122 14.924 45.0395 15.0967 44.9089 15.316C44.7782 15.5307 44.7129 15.7663 44.7129 16.023C44.7129 16.2797 44.7782 16.5153 44.9089 16.73C45.0395 16.9447 45.2122 17.1173 45.4269 17.248C45.6416 17.3787 45.8772 17.444 46.1339 17.444ZM40.2399 13.083C39.7779 13.083 39.3555 12.971 38.9729 12.747C38.5902 12.5183 38.2845 12.215 38.0559 11.837C37.8319 11.4543 37.7199 11.0297 37.7199 10.563C37.7199 10.1057 37.8365 9.68567 38.0699 9.30301C38.3032 8.92034 38.6112 8.61467 38.9939 8.38601C39.3765 8.15734 39.7919 8.04301 40.2399 8.04301C40.7019 8.04301 41.1219 8.15734 41.4999 8.38601C41.8825 8.61001 42.1882 8.91334 42.4169 9.29601C42.6455 9.67401 42.7599 10.0963 42.7599 10.563C42.7599 11.0297 42.6455 11.4543 42.4169 11.837C42.1882 12.215 41.8825 12.5183 41.4999 12.747C41.1219 12.971 40.7019 13.083 40.2399 13.083ZM40.2399 11.984C40.4965 11.984 40.7322 11.9187 40.9469 11.788C41.1662 11.6573 41.3389 11.4847 41.4649 11.27C41.5955 11.0553 41.6609 10.8197 41.6609 10.563C41.6609 10.3063 41.5955 10.0707 41.4649 9.85601C41.3389 9.63667 41.1662 9.46401 40.9469 9.33801C40.7322 9.20734 40.4965 9.14201 40.2399 9.14201C39.9832 9.14201 39.7475 9.20734 39.5329 9.33801C39.3182 9.46401 39.1455 9.63667 39.0149 9.85601C38.8842 10.0707 38.8189 10.3063 38.8189 10.563C38.8189 10.8197 38.8842 11.0553 39.0149 11.27C39.1455 11.4847 39.3182 11.6573 39.5329 11.788C39.7475 11.9187 39.9832 11.984 40.2399 11.984Z" fill="white"/>
</svg>
