<svg width="28" height="27" viewBox="0 0 28 27" fill="none" xmlns="http://www.w3.org/2000/svg">
<path fill-rule="evenodd" clip-rule="evenodd" d="M24.6365 6.8572H22.9586V8.48326C22.9586 8.93314 22.5839 9.2963 22.1197 9.2963C21.6555 9.2963 21.2808 8.93314 21.2808 8.48326V6.8572H19.603C19.1388 6.8572 18.7641 6.49405 18.7641 6.04417C18.7641 5.5943 19.1388 5.23114 19.603 5.23114H21.2808V3.60508C21.2808 3.15521 21.6555 2.79205 22.1197 2.79205C22.5839 2.79205 22.9586 3.15521 22.9586 3.60508V5.23114H24.6365C25.1007 5.23114 25.4754 5.5943 25.4754 6.04417C25.4754 6.49405 25.1007 6.8572 24.6365 6.8572ZM22.12 0.911133C19.195 0.911133 16.8237 3.20928 16.8237 6.04402C16.8237 8.87876 19.195 11.1769 22.12 11.1769C25.045 11.1769 27.4163 8.87876 27.4163 6.04402C27.4163 3.20928 25.045 0.911133 22.12 0.911133Z" fill="#19124F"/>
<path fill-rule="evenodd" clip-rule="evenodd" d="M22.2755 13.4098C21.6743 13.2743 21.0725 13.6375 20.9305 14.2174L19.8192 18.7975H9.80878L7.77303 11.7513H14.8551C15.4731 11.7513 15.9736 11.2689 15.9736 10.6672C15.9736 10.071 15.4731 9.58319 14.8551 9.58319H7.14665L6.12262 6.03841C5.98728 5.57228 5.54713 5.24707 5.04546 5.24707H1.68983C1.0724 5.24707 0.571289 5.73488 0.571289 6.3311C0.571289 6.93274 1.0724 7.41513 1.68983 7.41513H4.19705L7.88321 20.1742C8.01855 20.6403 8.4587 20.9655 8.96037 20.9655H20.7051C21.2241 20.9655 21.6749 20.6186 21.794 20.1308L23.1083 14.7161C23.2498 14.1307 22.8767 13.5507 22.2755 13.4098Z" fill="#19124F"/>
<path fill-rule="evenodd" clip-rule="evenodd" d="M12.9681 25.0308C12.9681 23.9848 12.0923 23.1338 11.0107 23.1338C9.93016 23.1338 9.05322 23.9848 9.05322 25.0308C9.05322 26.0769 9.93016 26.9279 11.0107 26.9279C12.0923 26.9279 12.9681 26.0769 12.9681 25.0308Z" fill="#19124F"/>
<path fill-rule="evenodd" clip-rule="evenodd" d="M20.7977 25.0308C20.7977 23.9848 19.9219 23.1338 18.8402 23.1338C17.7597 23.1338 16.8828 23.9848 16.8828 25.0308C16.8828 26.0769 17.7597 26.9279 18.8402 26.9279C19.9219 26.9279 20.7977 26.0769 20.7977 25.0308Z" fill="#19124F"/>
</svg>
