 <svg width="136" height="136" viewBox="0 0 136 136" fill="none" xmlns="http://www.w3.org/2000/svg">
<circle opacity="0.5" cx="68" cy="68" r="67" stroke="#4CAF50" stroke-width="2"/>
<ellipse cx="67.9995" cy="67.9999" rx="66.8276" ry="65.6552" fill="white"/>
<circle opacity="0.5" cx="68" cy="68" r="67" stroke="#DF1A13" stroke-width="2"/>
<ellipse cx="67.9995" cy="67.9999" rx="66.8276" ry="65.6552" fill="#F0F0F0"/>
<path fill-rule="evenodd" clip-rule="evenodd" d="M68 136C105.555 136 136 105.555 136 68C136 30.4446 105.555 0 68 0C30.4446 0 0 30.4446 0 68C0 105.555 30.4446 136 68 136ZM67.9543 125.357C99.6569 125.357 125.357 99.6569 125.357 67.9543C125.357 36.2517 99.6569 10.5517 67.9543 10.5517C36.2517 10.5517 10.5517 36.2517 10.5517 67.9543C10.5517 99.6569 36.2517 125.357 67.9543 125.357Z" fill="#E1E1E1"/>
<path fill-rule="evenodd" clip-rule="evenodd" d="M68.0075 70.6892C66.6988 70.6892 65.6367 69.8041 65.6367 68.7136V57.0733C65.6367 55.9827 66.6988 55.0977 68.0075 55.0977C69.3161 55.0977 70.3782 55.9827 70.3782 57.0733V68.7136C70.3782 69.8041 69.3161 70.6892 68.0075 70.6892Z" fill="#EC0800"/>
<path fill-rule="evenodd" clip-rule="evenodd" d="M68.2821 79.7048C66.8254 79.7048 65.6348 78.5274 65.6348 77.0707C65.6348 75.614 66.8017 74.4365 68.2557 74.4365H68.2821C69.7388 74.4365 70.9162 75.614 70.9162 77.0707C70.9162 78.5274 69.7388 79.7048 68.2821 79.7048Z" fill="#EC0800"/>
<circle cx="68.2692" cy="68.2682" r="25.3415" stroke="#EC0800" stroke-width="2"/>
</svg>
