<svg width="10" height="17" viewBox="0 0 10 17" fill="none" xmlns="http://www.w3.org/2000/svg">
<path d="M9.05762 8.6543C9.04883 8.34668 8.93457 8.08301 8.69727 7.8457L1.85938 1.15723C1.65723 0.963867 1.41992 0.858398 1.12988 0.858398C0.541016 0.858398 0.0839844 1.31543 0.0839844 1.9043C0.0839844 2.18555 0.198242 2.44922 0.400391 2.65137L6.55273 8.6543L0.400391 14.6572C0.198242 14.8594 0.0839844 15.1143 0.0839844 15.4043C0.0839844 15.9932 0.541016 16.4502 1.12988 16.4502C1.41113 16.4502 1.65723 16.3447 1.85938 16.1514L8.69727 9.4541C8.94336 9.22559 9.05762 8.96191 9.05762 8.6543Z" fill="white"/>
</svg>
