<svg width="841" height="132" viewBox="0 0 841 132" fill="none" xmlns="http://www.w3.org/2000/svg">
<g clip-path="url(#clip0_4647_49418)">
<rect width="841" height="132" rx="8" fill="#222631"/>
<g opacity="0.1">
<path d="M1.71033 123.096C0.0450923 121.311 -0.829946 119.404 -0.336935 117.417C0.152436 115.438 1.64862 115.107 3.8179 115.629C2.54059 113.233 1.77917 111.032 2.99585 109.407C4.03933 108.021 5.59619 108.169 7.41902 109.247C7.58899 109.383 7.76187 109.528 7.93184 109.664C8.73653 110.487 9.57744 111.451 9.77066 112.481C10.1289 114.364 10.6904 113.957 11.7654 113.95C13.2475 113.945 13.7667 113.687 12.8271 111.692C12.4839 110.968 12.7085 110.066 12.6692 109.242C12.7639 109.011 12.8586 108.779 12.9533 108.548C14.0024 107.332 15.3454 106.854 17.243 108.009C19.3535 109.288 20.2103 111.317 20.5556 113.876C22.2949 113.042 24.0475 112.958 25.9516 115.017C27.5791 116.771 27.9744 118.625 27.6277 120.469C27.5621 120.63 27.49 120.791 27.4245 120.951C26.8557 121.376 26.376 122.226 25.6949 122.159C23.8663 121.97 24.5335 122.96 24.9575 124.453C25.4691 126.252 25.9074 126.361 27.1003 126.189C27.7785 126.094 28.7164 126.699 29.5376 126.991C29.7235 127.134 29.9029 127.278 30.0889 127.421C31.7941 129.184 32.6495 131.094 32.1725 133.088C31.6991 135.073 30.2269 135.453 28.0678 134.922C29.2332 137.269 30.0949 139.486 28.8651 141.112C27.8216 142.499 26.2771 142.365 24.4492 141.331C24.2414 141.164 24.0403 140.997 23.8325 140.831C23.2445 139.969 22.3475 139.096 22.133 138.256C21.6584 136.427 21.1539 136.495 19.9392 136.644C18.7637 136.789 18.1626 136.757 18.973 138.577C19.3409 139.41 19.0966 140.391 19.1351 141.308C19.055 141.504 18.9777 141.708 18.891 141.905C17.8468 143.308 16.4029 143.711 14.4167 142.419C12.4494 141.143 11.5351 139.24 11.3133 136.762C9.51153 137.457 7.67685 137.558 5.72629 135.368C4.23541 133.693 3.85307 131.915 4.11839 130.147C4.22036 129.898 4.3187 129.657 4.42066 129.408C5.15418 128.412 6.2375 128.063 7.54141 128.186C6.87989 125.634 6.08134 123.539 3.5085 124.065C3.19953 124.131 2.69618 123.721 2.28129 123.524C2.09459 123.398 1.89919 123.248 1.71033 123.096ZM12.1074 134.591C12.2969 133.07 15.5684 135.894 14.435 132.656C13.8585 131 13.2736 130.666 12.0662 130.798C9.52991 131.081 12.8976 133.563 12.1074 134.591ZM6.0268 117.418C7.30835 118.209 6.15849 121.68 9.09505 120.801C11.4311 120.102 8.76346 118.3 9.01883 117.139C8.14177 117.689 7.1034 117.3 6.0268 117.418ZM25.7926 133.31C24.1297 129.511 24.1485 129.603 23.4042 129.568C20.8174 129.439 22.4757 131.685 22.7308 133.545C23.6777 132.885 24.7547 133.211 25.7926 133.31ZM19.8262 115.981C18.796 116.307 17.8872 116.536 16.7454 116.431C17.869 117.408 16.7564 119.715 19.3571 119.826C22.5661 119.951 18.9961 116.953 19.8262 115.981ZM15.5843 123.776C14.9532 123.908 13.8132 123.384 14.6572 125.031C15.0868 125.866 14.995 127.01 16.3429 126.719C17.2567 126.524 17.6093 126.429 17.053 125.06C16.6446 124.035 16.462 123.286 15.5843 123.776Z" fill="white"/>
<path d="M30.6473 119.129C30.7128 118.969 30.7848 118.808 30.8503 118.648C30.992 118.608 31.1706 118.615 31.2753 118.528C32.6395 117.382 34.2427 117.185 36.1862 119.052C37.7705 120.571 38.4205 122.398 37.9905 124.139C37.4622 126.274 35.8359 126.405 33.7963 125.632C33.6329 125.572 33.4753 125.605 33.3162 125.595C33.1304 125.452 32.9511 125.308 32.7653 125.165C31.408 123.214 30.7203 121.202 30.6473 119.129Z" fill="white"/>
<path d="M1.21076 131.267C1.10879 131.516 1.00391 131.757 0.908487 132.006C0.585644 132.167 0.262802 132.327 -0.0665834 132.489C-1.44739 133.167 -2.95104 132.996 -4.52761 131.347C-5.97637 129.83 -6.56293 128.107 -6.20395 126.432C-5.81287 124.617 -4.50861 124.203 -2.75803 124.614C-2.34527 124.709 -1.92668 124.82 -1.51102 124.922C-1.31563 125.073 -1.12678 125.225 -0.928493 125.384C0.413117 127.269 1.08379 129.232 1.21076 131.267Z" fill="white"/>
<path d="M11.1511 111.508C10.9812 111.371 10.8084 111.227 10.6385 111.091C9.21415 108.796 7.84571 106.486 9.24237 104.527C10.0535 103.387 11.3266 103.232 12.8749 104.09C15.5236 105.552 15.9008 107.971 16.1698 110.409C16.0752 110.64 15.9805 110.871 15.8859 111.103C14.586 112.028 12.9903 112.114 11.1511 111.508Z" fill="white"/>
<path d="M-3.21356 110.379C-3.99305 108.223 -3.10757 106.119 -1.37415 106.02C0.284412 105.919 2.36376 107.611 3.10845 109.668C3.88793 111.824 2.99956 113.92 1.26904 114.027C-0.389524 114.128 -2.47542 112.437 -3.21356 110.379Z" fill="white"/>
<path d="M27.8156 105.044C28.5976 107.072 27.9024 109.14 26.3181 109.472C24.6843 109.817 22.3987 108.138 21.5609 105.97C20.7383 103.827 21.5637 101.686 23.2846 101.511C24.9138 101.346 27.0249 102.991 27.8156 105.044Z" fill="white"/>
<path d="M38.2694 137.562C36.5327 137.731 34.3034 135.884 33.6161 133.701C32.9636 131.617 33.8193 129.678 35.4644 129.519C37.2012 129.351 39.4334 131.206 40.1178 133.381C40.7703 135.465 39.908 137.404 38.2694 137.562Z" fill="white"/>
<path d="M35.2543 109.904C36.0105 112.071 35.0938 114.144 33.3518 114.218C31.6818 114.286 29.607 112.569 28.898 110.516C28.1418 108.349 29.0584 106.277 30.8004 106.202C32.4705 106.135 34.5416 107.861 35.2543 109.904Z" fill="white"/>
<path d="M6.26576 106.751C4.40114 106.762 2.89097 105.722 2.05788 103.393C1.23349 101.09 1.79086 99.6344 3.61862 99.4228C5.43984 99.212 6.96582 100.413 7.81272 102.723C8.64944 105.042 7.9913 106.346 6.26576 106.751Z" fill="white"/>
<path d="M20.3058 100.65C20.8816 102.939 20.3507 104.359 18.4851 104.455C16.613 104.551 15.1174 103.252 14.3692 100.954C13.6188 98.6316 14.2879 97.2573 16.1411 97.1458C18.0206 97.0316 19.4062 98.3849 20.3058 100.65Z" fill="white"/>
<path d="M40.8373 118.623C38.8325 118.58 37.3286 117.479 36.5444 115.155C35.7631 112.838 36.3777 111.412 38.2157 111.25C40.0632 111.096 41.5799 112.349 42.3808 114.663C43.1962 117.019 42.4345 118.239 40.8373 118.623Z" fill="white"/>
<path d="M43.1312 130.31C41.2592 130.279 39.807 129.191 38.9334 126.901C38.1041 124.717 38.9056 122.88 40.7043 122.876C42.5806 122.881 44.0524 124.121 44.8062 126.397C45.5715 128.707 44.8569 129.964 43.1312 130.31Z" fill="white"/>
<path d="M11.1277 99.4758C9.35974 99.3148 7.93997 98.3171 7.27343 96.2882C6.61269 94.2757 7.20515 92.9028 8.8159 92.7901C10.4266 92.6773 11.8861 93.884 12.5628 95.9033C13.2453 97.9392 12.5109 99.0623 11.1277 99.4758Z" fill="white"/>
<path d="M49.5243 119.291C50.0408 121.297 49.6692 122.726 48.0656 122.932C46.4656 123.129 44.9767 121.965 44.2324 119.948C43.4851 117.924 44.0387 116.509 45.6263 116.297C47.227 116.083 48.5696 117.313 49.5243 119.291Z" fill="white"/>
<path d="M38.2828 106.608C36.6431 106.544 35.2073 105.599 34.4649 103.586C33.7225 101.572 34.2681 100.161 35.8413 99.9583C37.4181 99.7468 38.9031 100.909 39.6557 102.913C40.4046 104.925 39.7605 106.133 38.2828 106.608Z" fill="white"/>
<path d="M30.9394 101.907C29.2581 101.84 27.8228 100.895 27.0807 98.8819C26.3386 96.8689 26.884 95.4581 28.4566 95.2554C30.0394 95.0432 31.5203 96.2139 32.2631 98.2097C33.0212 100.229 32.3584 101.422 30.9394 101.907Z" fill="white"/>
<path d="M-4.92973 98.4831C-5.43804 96.5201 -4.95478 95.3697 -3.35872 95.3184C-1.74012 95.2734 -0.532084 96.4311 0.0453418 98.3786C0.588674 100.21 0.037095 101.282 -1.42152 101.396C-3.02054 101.516 -4.17552 100.413 -4.92973 98.4831Z" fill="white"/>
<path d="M51.6911 131.032C52.2614 132.998 51.85 134.218 50.2541 134.329C48.6546 134.449 47.4141 133.354 46.7689 131.387C46.1701 129.553 46.6593 128.419 48.1045 128.246C49.6779 128.052 50.885 129.091 51.6911 131.032Z" fill="white"/>
<path d="M19.921 94.2894C19.2905 92.2104 19.6473 90.9703 21.2255 90.8099C22.8002 90.6584 24.0464 91.6929 24.7272 93.6642C25.3558 95.4872 24.9052 96.6344 23.4775 96.8564C21.9246 97.1081 20.7373 96.0676 19.921 94.2894Z" fill="white"/>
<path d="M45.4262 111.023C43.8054 110.958 42.5827 109.965 41.9779 107.997C41.371 106.003 42.0095 104.932 43.5918 104.907C45.0798 104.884 46.2546 105.933 46.8689 107.755C47.5375 109.751 46.9303 110.776 45.4262 111.023Z" fill="white"/>
<path d="M0.39906 91.6243C-0.0442064 89.9615 0.304585 88.833 1.675 88.7365C2.92462 88.6436 4.07149 89.5688 4.62692 91.1263C5.23462 92.8321 4.76864 93.9553 3.39822 94.0519C2.15151 94.153 1.10656 93.209 0.39906 91.6243Z" fill="white"/>
<path d="M56.3708 124.015C56.8206 125.523 56.5912 126.682 55.3993 126.957C54.0888 127.261 52.8338 126.355 52.1666 124.673C51.4936 122.974 51.9485 121.801 53.3019 121.638C54.5337 121.495 55.6017 122.428 56.3708 124.015Z" fill="white"/>
<path d="M17.0323 88.8437C17.4829 90.3347 17.2608 91.4757 16.0688 91.7505C14.7684 92.0449 13.5286 91.1635 12.8643 89.4893C12.1941 87.7986 12.6418 86.6432 13.9887 86.4807C15.2206 86.3384 16.2734 87.2474 17.0323 88.8437Z" fill="white"/>
<path d="M52.8256 115.374C51.5798 115.372 50.4398 114.653 49.7942 113.107C49.087 111.405 49.4939 110.196 50.8168 109.993C52.1492 109.798 53.3754 110.781 53.9715 112.494C54.5154 114.059 54.0122 115.014 52.8256 115.374Z" fill="white"/>
<path d="M42.8557 98.7096C41.6467 98.6791 40.6807 97.9928 40.1627 96.502C39.5926 94.8629 40.0559 93.9289 41.3652 93.898C42.5671 93.8696 43.5184 94.745 43.9848 96.224C44.4607 97.7107 43.9873 98.5007 42.8557 98.7096Z" fill="white"/>
<path d="M50.2294 103.267C49.128 103.175 48.1636 102.548 47.6909 101.224C47.1718 99.7682 47.5884 98.7798 48.7762 98.7526C49.8275 98.7224 50.8093 99.5516 51.2326 100.889C51.6596 102.218 51.1975 102.981 50.2294 103.267Z" fill="white"/>
<path d="M32.7584 91.8726C32.3267 90.2428 32.6252 89.2987 33.8167 89.1947C35.1261 89.0787 36.1436 89.983 36.6313 91.5986C37.0726 93.0823 36.5959 93.9249 35.403 93.9864C34.1744 94.0429 33.3141 93.1227 32.7584 91.8726Z" fill="white"/>
<path d="M28.0231 89.1373C26.8914 88.9967 25.9321 88.3272 25.503 86.9731C25.0826 85.6436 25.4802 84.7168 26.562 84.6579C27.6307 84.6002 28.6225 85.4198 29.0552 86.765C29.4909 88.1185 29.0158 88.8828 28.0231 89.1373Z" fill="white"/>
<path d="M57.4219 107.419C56.5915 107.367 55.8674 106.887 55.5075 105.883C55.0954 104.731 55.4263 103.999 56.3663 103.997C57.1699 103.992 57.8938 104.626 58.2044 105.643C58.5056 106.652 58.1654 107.224 57.4219 107.419Z" fill="white"/>
<path d="M59.8957 119.292C58.733 119.24 57.9637 118.517 57.6241 117.263C57.3185 116.126 57.7084 115.464 58.6301 115.447C59.6985 115.423 60.4655 116.198 60.8146 117.459C61.1296 118.604 60.6882 119.178 59.8957 119.292Z" fill="white"/>
<path d="M62.282 130.785C61.2301 130.679 60.4819 130.09 60.1833 128.953C59.9294 127.982 60.2376 127.32 61.0573 127.304C61.9845 127.287 62.729 127.961 63.0378 129.089C63.3163 130.092 62.8915 130.595 62.282 130.785Z" fill="white"/>
<path d="M20.5068 83.9021C19.6798 83.8584 18.9525 83.3869 18.5863 82.3844C18.1614 81.2344 18.4826 80.4943 19.4163 80.476C20.2165 80.4628 20.9407 81.0795 21.2606 82.1038C21.584 83.1192 21.244 83.6907 20.5068 83.9021Z" fill="white"/>
<path d="M8.19091 86.3357C7.20135 86.3511 6.41053 85.758 6.00067 84.478C5.63643 83.3469 5.94625 82.6503 6.83206 82.5516C7.84201 82.4404 8.63936 83.1096 9.05285 84.3807C9.42653 85.5194 9.08041 86.1514 8.19091 86.3357Z" fill="white"/>
</g>
<g opacity="0.75">
<path d="M212.595 34.6278L211.847 34.0886C221.797 21.7701 227.059 7.0543 227.059 -8.47445C227.059 -32.5307 214.222 -54.6625 192.72 -67.6778L193.23 -68.4244C215.005 -55.2515 228 -32.8377 228 -8.47445C228 7.24509 222.668 22.1517 212.595 34.6278Z" fill="#4D4D4D"/>
<path d="M152.505 62.7073C110.872 62.7073 77 30.7705 77 -8.48272C77 -47.7359 110.872 -79.6727 152.505 -79.6727V-78.7851C111.391 -78.7851 77.9502 -47.2465 77.9502 -8.49102C77.9502 30.2728 111.4 61.8031 152.505 61.8031C164.927 61.8031 177.227 58.8666 188.066 53.3087L188.515 54.0885C177.535 59.7376 165.077 62.7073 152.505 62.7073Z" fill="#4D4D4D"/>
<path d="M116.776 46.3157C96.4351 34.5032 84.2939 14.0139 84.2939 -8.48285H86.1854C86.1854 13.3918 97.9924 33.3087 117.77 44.7977L116.776 46.3157Z" fill="#4D4D4D"/>
<path d="M152.505 55.8388C145.027 55.8388 137.68 54.7024 130.659 52.471L131.267 50.787C138.094 52.9604 145.238 54.0636 152.514 54.0636C186.676 54.0636 215.05 29.9327 218.49 -2.07043L220.373 -1.88794C216.818 31.0111 187.644 55.8388 152.505 55.8388Z" fill="#4D4D4D"/>
<path d="M152.505 37.9709C125.336 37.9709 103.236 17.1331 103.236 -8.48265C103.236 -18.8517 106.781 -28.6567 113.477 -36.8359L114.972 -35.7492C108.532 -27.877 105.127 -18.4536 105.127 -8.48265C105.127 16.146 126.383 36.1874 152.505 36.1874C157.141 36.1874 161.725 35.5569 166.115 34.3126L166.661 36.0215C162.086 37.3238 157.317 37.9709 152.505 37.9709Z" fill="#4D4D4D"/>
<path d="M185.779 25.7767L184.503 24.4661C194.278 16.0215 199.882 4.01822 199.882 -8.47446C199.882 -17.2674 197.172 -25.7784 192.052 -33.0865L193.627 -34.0654C198.958 -26.4669 201.774 -17.6159 201.774 -8.46618C201.765 4.51592 195.941 17.0003 185.779 25.7767Z" fill="#4D4D4D"/>
<path d="M152.505 29.9907C145.871 29.9907 139.281 28.4561 133.457 25.5528L133.897 24.7647C139.589 27.6017 146.02 29.1031 152.496 29.1031C170.382 29.1031 186.183 17.7635 190.925 1.52136L191.832 1.76193C186.993 18.3857 170.813 29.9907 152.505 29.9907Z" fill="#4D4D4D"/>
<path d="M123.656 18.7339C115.949 11.4673 111.7 1.80331 111.7 -8.47453C111.7 -29.6855 130 -46.948 152.505 -46.948C175.002 -46.948 193.31 -29.6855 193.31 -8.47453H192.369C192.369 -29.1961 174.491 -46.0521 152.514 -46.0521C130.536 -46.0521 112.659 -29.1961 112.659 -8.47453C112.659 1.56275 116.803 11.0028 124.343 18.1035L123.656 18.7339Z" fill="#4D4D4D"/>
<path d="M152.504 15.4492C138.507 15.4492 127.122 4.71509 127.122 -8.48269C127.122 -21.6805 138.507 -32.4146 152.504 -32.4146V-30.631C139.554 -30.631 129.014 -20.6933 129.014 -8.48269C129.014 3.72795 139.554 13.6657 152.504 13.6657C165.455 13.6657 175.995 3.72795 175.995 -8.48269H177.887C177.878 4.71509 166.493 15.4492 152.504 15.4492Z" fill="#4D4D4D"/>
<path d="M152.505 3.41272C145.546 3.41272 139.889 -1.92114 139.889 -8.4827H140.83C140.83 -2.41886 146.065 2.51684 152.496 2.51684C158.928 2.51684 164.163 -2.41886 164.163 -8.4827C164.163 -14.5465 158.928 -19.4822 152.496 -19.4822C148.924 -19.4822 145.599 -17.9725 143.364 -15.3346L142.625 -15.8904C145.036 -18.7439 148.634 -20.3781 152.496 -20.3781C159.456 -20.3781 165.113 -15.0443 165.113 -8.4827C165.113 -1.92114 159.456 3.41272 152.505 3.41272Z" fill="#4D4D4D"/>
</g>
<g opacity="0.75">
<path d="M842.35 176.21L841.493 175.593C852.893 161.479 858.921 144.62 858.921 126.828C858.921 99.2674 844.214 73.9113 819.579 58.9998L820.164 58.1444C845.111 73.2365 859.999 98.9158 859.999 126.828C859.999 144.838 853.891 161.917 842.35 176.21Z" fill="#4D4D4D"/>
<path d="M773.505 208.381C725.807 208.381 687 171.791 687 126.819C687 81.8468 725.807 45.2571 773.505 45.2571V46.274C726.402 46.274 688.089 82.4075 688.089 126.809C688.089 171.221 726.412 207.345 773.505 207.345C787.738 207.345 801.829 203.98 814.247 197.613L814.761 198.506C802.182 204.978 787.909 208.381 773.505 208.381Z" fill="#4D4D4D"/>
<path d="M732.571 189.601C709.267 176.067 695.356 152.593 695.356 126.819H697.524C697.524 151.88 711.051 174.699 733.71 187.862L732.571 189.601Z" fill="#4D4D4D"/>
<path d="M848.519 115.376C845.687 98.754 836.635 83.5194 823.017 72.4855C809.258 61.328 791.669 55.1885 773.505 55.1885C758.839 55.1885 744.606 59.1326 732.339 66.6026C718.046 75.3081 707.14 88.4234 701.626 103.534L699.58 102.869C705.245 87.3304 716.464 73.8445 731.16 64.8919C743.78 57.2128 758.416 53.1547 773.495 53.1547C792.183 53.1547 810.266 59.4747 824.418 70.9458C838.419 82.2934 847.733 97.9652 850.646 115.063L848.519 115.376Z" fill="#4D4D4D"/>
<path d="M773.505 180.041C742.378 180.041 717.058 156.167 717.058 126.819C717.058 114.939 721.12 103.706 728.791 94.3352L730.504 95.5802C723.126 104.599 719.225 115.396 719.225 126.819C719.225 155.036 743.578 177.997 773.505 177.997C778.817 177.997 784.068 177.275 789.098 175.849L789.723 177.807C784.482 179.299 779.018 180.041 773.505 180.041Z" fill="#4D4D4D"/>
<path d="M811.627 166.069L810.165 164.568C821.364 154.893 827.785 141.141 827.785 126.828C827.785 116.754 824.68 107.003 818.814 98.6304L820.618 97.5089C826.727 106.214 829.952 116.355 829.952 126.838C829.942 141.711 823.269 156.014 811.627 166.069Z" fill="#4D4D4D"/>
<path d="M807.272 86.7505C797.586 79.4801 785.903 75.6406 773.505 75.6406C762.629 75.6406 752.136 78.6628 743.155 84.3841L741.945 82.6924C751.279 76.743 762.195 73.6068 773.505 73.6068C786.407 73.6068 798.553 77.5984 808.623 85.1634L807.272 86.7505Z" fill="#4D4D4D"/>
<path d="M740.454 158C731.624 149.675 726.755 138.603 726.755 126.828C726.755 102.527 747.721 82.7491 773.505 82.7491C799.279 82.7491 820.256 102.527 820.256 126.828H819.177C819.177 103.087 798.695 83.7755 773.515 83.7755C748.336 83.7755 727.854 103.087 727.854 126.828C727.854 138.327 732.602 149.143 741.24 157.278L740.454 158Z" fill="#4D4D4D"/>
<path d="M773.505 154.237C757.468 154.237 744.424 141.939 744.424 126.818C744.424 111.698 757.468 99.3998 773.505 99.3998V101.443C758.667 101.443 746.592 112.829 746.592 126.818C746.592 140.808 758.667 152.194 773.505 152.194C788.342 152.194 800.418 140.808 800.418 126.818H802.585C802.575 141.939 789.531 154.237 773.505 154.237Z" fill="#4D4D4D"/>
<path d="M773.505 140.447C765.532 140.447 759.051 134.336 759.051 126.819H760.13C760.13 133.766 766.127 139.421 773.495 139.421C780.864 139.421 786.861 133.766 786.861 126.819C786.861 119.871 780.864 114.217 773.495 114.217C769.403 114.217 765.593 115.946 763.033 118.968L762.186 118.332C764.948 115.062 769.07 113.19 773.495 113.19C781.468 113.19 787.95 119.301 787.95 126.819C787.95 134.336 781.468 140.447 773.505 140.447Z" fill="#4D4D4D"/>
</g>
</g>
<defs>
<clipPath id="clip0_4647_49418">
<rect width="841" height="132" rx="8" fill="white"/>
</clipPath>
</defs>
</svg>
