<svg width="16" height="13" viewBox="0 0 16 13" fill="none" xmlns="http://www.w3.org/2000/svg">
<path d="M2.29956 12.6293H13.6877C15.0437 12.6293 15.7594 11.9262 15.7594 10.5827V3.99093C15.7594 2.64746 15.0437 1.94434 13.6877 1.94434H11.9738C11.4841 1.94434 11.3272 1.86272 11.0196 1.54255L10.5236 1.00893C10.1972 0.663644 9.86443 0.494141 9.22409 0.494141H6.73176C6.09141 0.494141 5.76496 0.663644 5.43223 1.00893L4.93628 1.54255C4.63494 1.85645 4.47171 1.94434 3.98204 1.94434H2.29956C0.943534 1.94434 0.234131 2.64746 0.234131 3.99093V10.5827C0.234131 11.9262 0.943534 12.6293 2.29956 12.6293ZM2.38117 11.38C1.80988 11.38 1.48343 11.0787 1.48343 10.4697V4.10393C1.48343 3.50126 1.80988 3.19992 2.38117 3.19992H4.34616C4.91117 3.19992 5.19995 3.09947 5.52012 2.75419L5.99724 2.22684C6.34881 1.84389 6.53714 1.74344 7.0896 1.74344H8.86625C9.4187 1.74344 9.60704 1.84389 9.95232 2.22056L10.4357 2.75419C10.7559 3.09947 11.0447 3.19992 11.6097 3.19992H13.6061C14.1836 3.19992 14.5038 3.50126 14.5038 4.10393V10.4697C14.5038 11.0787 14.1836 11.38 13.6061 11.38H2.38117ZM7.99362 10.5513C9.87699 10.5513 11.3837 9.04464 11.3837 7.15499C11.3837 5.26535 9.87699 3.75865 7.99362 3.75865C6.11653 3.75865 4.60983 5.26535 4.60983 7.15499C4.60983 9.04464 6.11653 10.5513 7.99362 10.5513ZM11.5971 4.90751C11.5971 5.36579 11.9675 5.72363 12.4195 5.71736C12.859 5.71736 13.2294 5.35951 13.2294 4.90751C13.2294 4.46805 12.8527 4.09138 12.4195 4.09138C11.9675 4.09138 11.5971 4.46805 11.5971 4.90751ZM7.99362 9.40876C6.75687 9.40876 5.74613 8.4043 5.74613 7.15499C5.74613 5.89941 6.75059 4.90123 7.99362 4.90123C9.24292 4.90123 10.2474 5.89941 10.2474 7.15499C10.2474 8.4043 9.24292 9.40876 7.99362 9.40876Z" fill="black"/>
</svg>
