<svg width="30" height="23" viewBox="0 0 30 23" fill="none" xmlns="http://www.w3.org/2000/svg">
<path d="M28.125 0.25H1.875C0.841113 0.25 0 1.09111 0 2.125V20.875C0 21.9089 0.841113 22.75 1.875 22.75H28.125C29.1589 22.75 30 21.9089 30 20.875V2.125C30 1.09111 29.1589 0.25 28.125 0.25Z" fill="url(#paint0_linear_3570_47757)"/>
<path d="M30 2.125V20.875C30 21.9092 29.1586 22.75 28.125 22.75H25.3125C26.3461 22.75 27.1875 21.9092 27.1875 20.875V2.125C27.1875 1.09082 26.3461 0.25 25.3125 0.25H28.125C29.1586 0.25 30 1.09082 30 2.125Z" fill="url(#paint1_linear_3570_47757)"/>
<path d="M29.5312 4H0.46875C0.209883 4 0 4.20988 0 4.46875V8.21875C0 8.47762 0.209883 8.6875 0.46875 8.6875H29.5312C29.7901 8.6875 30 8.47762 30 8.21875V4.46875C30 4.20988 29.7901 4 29.5312 4Z" fill="#595965"/>
<path d="M30 4.46875V8.21875C30 8.47773 29.7902 8.6875 29.5312 8.6875H26.7188C26.9777 8.6875 27.1875 8.47773 27.1875 8.21875V4.46875C27.1875 4.20977 26.9777 4 26.7188 4H29.5312C29.7902 4 30 4.20977 30 4.46875Z" fill="#44454E"/>
<path d="M12.6562 12.9062H2.8125C2.55363 12.9062 2.34375 12.6964 2.34375 12.4375C2.34375 12.1786 2.55363 11.9688 2.8125 11.9688H12.6562C12.9151 11.9688 13.125 12.1786 13.125 12.4375C13.125 12.6964 12.9151 12.9062 12.6562 12.9062Z" fill="#EDEBFD"/>
<path d="M9.84375 15.7188H2.8125C2.55363 15.7188 2.34375 15.5089 2.34375 15.25C2.34375 14.9911 2.55363 14.7812 2.8125 14.7812H9.84375C10.1026 14.7812 10.3125 14.9911 10.3125 15.25C10.3125 15.5089 10.1026 15.7188 9.84375 15.7188Z" fill="#EDEBFD"/>
<path d="M27.1875 19.9375H2.8125C2.55363 19.9375 2.34375 19.7276 2.34375 19.4688C2.34375 19.2099 2.55363 19 2.8125 19H27.1875C27.4464 19 27.6562 19.2099 27.6562 19.4688C27.6562 19.7276 27.4464 19.9375 27.1875 19.9375Z" fill="#EDEBFD"/>
<path d="M25.1367 16.1875H22.6758C22.0619 16.1875 21.5625 15.6881 21.5625 15.0742V12.6133C21.5625 11.9994 22.0619 11.5 22.6758 11.5H25.1367C25.7506 11.5 26.25 11.9994 26.25 12.6133V15.0742C26.25 15.6881 25.7506 16.1875 25.1367 16.1875Z" fill="#F1CC76"/>
<path d="M25.1367 11.5H23.7305C24.3445 11.5 24.8438 11.9992 24.8438 12.6133V15.0742C24.8438 15.6883 24.3445 16.1875 23.7305 16.1875H25.1367C25.7508 16.1875 26.25 15.6883 26.25 15.0742V12.6133C26.25 11.9992 25.7508 11.5 25.1367 11.5Z" fill="#EBB15D"/>
<defs>
<linearGradient id="paint0_linear_3570_47757" x1="15" y1="0.25" x2="15" y2="22.75" gradientUnits="userSpaceOnUse">
<stop stop-color="#FFE25A"/>
<stop offset="1" stop-color="#F7C102"/>
</linearGradient>
<linearGradient id="paint1_linear_3570_47757" x1="27.6562" y1="0.25" x2="27.6563" y2="22.75" gradientUnits="userSpaceOnUse">
<stop stop-color="#FFE25A"/>
<stop offset="1" stop-color="#F7C102"/>
</linearGradient>
</defs>
</svg>
