<svg width="12" height="12" viewBox="0 0 12 12" fill="none" xmlns="http://www.w3.org/2000/svg">
<path fill-rule="evenodd" clip-rule="evenodd" d="M6.70264 5.9949L11.8458 0.853202C12.041 0.655829 12.041 0.341031 11.8458 0.146156C11.651 -0.0487187 11.3342 -0.0487187 11.1393 0.146156L5.99609 5.28786L0.85289 0.146156C0.658015 -0.0487187 0.341218 -0.0487187 0.146344 0.146156C-0.0487812 0.341031 -0.0487812 0.655829 0.146344 0.853202L5.28954 5.9949L0.146344 11.1391C-0.0487812 11.334 -0.0487812 11.6488 0.146344 11.8461C0.243781 11.9436 0.371699 11.9911 0.499617 11.9911C0.627535 11.9911 0.755453 11.9436 0.85289 11.8461L5.99609 6.70195L11.1393 11.8461C11.2367 11.9436 11.3646 11.9911 11.4926 11.9911C11.6205 11.9911 11.7484 11.9436 11.8458 11.8461C12.041 11.6488 12.041 11.334 11.8458 11.1391L6.70264 5.9949" fill="#07002F"/>
</svg>
