<svg width="12" height="12" viewBox="0 0 12 12" fill="none" xmlns="http://www.w3.org/2000/svg">
<path fill-rule="evenodd" clip-rule="evenodd" d="M6.70264 6.00174L11.8458 0.860038C12.041 0.662665 12.041 0.347867 11.8458 0.152992C11.651 -0.0418828 11.3342 -0.0418828 11.1393 0.152992L5.99609 5.29469L0.85289 0.152992C0.658015 -0.0418828 0.341219 -0.0418828 0.146344 0.152992C-0.0487812 0.347867 -0.0487812 0.662665 0.146344 0.860038L5.28954 6.00174L0.146344 11.1459C-0.0487812 11.3408 -0.0487812 11.6556 0.146344 11.853C0.243781 11.9504 0.371699 11.9979 0.499617 11.9979C0.627535 11.9979 0.755453 11.9504 0.85289 11.853L5.99609 6.70878L11.1393 11.853C11.2367 11.9504 11.3646 11.9979 11.4926 11.9979C11.6205 11.9979 11.7484 11.9504 11.8458 11.853C12.041 11.6556 12.041 11.3408 11.8458 11.1459L6.70264 6.00174Z" fill="#FBFBFD"/>
</svg>
