<svg width="81" height="80" viewBox="0 0 81 80" fill="none" xmlns="http://www.w3.org/2000/svg">
<circle cx="40.5" cy="40" r="39" stroke="black" stroke-width="2"/>
<circle cx="40.4998" cy="40" r="28.2927" fill="#F0F0F0"/>
<path d="M32.6114 46.2195H36.6489C36.7175 48.0814 38.2462 49.8062 40.5001 49.8062C42.7443 49.8062 44.2828 48.0912 44.3612 46.2195H48.3889C49.408 46.2195 50.0352 45.6609 50.0352 44.8181C50.0352 43.7696 49.0846 42.8778 48.1929 42.0252C47.5069 41.3491 47.3501 40.0163 47.2129 38.6836C47.2031 38.1348 47.1639 37.6154 47.1051 37.1156C46.5171 37.3606 45.7822 37.4586 45.155 37.3704C45.204 37.8212 45.2432 38.3014 45.253 38.86C45.351 40.7219 45.6744 42.1526 46.3407 42.9268C46.8209 43.4756 47.3697 43.995 47.6245 44.2792V44.3968H33.3562V44.2792C33.611 43.995 34.1794 43.4756 34.6596 42.9268C35.3357 42.1526 35.6493 40.7219 35.7473 38.86C35.8649 34.9303 37.0703 33.5975 38.648 33.186C38.893 33.1174 39.0204 32.9998 39.04 32.7352C39.0988 31.7454 39.6476 31.079 40.5001 31.079C40.6667 31.079 40.8137 31.0986 40.9509 31.1476C41.1273 30.5498 41.4409 30.0109 41.8525 29.5601C41.4507 29.3543 40.9999 29.2367 40.5001 29.2367C39.04 29.2367 37.9522 30.2265 37.5799 31.5298C35.0221 32.451 33.9442 34.9205 33.7972 38.615C33.6698 39.9967 33.5032 41.3491 32.8074 42.0252C31.9157 42.8778 30.9651 43.7696 30.9651 44.8181C30.9651 45.6609 31.5923 46.2195 32.6114 46.2195ZM45.4 36.0965C47.2423 36.0965 48.7809 34.5677 48.7809 32.7156C48.7809 30.8634 47.2423 29.3347 45.4 29.3347C43.5478 29.3347 42.0191 30.8634 42.0191 32.7156C42.0191 34.5677 43.5478 36.0965 45.4 36.0965ZM40.5001 48.2284C39.3928 48.2284 38.599 47.4346 38.5304 46.2195H42.4797C42.4209 47.4248 41.6173 48.2284 40.5001 48.2284Z" fill="black"/>
</svg>
