<svg width="41" height="40" viewBox="0 0 41 40" fill="none" xmlns="http://www.w3.org/2000/svg">
<rect x="0.5" width="40" height="40" rx="8" fill="#222631"/>
<path d="M14.5 14H16.5V16H14.5V14Z" fill="white"/>
<path d="M14.5 24H16.5V26H14.5V24Z" fill="white"/>
<path d="M24.5 24H26.5V26H24.5V24Z" fill="url(#paint0_linear_4647_49416)"/>
<path d="M26.5 22H28.5V24H26.5V22Z" fill="url(#paint1_linear_4647_49416)"/>
<path d="M26.5 26H28.5V28H26.5V26Z" fill="url(#paint2_linear_4647_49416)"/>
<path d="M22.5 22H24.5V24H22.5V22Z" fill="url(#paint3_linear_4647_49416)"/>
<path d="M22.5 26H24.5V28H22.5V26Z" fill="url(#paint4_linear_4647_49416)"/>
<path d="M24.5 14H26.5V16H24.5V14Z" fill="white"/>
<path fill-rule="evenodd" clip-rule="evenodd" d="M17.5 12.5H13.5C13.2239 12.5 13 12.7239 13 13V17C13 17.2761 13.2239 17.5 13.5 17.5H17.5C17.7761 17.5 18 17.2761 18 17V13C18 12.7239 17.7761 12.5 17.5 12.5ZM13.5 11C12.3954 11 11.5 11.8954 11.5 13V17C11.5 18.1046 12.3954 19 13.5 19H17.5C18.6046 19 19.5 18.1046 19.5 17V13C19.5 11.8954 18.6046 11 17.5 11H13.5Z" fill="white"/>
<path fill-rule="evenodd" clip-rule="evenodd" d="M17.5 22.5H13.5C13.2239 22.5 13 22.7239 13 23V27C13 27.2761 13.2239 27.5 13.5 27.5H17.5C17.7761 27.5 18 27.2761 18 27V23C18 22.7239 17.7761 22.5 17.5 22.5ZM13.5 21C12.3954 21 11.5 21.8954 11.5 23V27C11.5 28.1046 12.3954 29 13.5 29H17.5C18.6046 29 19.5 28.1046 19.5 27V23C19.5 21.8954 18.6046 21 17.5 21H13.5Z" fill="white"/>
<path fill-rule="evenodd" clip-rule="evenodd" d="M27.5 12.5H23.5C23.2239 12.5 23 12.7239 23 13V17C23 17.2761 23.2239 17.5 23.5 17.5H27.5C27.7761 17.5 28 17.2761 28 17V13C28 12.7239 27.7761 12.5 27.5 12.5ZM23.5 11C22.3954 11 21.5 11.8954 21.5 13V17C21.5 18.1046 22.3954 19 23.5 19H27.5C28.6046 19 29.5 18.1046 29.5 17V13C29.5 11.8954 28.6046 11 27.5 11H23.5Z" fill="white"/>
<defs>
<linearGradient id="paint0_linear_4647_49416" x1="25.5" y1="24" x2="25.5" y2="26" gradientUnits="userSpaceOnUse">
<stop offset="0.0349758" stop-color="#FFD600"/>
<stop offset="0.966035" stop-color="#FFC200"/>
</linearGradient>
<linearGradient id="paint1_linear_4647_49416" x1="27.5" y1="22" x2="27.5" y2="24" gradientUnits="userSpaceOnUse">
<stop offset="0.0349758" stop-color="#FFD600"/>
<stop offset="0.966035" stop-color="#FFC200"/>
</linearGradient>
<linearGradient id="paint2_linear_4647_49416" x1="27.5" y1="26" x2="27.5" y2="28" gradientUnits="userSpaceOnUse">
<stop offset="0.0349758" stop-color="#FFD600"/>
<stop offset="0.966035" stop-color="#FFC200"/>
</linearGradient>
<linearGradient id="paint3_linear_4647_49416" x1="23.5" y1="22" x2="23.5" y2="24" gradientUnits="userSpaceOnUse">
<stop offset="0.0349758" stop-color="#FFD600"/>
<stop offset="0.966035" stop-color="#FFC200"/>
</linearGradient>
<linearGradient id="paint4_linear_4647_49416" x1="23.5" y1="26" x2="23.5" y2="28" gradientUnits="userSpaceOnUse">
<stop offset="0.0349758" stop-color="#FFD600"/>
<stop offset="0.966035" stop-color="#FFC200"/>
</linearGradient>
</defs>
</svg>
