<svg width="25" height="24" viewBox="0 0 25 24" fill="none" xmlns="http://www.w3.org/2000/svg">
<g clip-path="url(#clip0_4351_21955)">
<ellipse cx="12.5" cy="12.6875" rx="11" ry="10.3125" fill="#C0922D"/>
<ellipse cx="12.5" cy="11.3125" rx="11" ry="10.3125" fill="#222631"/>
<path d="M18.1836 9.34059H14.4781C13.3309 9.34059 12.2323 8.85779 11.4308 8.00178C11.3636 7.92996 11.2467 7.97978 11.2467 8.08024V12.6949C11.2467 12.9352 10.9682 13.0556 10.8055 12.8854L7.27301 9.19861C5.90709 7.77304 6.87524 5.33496 8.80717 5.33496H13.5036C14.2681 5.33496 15.0019 5.65212 15.5429 6.21588L18.2871 9.08113C18.3781 9.17703 18.3133 9.34059 18.1836 9.34059Z" fill="#C0922D"/>
<path d="M16.1561 17.8666H11.4605C10.6952 17.8666 9.96092 17.5495 9.41956 16.9845L6.6758 14.1209C6.58391 14.025 6.64914 13.8614 6.77881 13.8614H10.4784C11.6252 13.8614 12.7234 14.3442 13.5245 15.2006C13.5917 15.2725 13.7086 15.2231 13.7086 15.1226L13.715 10.5059C13.7154 10.2659 13.9934 10.146 14.1561 10.3158L17.5538 13.8618L17.6898 14.0038C19.0554 15.429 18.088 17.8666 16.1561 17.8666Z" fill="#C0922D"/>
<path d="M18.1836 8.67225H14.4781C13.3309 8.67225 12.2323 8.18945 11.4308 7.33345C11.3636 7.26163 11.2467 7.31144 11.2467 7.41191V12.0265C11.2467 12.2669 10.9682 12.3873 10.8055 12.2171L7.27301 8.53028C5.90709 7.10471 6.87524 4.66663 8.80717 4.66663H13.5036C14.2681 4.66663 15.0019 4.98379 15.5429 5.54754L18.2871 8.41279C18.3781 8.50869 18.3133 8.67225 18.1836 8.67225Z" fill="url(#paint0_linear_4351_21955)"/>
<path d="M16.1561 17.1983H11.4605C10.6952 17.1983 9.96092 16.8811 9.41956 16.3161L6.6758 13.4525C6.58391 13.3566 6.64914 13.1931 6.77881 13.1931H10.4784C11.6252 13.1931 12.7234 13.6759 13.5245 14.5323C13.5917 14.6041 13.7086 14.5547 13.7086 14.4543L13.715 9.83756C13.7154 9.59761 13.9934 9.47764 14.1561 9.64743L17.5538 13.1935L17.6898 13.3355C19.0554 14.7606 18.088 17.1983 16.1561 17.1983Z" fill="url(#paint1_linear_4351_21955)"/>
</g>
<defs>
<linearGradient id="paint0_linear_4351_21955" x1="12.4817" y1="4.66663" x2="12.4817" y2="12.2968" gradientUnits="userSpaceOnUse">
<stop offset="0.0349758" stop-color="#FFD600"/>
<stop offset="0.966035" stop-color="#FFC200"/>
</linearGradient>
<linearGradient id="paint1_linear_4351_21955" x1="12.4809" y1="9.56787" x2="12.4809" y2="17.1983" gradientUnits="userSpaceOnUse">
<stop offset="0.0349758" stop-color="#FFD600"/>
<stop offset="0.966035" stop-color="#FFC200"/>
</linearGradient>
<clipPath id="clip0_4351_21955">
<rect width="24" height="24" fill="white" transform="translate(0.5)"/>
</clipPath>
</defs>
</svg>
