<svg width="29" height="28" viewBox="0 0 29 28" fill="none" xmlns="http://www.w3.org/2000/svg">
<g clip-path="url(#clip0_3989_49309)">
<ellipse cx="14.1691" cy="14.8021" rx="12.8333" ry="12.0312" fill="#C0922D"/>
<ellipse cx="14.1691" cy="13.1979" rx="12.8333" ry="12.0312" fill="url(#paint0_linear_3989_49309)"/>
<path d="M20.8001 10.8974H16.477C15.1386 10.8974 13.8569 10.3341 12.9219 9.33547C12.8434 9.25168 12.707 9.3098 12.707 9.42701V14.8107C12.707 15.0912 12.3822 15.2316 12.1924 15.033L8.07107 10.7318C6.4775 9.06861 7.60701 6.22418 9.86093 6.22418H15.34C16.232 6.22418 17.0881 6.5942 17.7193 7.25192L20.9208 10.5947C21.0271 10.7066 20.9514 10.8974 20.8001 10.8974Z" fill="#C0922D"/>
<path d="M18.435 20.8444H12.9569C12.064 20.8444 11.2074 20.4744 10.5758 19.8152L7.37473 16.4744C7.26753 16.3625 7.34364 16.1717 7.49492 16.1717H11.8111C13.149 16.1717 14.4302 16.7349 15.3648 17.7341C15.4433 17.8179 15.5797 17.7603 15.5797 17.6431L15.5871 12.2569C15.5876 11.977 15.912 11.837 16.1018 12.0351L20.0657 16.1722L20.2245 16.3378C21.8176 18.0005 20.689 20.8444 18.435 20.8444Z" fill="#C0922D"/>
<path d="M20.7999 10.1177H16.4767C15.1384 10.1177 13.8567 9.55442 12.9216 8.55575C12.8432 8.47196 12.7067 8.53008 12.7067 8.64728V14.031C12.7067 14.3114 12.3819 14.4519 12.1921 14.2533L8.07083 9.95205C6.47726 8.28889 7.60677 5.44446 9.86069 5.44446H15.3398C16.2317 5.44446 17.0879 5.81448 17.719 6.47219L20.9205 9.81499C21.0268 9.92687 20.9512 10.1177 20.7999 10.1177Z" fill="#222631"/>
<path d="M18.4348 20.0647H12.9566C12.0638 20.0647 11.2071 19.6947 10.5755 19.0355L7.37449 15.6947C7.26729 15.5828 7.34339 15.392 7.49468 15.392H11.8109C13.1487 15.392 14.43 15.9552 15.3646 16.9544C15.443 17.0382 15.5795 16.9805 15.5795 16.8633L15.5869 11.4772C15.5874 11.1972 15.9117 11.0573 16.1015 11.2554L20.0655 15.3924L20.2242 15.5581C21.8173 17.2208 20.6887 20.0647 18.4348 20.0647Z" fill="#222631"/>
</g>
<defs>
<linearGradient id="paint0_linear_3989_49309" x1="14.1691" y1="1.16669" x2="14.1691" y2="25.2292" gradientUnits="userSpaceOnUse">
<stop offset="0.0349758" stop-color="#FFD600"/>
<stop offset="0.966035" stop-color="#FFC200"/>
</linearGradient>
<clipPath id="clip0_3989_49309">
<rect width="28" height="28" fill="white" transform="translate(0.169189)"/>
</clipPath>
</defs>
</svg>
