<svg width="21" height="20" viewBox="0 0 21 20" fill="none" xmlns="http://www.w3.org/2000/svg">
<path d="M19.0797 8.28628H18.3749V8.24996H10.5V11.7499H15.445C14.7236 13.7874 12.785 15.2499 10.5 15.2499C7.60066 15.2499 5.24998 12.8993 5.24998 9.99996C5.24998 7.10066 7.60066 4.74998 10.5 4.74998C11.8383 4.74998 13.0558 5.25485 13.9829 6.07954L16.4578 3.60461C14.8951 2.14818 12.8047 1.25 10.5 1.25C5.66779 1.25 1.75 5.16779 1.75 9.99996C1.75 14.8321 5.66779 18.7499 10.5 18.7499C15.3321 18.7499 19.2499 14.8321 19.2499 9.99996C19.2499 9.41327 19.1895 8.84059 19.0797 8.28628Z" fill="#1A1A1A"/>
<path d="M2.75879 5.92729L5.63359 8.03559C6.41146 6.10973 8.29533 4.74998 10.4999 4.74998C11.8382 4.74998 13.0557 5.25485 13.9828 6.07954L16.4577 3.60461C14.895 2.14818 12.8046 1.25 10.4999 1.25C7.13902 1.25 4.22441 3.14743 2.75879 5.92729Z" fill="#1A1A1A"/>
<path d="M10.4999 18.75C12.76 18.75 14.8136 17.8851 16.3663 16.4785L13.6582 14.1869C12.7501 14.8775 11.6406 15.2509 10.4999 15.25C8.22399 15.25 6.29156 13.7989 5.56357 11.7737L2.71021 13.9721C4.15832 16.8058 7.09918 18.75 10.4999 18.75Z" fill="#1A1A1A"/>
<path d="M19.0798 8.28582H18.375V8.24951H10.5V11.7495H15.445C15.0999 12.7192 14.4783 13.5665 13.657 14.1868L13.6583 14.1859L16.3664 16.4775C16.1748 16.6517 19.25 14.3745 19.25 9.9995C19.25 9.41282 19.1896 8.84013 19.0798 8.28582Z" fill="#1A1A1A"/>
</svg>
