<svg width="112" height="50" viewBox="0 0 112 50" fill="none" xmlns="http://www.w3.org/2000/svg">
<path d="M0.732422 0.333008H111.732L100.28 24.9997L111.732 49.6663H0.732422V0.333008Z" fill="url(#paint0_linear_1919_3960)"/>
<path d="M65.8999 32.0044C65.1198 32.0044 64.4301 31.8489 63.8309 31.538C63.2318 31.2215 62.7626 30.7834 62.4234 30.2238C62.0842 29.6641 61.9147 29.0112 61.9147 28.2651C61.9147 27.5359 62.0871 26.8773 62.4319 26.2894C62.7824 25.7015 63.3081 25.2493 64.009 24.9328L63.9836 25.4839C63.4126 25.2069 62.9746 24.8169 62.6693 24.3138C62.3641 23.805 62.2114 23.2426 62.2114 22.6264C62.2114 21.9368 62.3697 21.3432 62.6863 20.8458C63.0028 20.3483 63.4381 19.964 63.9921 19.6926C64.546 19.4213 65.182 19.2856 65.8999 19.2856C66.6178 19.2856 67.2537 19.4213 67.8077 19.6926C68.3617 19.964 68.7969 20.3483 69.1135 20.8458C69.43 21.3432 69.5883 21.9368 69.5883 22.6264C69.5883 23.2426 69.4442 23.8022 69.1559 24.3053C68.8676 24.8027 68.4238 25.1956 67.8246 25.4839L67.7907 24.9412C68.4917 25.2465 69.0174 25.6959 69.3678 26.2894C69.724 26.8773 69.902 27.5359 69.902 28.2651C69.902 29.0112 69.7296 29.6641 69.3848 30.2238C69.0456 30.7834 68.5736 31.2215 67.9688 31.538C67.3696 31.8489 66.6799 32.0044 65.8999 32.0044ZM65.8999 30.5629C66.6121 30.5629 67.1887 30.3679 67.6296 29.9779C68.0762 29.5822 68.2995 29.0112 68.2995 28.2651C68.2995 27.5132 68.079 26.9423 67.6381 26.5523C67.2028 26.1566 66.6234 25.9587 65.8999 25.9587C65.182 25.9587 64.6026 26.1566 64.1616 26.5523C63.7264 26.9423 63.5087 27.5132 63.5087 28.2651C63.5087 29.0112 63.7292 29.5822 64.1701 29.9779C64.611 30.3679 65.1876 30.5629 65.8999 30.5629ZM65.8999 24.5088C66.5217 24.5088 67.0248 24.3533 67.4092 24.0424C67.7935 23.7259 67.9857 23.2539 67.9857 22.6264C67.9857 21.999 67.7935 21.5298 67.4092 21.2189C67.0248 20.9023 66.5217 20.744 65.8999 20.744C65.2837 20.744 64.7806 20.9023 64.3906 21.2189C64.0062 21.5298 63.814 21.999 63.814 22.6264C63.814 23.2539 64.0062 23.7259 64.3906 24.0424C64.7806 24.3533 65.2837 24.5088 65.8999 24.5088ZM76.2244 32.0044C75.4331 32.0044 74.7265 31.8263 74.1047 31.4702C73.4885 31.1084 72.9995 30.6194 72.6378 30.0033C72.2816 29.3815 72.1036 28.6749 72.1036 27.8835V23.4065C72.1036 22.6151 72.2816 21.9085 72.6378 21.2867C72.9995 20.6649 73.4885 20.1759 74.1047 19.8198C74.7265 19.4637 75.4331 19.2856 76.2244 19.2856C77.0158 19.2856 77.7224 19.4637 78.3442 19.8198C78.966 20.1759 79.455 20.6649 79.8111 21.2867C80.1673 21.9085 80.3453 22.6151 80.3453 23.4065V27.8835C80.3453 28.6749 80.1673 29.3815 79.8111 30.0033C79.455 30.6194 78.966 31.1084 78.3442 31.4702C77.7224 31.8263 77.0158 32.0044 76.2244 32.0044ZM76.2244 30.5544C76.7049 30.5544 77.1402 30.4386 77.5302 30.2068C77.9203 29.975 78.2312 29.6641 78.4629 29.2741C78.6947 28.8784 78.8106 28.4431 78.8106 27.9683V23.3132C78.8106 22.8327 78.6947 22.3975 78.4629 22.0074C78.2312 21.6174 77.9203 21.3065 77.5302 21.0747C77.1402 20.843 76.7049 20.7271 76.2244 20.7271C75.7496 20.7271 75.3143 20.843 74.9187 21.0747C74.5286 21.3065 74.2177 21.6174 73.9859 22.0074C73.7542 22.3975 73.6383 22.8327 73.6383 23.3132V27.9683C73.6383 28.4431 73.7542 28.8784 73.9859 29.2741C74.2177 29.6641 74.5286 29.975 74.9187 30.2068C75.3143 30.4386 75.7496 30.5544 76.2244 30.5544ZM84.0758 31.75L83.0583 30.7325L94.2677 19.54L95.2852 20.5575L84.0758 31.75ZM92.7415 32.0044C92.1818 32.0044 91.6703 31.8687 91.2067 31.5974C90.7489 31.3204 90.3814 30.953 90.1044 30.4951C89.8275 30.0316 89.689 29.5172 89.689 28.9519C89.689 28.3979 89.8303 27.8892 90.1129 27.4256C90.3956 26.9621 90.7686 26.5918 91.2322 26.3149C91.6957 26.0379 92.1988 25.8994 92.7415 25.8994C93.3011 25.8994 93.8127 26.0379 94.2762 26.3149C94.7397 26.5862 95.1071 26.9536 95.3785 27.4171C95.6555 27.875 95.794 28.3866 95.794 28.9519C95.794 29.5172 95.6555 30.0316 95.3785 30.4951C95.1071 30.953 94.7397 31.3204 94.2762 31.5974C93.8127 31.8687 93.3011 32.0044 92.7415 32.0044ZM92.7415 30.6731C93.0524 30.6731 93.3378 30.594 93.5979 30.4357C93.8635 30.2775 94.0727 30.0683 94.2253 29.8083C94.3836 29.5482 94.4627 29.2628 94.4627 28.9519C94.4627 28.641 94.3836 28.3555 94.2253 28.0955C94.0727 27.8298 93.8635 27.6206 93.5979 27.468C93.3378 27.3097 93.0524 27.2306 92.7415 27.2306C92.4306 27.2306 92.1451 27.3097 91.8851 27.468C91.625 27.6206 91.4159 27.8298 91.2576 28.0955C91.0993 28.3555 91.0202 28.641 91.0202 28.9519C91.0202 29.2628 91.0993 29.5482 91.2576 29.8083C91.4159 30.0683 91.625 30.2775 91.8851 30.4357C92.1451 30.594 92.4306 30.6731 92.7415 30.6731ZM85.602 25.3906C85.0424 25.3906 84.5308 25.255 84.0673 24.9836C83.6037 24.7066 83.2335 24.3392 82.9565 23.8813C82.6852 23.4178 82.5495 22.9034 82.5495 22.3381C82.5495 21.7842 82.6908 21.2754 82.9735 20.8119C83.2561 20.3483 83.6292 19.9781 84.0927 19.7011C84.5562 19.4241 85.0593 19.2856 85.602 19.2856C86.1616 19.2856 86.6704 19.4241 87.1283 19.7011C87.5918 19.9724 87.962 20.3399 88.239 20.8034C88.516 21.2613 88.6545 21.7728 88.6545 22.3381C88.6545 22.9034 88.516 23.4178 88.239 23.8813C87.962 24.3392 87.5918 24.7066 87.1283 24.9836C86.6704 25.255 86.1616 25.3906 85.602 25.3906ZM85.602 24.0594C85.9129 24.0594 86.1984 23.9803 86.4584 23.822C86.7241 23.6637 86.9332 23.4545 87.0859 23.1945C87.2441 22.9345 87.3233 22.649 87.3233 22.3381C87.3233 22.0272 87.2441 21.7418 87.0859 21.4817C86.9332 21.216 86.7241 21.0069 86.4584 20.8543C86.1984 20.696 85.9129 20.6169 85.602 20.6169C85.2911 20.6169 85.0056 20.696 84.7456 20.8543C84.4856 21.0069 84.2764 21.216 84.1181 21.4817C83.9599 21.7418 83.8807 22.0272 83.8807 22.3381C83.8807 22.649 83.9599 22.9345 84.1181 23.1945C84.2764 23.4545 84.4856 23.6637 84.7456 23.822C85.0056 23.9803 85.2911 24.0594 85.602 24.0594Z" fill="black"/>
<path d="M63.831 14.6295C63.5103 14.6295 63.2344 14.5786 63.0031 14.4769C62.7749 14.3751 62.5853 14.2395 62.4342 14.0699C62.2831 13.9003 62.1644 13.7122 62.0781 13.5056C61.9918 13.299 61.9301 13.0878 61.8931 12.872C61.8592 12.6562 61.8422 12.4542 61.8422 12.2661V9.505H62.6747V12.0071C62.6747 12.2415 62.6963 12.4681 62.7395 12.687C62.7826 12.9059 62.8551 13.1032 62.9569 13.279C63.0617 13.4547 63.2004 13.5935 63.3731 13.6952C63.5489 13.797 63.7678 13.8479 64.0299 13.8479C64.2364 13.8479 64.4245 13.8124 64.5941 13.7415C64.7637 13.6706 64.9086 13.5657 65.0289 13.427C65.1491 13.2852 65.2416 13.1063 65.3064 12.8905C65.3711 12.6747 65.4035 12.4234 65.4035 12.1366L65.9446 12.3031C65.9446 12.7841 65.8567 13.1988 65.681 13.5472C65.5083 13.8957 65.2632 14.1639 64.9456 14.352C64.6311 14.537 64.2596 14.6295 63.831 14.6295ZM65.496 14.5V13.1634H65.4035V9.505H66.2314V14.5H65.496ZM69.8203 14.6388C69.3516 14.6388 68.957 14.5231 68.6363 14.2919C68.3156 14.0575 68.072 13.7415 67.9055 13.3438C67.7421 12.9429 67.6604 12.4943 67.6604 11.9979C67.6604 11.4953 67.7421 11.0451 67.9055 10.6474C68.072 10.2496 68.3156 9.93667 68.6363 9.7085C68.96 9.48033 69.3562 9.36625 69.8249 9.36625C70.2874 9.36625 70.6852 9.48187 71.0182 9.71312C71.3542 9.94129 71.6117 10.2542 71.7905 10.652C71.9694 11.0497 72.0588 11.4984 72.0588 11.9979C72.0588 12.4974 71.9694 12.946 71.7905 13.3438C71.6117 13.7415 71.3542 14.0575 71.0182 14.2919C70.6852 14.5231 70.2859 14.6388 69.8203 14.6388ZM67.5217 16.72V9.505H68.257V13.1819H68.3495V16.72H67.5217ZM69.7185 13.8849C70.0485 13.8849 70.3213 13.8016 70.5372 13.6351C70.753 13.4686 70.9149 13.2435 71.0228 12.9599C71.1307 12.6731 71.1847 12.3525 71.1847 11.9979C71.1847 11.6464 71.1307 11.3288 71.0228 11.0451C70.918 10.7615 70.7545 10.5364 70.5325 10.3699C70.3136 10.2034 70.0346 10.1201 69.6954 10.1201C69.3717 10.1201 69.1034 10.2003 68.8907 10.3606C68.6779 10.5179 68.5191 10.7383 68.4143 11.022C68.3095 11.3026 68.257 11.6279 68.257 11.9979C68.257 12.3617 68.3079 12.687 68.4097 12.9737C68.5145 13.2574 68.6748 13.481 68.8907 13.6444C69.1065 13.8047 69.3825 13.8849 69.7185 13.8849ZM77.7134 14.5C77.4174 14.5586 77.1244 14.5817 76.8346 14.5694C76.5479 14.5601 76.2919 14.5031 76.0669 14.3982C75.8418 14.2903 75.6706 14.1238 75.5535 13.8987C75.4548 13.7014 75.4009 13.5025 75.3916 13.3021C75.3854 13.0986 75.3824 12.8689 75.3824 12.613V8.1175H76.2056V12.576C76.2056 12.7795 76.2071 12.9537 76.2102 13.0986C76.2164 13.2435 76.2488 13.3684 76.3074 13.4732C76.4184 13.6706 76.5941 13.7862 76.8346 13.8201C77.0782 13.854 77.3711 13.8448 77.7134 13.7924V14.5ZM74.3695 10.1849V9.505H77.7134V10.1849H74.3695ZM80.6472 14.6388C80.1508 14.6388 79.7222 14.5262 79.3614 14.3011C79.0038 14.076 78.7278 13.7646 78.5336 13.3669C78.3393 12.9691 78.2422 12.5128 78.2422 11.9979C78.2422 11.4737 78.3409 11.0143 78.5382 10.6196C78.7355 10.225 79.0146 9.91817 79.3753 9.69925C79.7361 9.47725 80.16 9.36625 80.6472 9.36625C81.1467 9.36625 81.5768 9.47879 81.9376 9.70387C82.2983 9.92587 82.5743 10.2357 82.7654 10.6335C82.9597 11.0282 83.0568 11.483 83.0568 11.9979C83.0568 12.519 82.9597 12.9784 82.7654 13.3761C82.5712 13.7708 82.2937 14.0807 81.9329 14.3057C81.5722 14.5277 81.1436 14.6388 80.6472 14.6388ZM80.6472 13.8571C81.1652 13.8571 81.5506 13.6845 81.8034 13.3391C82.0563 12.9938 82.1827 12.5467 82.1827 11.9979C82.1827 11.4336 82.0547 10.985 81.7988 10.652C81.5429 10.3159 81.159 10.1479 80.6472 10.1479C80.2988 10.1479 80.012 10.2265 79.7869 10.3837C79.5619 10.541 79.3938 10.7584 79.2828 11.0359C79.1718 11.3134 79.1163 11.634 79.1163 11.9979C79.1163 12.559 79.2458 13.0092 79.5048 13.3484C79.7638 13.6875 80.1446 13.8571 80.6472 13.8571Z" fill="black"/>
<path d="M86.8362 42.8477C86.3397 42.8477 85.9112 42.7352 85.5504 42.5101C85.1927 42.285 84.9168 41.9736 84.7225 41.5759C84.5283 41.1781 84.4312 40.7218 84.4312 40.2069C84.4312 39.6827 84.5298 39.2233 84.7272 38.8286C84.9245 38.4339 85.2035 38.1272 85.5643 37.9082C85.925 37.6862 86.349 37.5752 86.8362 37.5752C87.3357 37.5752 87.7658 37.6878 88.1265 37.9129C88.4873 38.1349 88.7632 38.4447 88.9544 38.8425C89.1487 39.2372 89.2458 39.6919 89.2458 40.2069C89.2458 40.7279 89.1487 41.1874 88.9544 41.5851C88.7602 41.9798 88.4827 42.2897 88.1219 42.5147C87.7612 42.7367 87.3326 42.8477 86.8362 42.8477ZM86.8362 42.0661C87.3542 42.0661 87.7396 41.8934 87.9924 41.5481C88.2452 41.2028 88.3717 40.7557 88.3717 40.2069C88.3717 39.6426 88.2437 39.194 87.9878 38.861C87.7319 38.5249 87.348 38.3569 86.8362 38.3569C86.4877 38.3569 86.201 38.4355 85.9759 38.5927C85.7508 38.75 85.5828 38.9674 85.4718 39.2449C85.3608 39.5224 85.3053 39.843 85.3053 40.2069C85.3053 40.768 85.4348 41.2182 85.6938 41.5574C85.9528 41.8965 86.3336 42.0661 86.8362 42.0661ZM90.7405 42.709V37.4411C90.7405 37.3116 90.7466 37.1806 90.759 37.048C90.7713 36.9123 90.799 36.7813 90.8422 36.6549C90.8854 36.5254 90.9563 36.4067 91.055 36.2987C91.169 36.1723 91.2939 36.0829 91.4296 36.0305C91.5652 35.975 91.7025 35.9411 91.8412 35.9287C91.983 35.9164 92.1172 35.9102 92.2436 35.9102H92.8772V36.5947H92.2898C92.0462 36.5947 91.8643 36.6549 91.7441 36.7751C91.6238 36.8923 91.5637 37.0711 91.5637 37.3116V42.709H90.7405ZM89.8941 38.3939V37.714H92.8772V38.3939H89.8941ZM93.6773 42.709V37.4411C93.6773 37.3116 93.6835 37.1806 93.6958 37.048C93.7082 36.9123 93.7359 36.7813 93.7791 36.6549C93.8222 36.5254 93.8932 36.4067 93.9918 36.2987C94.1059 36.1723 94.2308 36.0829 94.3665 36.0305C94.5021 35.975 94.6393 35.9411 94.7781 35.9287C94.9199 35.9164 95.054 35.9102 95.1805 35.9102H95.8141V36.5947H95.2267C94.9831 36.5947 94.8012 36.6549 94.681 36.7751C94.5607 36.8923 94.5006 37.0711 94.5006 37.3116V42.709H93.6773ZM92.831 38.3939V37.714H95.8141V38.3939H92.831Z" fill="black"/>
<path d="M20.645 22.2723C19.8999 22.2723 19.2138 22.1438 18.5869 21.8868C17.9599 21.6248 17.4152 21.2445 16.9527 20.746C16.4902 20.2475 16.1305 19.6412 15.8736 18.9268C15.6166 18.2125 15.4881 17.4006 15.4881 16.491C15.4881 15.2937 15.7065 14.2659 16.1433 13.4077C16.5801 12.5443 17.1865 11.8814 17.9625 11.4189C18.7385 10.9513 19.6326 10.7175 20.645 10.7175C21.9503 10.7175 22.9909 11.0207 23.7669 11.6271C24.548 12.2334 25.0799 13.0711 25.3625 14.14L23.7283 14.4329C23.5022 13.77 23.1374 13.2407 22.6338 12.845C22.1301 12.4493 21.4981 12.2489 20.7375 12.2437C19.9513 12.2386 19.2961 12.4133 18.7719 12.7679C18.2529 13.1225 17.8623 13.6209 17.6002 14.2633C17.3381 14.9005 17.2045 15.6431 17.1994 16.491C17.1942 17.3389 17.3227 18.0815 17.5848 18.7187C17.8469 19.3508 18.24 19.8441 18.7642 20.1987C19.2935 20.5533 19.9513 20.7332 20.7375 20.7383C21.3696 20.7486 21.9117 20.633 22.364 20.3914C22.8213 20.1448 23.1836 19.785 23.4508 19.3123C23.7181 18.8395 23.8902 18.2588 23.9673 17.5702H21.809V16.2752H25.6786C25.6888 16.3677 25.6965 16.491 25.7017 16.6452C25.7068 16.7942 25.7094 16.8893 25.7094 16.9304C25.7094 17.9582 25.5115 18.8755 25.1158 19.6823C24.7201 20.4891 24.1446 21.1237 23.3892 21.5862C22.6338 22.0436 21.719 22.2723 20.645 22.2723ZM27.3999 22.041V10.941H29.011V22.041H27.3999ZM36.1126 9.70768H34.8485L35.9507 7.00977H37.2149L36.1126 9.70768ZM30.5549 22.041L34.1624 10.941H36.4826L40.0901 22.041H38.4174L35.0951 11.9123H35.5114L32.2276 22.041H30.5549ZM32.428 19.5358V18.025H38.2247V19.5358H32.428ZM6.10806 39.041V27.941H10.471C11.175 27.941 11.766 28.0849 12.2439 28.3727C12.7218 28.6605 13.0815 29.033 13.3231 29.4904C13.5646 29.9426 13.6853 30.4205 13.6853 30.9241C13.6853 31.5357 13.5338 32.0598 13.2306 32.4966C12.9325 32.9334 12.5291 33.2315 12.0203 33.3908L12.0049 33.0131C12.7141 33.1878 13.2588 33.5296 13.6391 34.0383C14.0194 34.5419 14.2095 35.1303 14.2095 35.8035C14.2095 36.4562 14.0785 37.024 13.8164 37.5071C13.5594 37.9901 13.1817 38.3678 12.6833 38.6402C12.1899 38.9074 11.5913 39.041 10.8872 39.041H6.10806ZM7.74222 37.5071H10.6406C11.0054 37.5071 11.3317 37.4377 11.6195 37.2989C11.9124 37.1602 12.1411 36.9623 12.3056 36.7054C12.4751 36.4433 12.5599 36.1324 12.5599 35.7727C12.5599 35.4387 12.4854 35.138 12.3364 34.8708C12.1925 34.5984 11.9818 34.3852 11.7043 34.231C11.4319 34.0717 11.1108 33.9921 10.7408 33.9921H7.74222V37.5071ZM7.74222 32.4735H10.4478C10.7459 32.4735 11.0131 32.4144 11.2495 32.2962C11.491 32.1729 11.6812 31.9982 11.8199 31.7721C11.9638 31.5408 12.0358 31.2633 12.0358 30.9396C12.0358 30.5079 11.8919 30.1533 11.6041 29.8758C11.3163 29.5983 10.9309 29.4596 10.4478 29.4596H7.74222V32.4735ZM17.3622 26.7077H16.0981L17.2003 24.0098H18.4645L17.3622 26.7077ZM15.8976 39.041V27.941H17.5087V39.041H15.8976ZM22.9098 39.041V27.941H24.3667L28.3904 36.2891L32.3911 27.941H33.8634V39.0333H32.3371V31.4406L28.7527 39.041H28.0204L24.4284 31.4406V39.041H22.9098ZM39.168 42.0241V40.4593H40.8716V42.0241H39.168ZM37.318 26.7077L39.3145 24.3952H40.702L42.6907 26.7077H41.1491L40.0082 25.3433L38.8597 26.7077H37.318ZM35.2522 39.041L38.8597 27.941H41.1799L44.7874 39.041H43.1147L39.7924 28.9123H40.2086L36.9249 39.041H35.2522ZM37.1253 36.5358V35.025H42.922V36.5358H37.1253ZM48.0192 39.041V29.4596H44.3269V27.941H53.3226V29.4596H49.6303V39.041H48.0192Z" fill="black"/>
<line x1="57.9286" y1="6.65417" x2="57.9286" y2="43.3458" stroke="#0A0A0A" stroke-width="0.308333" stroke-linecap="round"/>
<defs>
<linearGradient id="paint0_linear_1919_3960" x1="21.6694" y1="9.63957" x2="45.7491" y2="63.8116" gradientUnits="userSpaceOnUse">
<stop stop-color="#BDA25F"/>
<stop offset="0.07" stop-color="#C3AB65"/>
<stop offset="0.33" stop-color="#D9CA79"/>
<stop offset="0.52" stop-color="#E1D285"/>
<stop offset="0.73" stop-color="#D9CA79"/>
<stop offset="1" stop-color="#BDA25F"/>
</linearGradient>
</defs>
</svg>
