<svg width="95" height="26" viewBox="0 0 95 26" fill="none" xmlns="http://www.w3.org/2000/svg">
<path d="M12.7046 10.3298C12.0545 9.94013 11.3248 9.62984 10.5335 9.4082C9.79982 9.20134 9.05623 9.02586 8.33849 8.88364C7.5452 8.71556 6.78372 8.52906 6.07791 8.32774C5.49537 8.16151 5.02814 7.91953 4.68816 7.61109C4.42373 7.37098 4.2945 6.9979 4.2945 6.47151C4.2945 6.0504 4.42174 5.68839 4.68418 5.35962C4.97645 4.99577 5.35422 4.71685 5.84332 4.50815C6.35031 4.2902 6.88712 4.18492 7.48557 4.18492C8.41207 4.18492 9.21927 4.37147 9.88333 4.73902C10.5355 5.10103 11.0146 5.61264 11.3486 6.30526L11.7562 7.14749L14.8797 5.61449L14.5456 4.88124C13.9432 3.56249 12.9829 2.54483 11.6946 1.86145C10.444 1.19838 9.04629 0.860352 7.54321 0.860352C6.31848 0.860352 5.17328 1.10048 4.14141 1.57516C3.0976 2.05537 2.24667 2.72398 1.61641 3.56251C0.964277 4.42875 0.634224 5.42428 0.634224 6.52139C0.634224 7.54461 0.856895 8.41269 1.29827 9.09977C1.72773 9.77392 2.31424 10.328 3.03795 10.7473C3.70399 11.1351 4.43963 11.4436 5.22696 11.6634C5.95861 11.8702 6.70419 12.0476 7.44181 12.1916C8.23113 12.3412 8.98266 12.5148 9.67655 12.7069C10.2432 12.8639 10.6965 13.0985 11.0226 13.4014C11.279 13.6397 11.4083 14.0349 11.4083 14.5742C11.4083 15.1006 11.2711 15.5291 10.9888 15.8819C10.6866 16.2605 10.2849 16.5412 9.75608 16.7426C9.18944 16.9587 8.52936 17.0676 7.79572 17.0676C6.76782 17.0676 5.87113 16.8682 5.12755 16.4766C4.40782 16.098 3.89884 15.579 3.56682 14.8937L3.16918 14.07L0 15.542L0.341964 16.2919C0.946377 17.6162 1.95042 18.6468 3.32824 19.3561C4.65835 20.0432 6.16142 20.3904 7.79373 20.3904C9.12383 20.3904 10.3426 20.1521 11.4162 19.683C12.5137 19.2028 13.4024 18.5249 14.0546 17.6661C14.7266 16.7814 15.0665 15.7415 15.0665 14.5724C15.0665 13.5528 14.8439 12.6829 14.4065 11.9847C13.979 11.3087 13.4064 10.751 12.7046 10.3298Z" fill="white"/>
<path d="M29.9302 6.44965C28.8586 5.83646 27.5762 5.52616 26.1169 5.52616C24.9697 5.52616 23.8961 5.74781 22.9298 6.1874C22.5699 6.35178 22.23 6.53833 21.9158 6.74704V0H18.3112V20.1857H21.9158V12.9603C21.9158 12.1328 22.0928 11.3941 22.4427 10.7661C22.7886 10.1455 23.2539 9.6708 23.8623 9.31803C24.4647 8.96895 25.1288 8.79901 25.8922 8.79901C26.7312 8.79901 27.4013 8.96895 27.9361 9.31803C28.4908 9.68003 28.8964 10.1455 29.1747 10.7402C29.467 11.3663 29.6161 12.0682 29.6161 12.831V20.1875H33.2207V12.6999C33.2207 11.3054 32.9444 10.0661 32.3996 9.01329C31.8369 7.92911 31.0059 7.06655 29.9302 6.44965Z" fill="white"/>
<path d="M47.6353 6.53481C46.4265 5.86621 45.0387 5.52637 43.5098 5.52637C42.0206 5.52637 40.6448 5.86435 39.4181 6.53112C38.2013 7.19418 37.2211 8.09366 36.5073 9.20739C35.7876 10.3285 35.4218 11.5919 35.4218 12.9623C35.4218 14.3309 35.7856 15.598 36.5054 16.7265C37.2171 17.8458 38.1914 18.7545 39.3962 19.4268C40.613 20.1046 41.9967 20.45 43.5098 20.45C45.0208 20.45 46.4046 20.1065 47.6233 19.4268C48.8302 18.7545 49.7984 17.8439 50.5023 16.7228C51.2101 15.5943 51.5679 14.3291 51.5679 12.9642C51.5679 11.6159 51.2081 10.3599 50.5023 9.23143C49.7984 8.10477 48.8342 7.19973 47.6353 6.53481ZM47.3748 15.0808C46.9732 15.7254 46.4443 16.226 45.7604 16.6138C45.0904 16.9943 44.3548 17.1772 43.5098 17.1772C42.6648 17.1772 41.9292 16.9924 41.2591 16.612C40.5712 16.2241 40.0384 15.7199 39.6268 15.0734C39.2232 14.4399 39.0264 13.7566 39.0264 12.9864C39.0264 12.2162 39.2232 11.5346 39.6268 10.8993C40.0384 10.2528 40.5712 9.75042 41.2591 9.36071C41.9311 8.98023 42.6668 8.79737 43.5098 8.79737C44.3528 8.79737 45.0884 8.98208 45.7604 9.36071C46.4463 9.74857 46.9732 10.2491 47.3748 10.8919C47.7705 11.5291 47.9633 12.2125 47.9633 12.9864C47.9653 13.7602 47.7705 14.4454 47.3748 15.0808Z" fill="white"/>
<path d="M65.9843 6.53481C64.7755 5.86621 63.3877 5.52637 61.8588 5.52637C60.3716 5.52637 58.9978 5.85884 57.773 6.51637C56.5523 7.17205 55.5721 8.06782 54.8583 9.18156C54.1386 10.3045 53.7728 11.5752 53.7728 12.9623V26.0002H57.3774V19.0481C57.6299 19.2273 57.8943 19.3936 58.1727 19.545C59.296 20.16 60.5565 20.474 61.9164 20.474C63.4275 20.474 64.8073 20.1342 66.0141 19.4656C67.217 18.8006 68.1773 17.8864 68.8731 16.7523C69.567 15.6164 69.9209 14.342 69.9209 12.9623C69.9209 11.614 69.5631 10.3581 68.8553 9.22773C68.1475 8.10476 67.1812 7.19788 65.9843 6.53481ZM65.7219 15.0975C65.3202 15.7476 64.7934 16.2518 64.1094 16.6397C63.4394 17.0183 62.7038 17.203 61.8588 17.203C61.0158 17.203 60.2782 17.0183 59.6082 16.6397C58.9222 16.2518 58.3894 15.7457 57.9778 15.0919C57.5722 14.4492 57.3754 13.7603 57.3754 12.9882C57.3754 12.218 57.5722 11.5346 57.9758 10.9011C58.3874 10.2547 58.9202 9.75227 59.6082 9.36256C60.2802 8.98208 61.0158 8.79922 61.8588 8.79922C62.7018 8.79922 63.4374 8.98393 64.1094 9.36256C64.7954 9.75042 65.3222 10.251 65.7239 10.8937C66.1215 11.5309 66.3143 12.2162 66.3143 12.9882C66.3143 13.7621 66.1195 14.451 65.7219 15.0975Z" fill="white"/>
<path d="M83.6633 6.94109C83.4069 6.76008 83.1345 6.59197 82.8502 6.43867C81.7288 5.83286 80.4703 5.52627 79.1124 5.52627C77.6232 5.52627 76.2553 5.86059 75.0485 6.51997C73.8456 7.17749 72.8833 8.08063 72.1875 9.20729C71.4916 10.3358 71.1377 11.6158 71.1377 13.0139C71.1377 14.3622 71.4976 15.62 72.2034 16.7467C72.9072 17.8697 73.8755 18.7784 75.0823 19.4507C76.2991 20.1285 77.6828 20.4739 79.1959 20.4739C80.7029 20.4739 82.0847 20.1396 83.2995 19.4839C84.5083 18.8301 85.4845 17.9269 86.2003 16.804C86.92 15.6736 87.2839 14.3992 87.2839 13.0139V0.00195312H83.6813L83.6633 6.94109ZM83.0907 15.1066C82.6891 15.7493 82.1583 16.2499 81.4664 16.6359C80.7844 17.0164 80.0428 17.2029 79.1979 17.2029C78.3549 17.2029 77.6173 17.0182 76.9472 16.6378C76.2633 16.2499 75.7344 15.7493 75.3328 15.1066C74.9352 14.4694 74.7423 13.786 74.7423 13.0121C74.7423 12.2382 74.9371 11.5475 75.3348 10.9029C75.7364 10.2527 76.2633 9.74848 76.9472 9.36061C77.6192 8.98013 78.3549 8.79727 79.1979 8.79727C80.0428 8.79727 80.7844 8.98198 81.4664 9.36431C82.1563 9.75033 82.6871 10.2546 83.0887 10.9029C83.4864 11.5493 83.6813 12.2401 83.6813 13.0139C83.6793 13.786 83.4864 14.4712 83.0907 15.1066Z" fill="white"/>
<path d="M94.6363 5.8125H91.0317V20.1876H94.6363V5.8125Z" fill="white"/>
<path d="M94.7097 1.38903C94.5209 1.08428 94.2703 0.836789 93.9622 0.655784C93.3299 0.286388 92.4452 0.262359 91.7393 0.637297C91.3974 0.818301 91.125 1.07135 90.9302 1.38903C90.7373 1.70302 90.6399 2.05393 90.6399 2.43256C90.6399 2.80934 90.7373 3.1603 90.9302 3.47428C91.125 3.79197 91.3994 4.04497 91.7393 4.22597C92.0773 4.40513 92.4452 4.49748 92.8329 4.49748C93.2544 4.49748 93.6321 4.39962 93.9642 4.20753C94.2703 4.02653 94.5209 3.78089 94.7097 3.47613C94.9026 3.16215 95 2.81119 95 2.43441C95 2.05393 94.9026 1.70302 94.7097 1.38903Z" fill="white"/>
</svg>
