<svg width="124" height="31" viewBox="0 0 124 31" fill="none" xmlns="http://www.w3.org/2000/svg">
<g clip-path="url(#clip0_4523_605)">
<path d="M66.4908 7.17045C65.0639 6.32008 63.4209 5.8877 61.6193 5.8877C59.8176 5.8877 58.2322 6.32008 56.7837 7.16324C55.3424 8.0064 54.1894 9.15223 53.3462 10.5647C52.4959 11.9916 52.0635 13.5986 52.0635 15.3426C52.0635 17.0865 52.4959 18.6936 53.3462 20.1277C54.1894 21.5546 55.3352 22.7076 56.7621 23.558C58.1962 24.4227 59.8393 24.8623 61.6193 24.8623C63.3993 24.8623 65.0423 24.4227 66.4764 23.558C67.9033 22.7004 69.0491 21.5474 69.8779 20.1205C70.7138 18.6864 71.139 17.0793 71.139 15.3354C71.139 13.5914 70.7138 12.0204 69.8779 10.5863C69.0491 9.15943 67.9033 8.0064 66.4908 7.16324V7.17045ZM66.181 18.045C65.7053 18.8665 65.0856 19.5007 64.2712 19.9908C63.4785 20.4736 62.6065 20.7114 61.612 20.7114C60.6176 20.7114 59.7456 20.4736 58.9529 19.9908C58.1385 19.4935 57.5116 18.8593 57.0215 18.0378C56.5459 17.2307 56.3081 16.3659 56.3081 15.3858C56.3081 14.4057 56.5387 13.541 57.0215 12.7338C57.5044 11.9123 58.1385 11.2709 58.9529 10.7809C59.7456 10.2981 60.6176 10.0602 61.612 10.0602C62.6065 10.0602 63.4785 10.2981 64.2712 10.7809C65.0784 11.2709 65.7053 11.9123 66.181 12.7266C66.6494 13.5338 66.88 14.4057 66.88 15.3858C66.88 16.3659 66.6494 17.2379 66.181 18.045Z" fill="#222631"/>
<path d="M88.5787 7.17045C87.1518 6.32008 85.5088 5.8877 83.7071 5.8877C81.9055 5.8877 80.3273 6.31288 78.8788 7.14883C77.4375 7.98478 76.2773 9.1234 75.4341 10.5359C74.5838 11.9627 74.1514 13.5842 74.1514 15.3426V30.6347H78.4104V23.0823C78.7059 23.3129 79.0229 23.5219 79.3472 23.7165C80.6732 24.502 82.165 24.8984 83.772 24.8984C85.5592 24.8984 87.1879 24.466 88.6147 23.6156C90.0344 22.7724 91.173 21.605 91.9946 20.1637C92.8161 18.7224 93.2341 17.101 93.2341 15.3426C93.2341 13.5842 92.8089 12.0276 91.973 10.5935C91.1442 9.16664 89.9984 8.0136 88.5859 7.17045H88.5787ZM88.2688 18.0594C87.7932 18.8882 87.1735 19.5295 86.3663 20.0196C85.5736 20.5024 84.7016 20.7402 83.7071 20.7402C82.7127 20.7402 81.8407 20.5024 81.048 20.0196C80.2336 19.5295 79.6067 18.881 79.1238 18.0522C78.6482 17.2379 78.4104 16.3587 78.4104 15.3786C78.4104 14.3985 78.641 13.5266 79.1166 12.7266C79.5995 11.9051 80.2336 11.2637 81.048 10.7737C81.8407 10.2908 82.7127 10.053 83.7071 10.053C84.7016 10.053 85.5736 10.2908 86.3663 10.7737C87.1735 11.2637 87.8004 11.9051 88.276 12.7194C88.7445 13.5266 88.9751 14.3985 88.9751 15.3786C88.9751 16.3587 88.7445 17.2451 88.276 18.0594H88.2688Z" fill="#222631"/>
<path d="M123.032 6.58691H118.773V24.8697H123.032V6.58691Z" fill="#222631"/>
<path d="M123.119 1.7078C122.895 1.31865 122.6 1.00877 122.232 0.778166C121.483 0.309746 120.438 0.28092 119.609 0.756546C119.205 0.987153 118.881 1.31144 118.651 1.71501C118.42 2.11136 118.305 2.55816 118.305 3.041C118.305 3.52383 118.42 3.97063 118.651 4.36699C118.881 4.77055 119.205 5.09484 119.609 5.32545C120.005 5.55605 120.445 5.67136 120.899 5.67136C121.396 5.67136 121.843 5.54885 122.232 5.30383C122.593 5.07322 122.888 4.76334 123.111 4.37419C123.342 3.97784 123.457 3.53104 123.457 3.0482C123.457 2.56537 123.342 2.11857 123.111 1.72221L123.119 1.7078Z" fill="#222631"/>
<path d="M111.048 0.40332L111.026 7.65303C110.724 7.42242 110.407 7.20623 110.068 7.01165C108.742 6.24056 107.257 5.85141 105.65 5.85141C103.892 5.85141 102.278 6.27659 100.851 7.11254C99.4311 7.94849 98.2925 9.09432 97.471 10.5284C96.6494 11.9625 96.2314 13.5912 96.2314 15.3712C96.2314 17.1512 96.6566 18.6861 97.4926 20.1202C98.3213 21.5471 99.4672 22.7073 100.894 23.5577C102.328 24.4225 103.971 24.8621 105.751 24.8621C107.531 24.8621 109.167 24.4369 110.601 23.6009C112.028 22.765 113.181 21.6192 114.031 20.1923C114.882 18.7582 115.314 17.1295 115.314 15.3712V0.40332H111.055H111.048ZM110.349 18.0375C109.873 18.8519 109.246 19.4933 108.432 19.9833C107.625 20.4661 106.753 20.7039 105.751 20.7039C104.749 20.7039 103.885 20.4661 103.092 19.9833C102.285 19.4933 101.658 18.8519 101.182 18.0375C100.714 17.2304 100.483 16.3584 100.483 15.3784C100.483 14.3983 100.714 13.5119 101.182 12.6976C101.658 11.8688 102.278 11.2274 103.085 10.7374C103.878 10.2546 104.749 10.0167 105.744 10.0167C106.738 10.0167 107.618 10.2546 108.425 10.7374C109.239 11.2274 109.866 11.8688 110.342 12.6976C110.81 13.5191 111.041 14.3983 111.041 15.3856C111.041 16.3729 110.81 17.2376 110.342 18.0448L110.349 18.0375Z" fill="#222631"/>
<path d="M44.5252 7.3935C43.2569 6.6152 41.7435 6.21884 40.0212 6.21884C38.6663 6.21884 37.398 6.4999 36.2522 7.062C35.827 7.27099 35.4234 7.5088 35.0559 7.77544V0.158203H30.7969V24.8692H35.0559V15.6809C35.0559 14.6288 35.2649 13.6847 35.6757 12.8848C36.0864 12.0921 36.6341 11.494 37.3548 11.04C38.0682 10.5932 38.8537 10.377 39.7545 10.377C40.749 10.377 41.5345 10.5932 42.1687 11.04C42.8245 11.5012 43.3001 12.0921 43.6316 12.8488C43.9775 13.6415 44.1505 14.5351 44.1505 15.508V24.862H48.4095V15.335C48.4095 13.5622 48.0852 11.984 47.4366 10.6436C46.7736 9.25997 45.7935 8.16459 44.518 7.37908L44.5252 7.3935Z" fill="#222631"/>
<path d="M25.2125 7.89108H17.2709C14.8135 7.89108 12.457 6.93983 10.7419 5.25352C10.5978 5.10939 10.3455 5.21028 10.3455 5.40485V14.4994C10.3455 14.975 9.74739 15.2129 9.40148 14.8742L1.83469 7.61724C-1.09114 4.80671 0.984326 0 5.12084 0H15.1811C16.8169 0 18.3879 0.626963 19.5482 1.73676L25.4287 7.38663C25.6232 7.574 25.4863 7.89829 25.2053 7.89829" fill="url(#paint0_linear_4523_605)"/>
<path d="M20.8739 25.0637H10.8065C9.1634 25.0637 7.59239 24.4367 6.43215 23.3269L0.558876 17.6771C0.364301 17.4897 0.501224 17.1654 0.782276 17.1654H8.70219C11.1596 17.1654 13.5089 18.1167 15.2312 19.803C15.3754 19.9471 15.6276 19.8462 15.6276 19.6516L15.642 10.5571C15.642 10.0815 16.2402 9.85085 16.5861 10.1823L23.8646 17.1726L24.1529 17.4537C27.0787 20.2642 25.0032 25.0637 20.8667 25.0637" fill="#222631"/>
</g>
<defs>
<linearGradient id="paint0_linear_4523_605" x1="0.528012" y1="7.61911" x2="25.676" y2="7.61911" gradientUnits="userSpaceOnUse">
<stop stop-color="#FED500"/>
<stop offset="1" stop-color="#FEC20E"/>
</linearGradient>
<clipPath id="clip0_4523_605">
<rect width="123" height="30.6419" fill="white" transform="translate(0.464844)"/>
</clipPath>
</defs>
</svg>
