<svg width="372" height="124" viewBox="0 0 372 124" fill="none" xmlns="http://www.w3.org/2000/svg">
<path d="M99.2 25.7779V46.9652L49.6 22.2467L20.9691 36.3715V52.9682L49.6 66.3868V87.9273L0 63.2088V25.7779L49.6 0L99.2 25.7779Z" fill="white"/>
<path d="M0.000198364 98.2221V77.0348L49.6002 101.753L78.2311 87.6285V71.0318L49.6002 57.6131V36.0727L99.2002 60.7912V98.2221L49.6002 124L0.000198364 98.2221Z" fill="white"/>
<path d="M153.568 83.08C148.663 83.08 144.635 81.9527 141.485 79.6979C138.334 77.4043 136.639 74.1388 136.4 69.9014H148.902C149.022 71.3398 149.461 72.3894 150.218 73.0503C150.976 73.7112 151.953 74.0416 153.149 74.0416C154.226 74.0416 155.104 73.7889 155.782 73.2835C156.499 72.7393 156.858 72.0007 156.858 71.0676C156.858 69.8625 156.28 68.9295 155.124 68.2686C153.967 67.6078 152.093 66.8691 149.5 66.0528C146.749 65.1586 144.515 64.3034 142.801 63.487C141.126 62.6318 139.65 61.4072 138.374 59.8133C137.138 58.1806 136.52 56.0619 136.52 53.4572C136.52 50.8137 137.198 48.559 138.553 46.693C139.909 44.7881 141.784 43.3497 144.176 42.3779C146.569 41.406 149.281 40.92 152.312 40.92C157.217 40.92 161.125 42.0474 164.037 44.3022C166.988 46.518 168.563 49.6475 168.763 53.6905H156.021C155.981 52.4465 155.582 51.5135 154.824 50.8915C154.107 50.2695 153.169 49.9585 152.013 49.9585C151.136 49.9585 150.418 50.2112 149.859 50.7166C149.301 51.2219 149.022 51.9411 149.022 52.8741C149.022 53.6516 149.321 54.3319 149.919 54.9151C150.557 55.4593 151.335 55.9453 152.252 56.3729C153.169 56.7616 154.525 57.267 156.32 57.889C158.992 58.7831 161.185 59.6773 162.9 60.5714C164.655 61.4266 166.15 62.6512 167.387 64.2451C168.663 65.8001 169.301 67.7827 169.301 70.193C169.301 72.6421 168.663 74.8385 167.387 76.7823C166.15 78.726 164.336 80.2616 161.943 81.389C159.59 82.5164 156.799 83.08 153.568 83.08Z" fill="#3D4250"/>
<path d="M214.891 41.5615V82.6719H203.166V66.1694H188.869V82.6719H177.144V41.5615H188.869V57.0143H203.166V41.5615H214.891Z" fill="#3D4250"/>
<path d="M244.212 83.08C240.264 83.08 236.635 82.1859 233.325 80.3977C230.015 78.5705 227.383 76.0631 225.429 72.8753C223.515 69.6487 222.557 66.0139 222.557 61.9709C222.557 57.9279 223.515 54.3125 225.429 51.1247C227.383 47.8981 230.015 45.3907 233.325 43.6024C236.635 41.8142 240.264 40.92 244.212 40.92C248.2 40.92 251.829 41.8142 255.1 43.6024C258.41 45.3907 261.022 47.8981 262.936 51.1247C264.85 54.3125 265.807 57.9279 265.807 61.9709C265.807 66.0139 264.85 69.6487 262.936 72.8753C261.022 76.0631 258.41 78.5705 255.1 80.3977C251.789 82.1859 248.16 83.08 244.212 83.08ZM244.212 72.4672C247.203 72.4672 249.556 71.5147 251.271 69.6098C253.026 67.705 253.903 65.1586 253.903 61.9709C253.903 58.7054 253.026 56.1396 251.271 54.2736C249.556 52.3687 247.203 51.4163 244.212 51.4163C241.181 51.4163 238.809 52.3687 237.094 54.2736C235.379 56.1396 234.521 58.7054 234.521 61.9709C234.521 65.1975 235.379 67.7633 237.094 69.6681C238.809 71.5342 241.181 72.4672 244.212 72.4672Z" fill="#3D4250"/>
<path d="M306.791 55.2649C306.791 57.7529 306.192 60.0271 304.996 62.0875C303.839 64.109 302.065 65.7418 299.672 66.9858C297.319 68.1909 294.428 68.7935 290.998 68.7935H285.196V82.6719H273.471V41.5615H290.998C294.388 41.5615 297.259 42.1446 299.612 43.3109C302.005 44.4771 303.8 46.0904 304.996 48.1508C306.192 50.2112 306.791 52.5826 306.791 55.2649ZM289.861 59.6967C293.172 59.6967 294.827 58.2194 294.827 55.2649C294.827 52.2716 293.172 50.7749 289.861 50.7749H285.196V59.6967H289.861Z" fill="#3D4250"/>
<path d="M330.583 41.5615C335.01 41.5615 338.878 42.4362 342.189 44.1855C345.538 45.896 348.111 48.3063 349.905 51.4163C351.7 54.5263 352.597 58.0834 352.597 62.0875C352.597 66.0528 351.68 69.5904 349.845 72.7004C348.051 75.8104 345.479 78.2595 342.129 80.0478C338.819 81.7972 334.97 82.6719 330.583 82.6719H313.894V41.5615H330.583ZM329.686 72.5838C333.116 72.5838 335.808 71.6702 337.762 69.8431C339.716 68.016 340.693 65.4308 340.693 62.0875C340.693 58.7054 339.716 56.1008 337.762 54.2736C335.808 52.4076 333.116 51.4746 329.686 51.4746H325.618V72.5838H329.686Z" fill="#3D4250"/>
<path d="M372 41.5615V82.6719H360.275V41.5615H372Z" fill="#3D4250"/>
</svg>
