<svg width="30" height="30" viewBox="0 0 30 30" fill="none" xmlns="http://www.w3.org/2000/svg">
<path fill-rule="evenodd" clip-rule="evenodd" d="M2.5 15C2.5 8.1 8.1 2.5 15 2.5C21.9 2.5 27.5 8.1 27.5 15C27.5 15.7211 27.4388 16.4279 27.3214 17.1157C26.6252 16.5884 25.8235 16.193 24.9536 15.9668C24.9843 15.6486 25 15.3261 25 15C25 9.4875 20.5125 5 15 5C9.4875 5 5 9.4875 5 15C5 20.5125 9.4875 25 15 25C15.6523 25 16.2903 24.9372 16.9082 24.8172C17.2153 25.6573 17.6845 26.4192 18.2779 27.0652C17.2331 27.3487 16.1341 27.5 15 27.5C8.1 27.5 2.5 21.9 2.5 15ZM19.662 16.7816C19.2784 15.6276 18.2788 14.6242 16.1125 13.875C13.8875 13.1375 12.8125 12.675 12.8125 11.5C12.8125 10.225 14.2 9.7625 15.075 9.7625C16.7125 9.7625 17.3125 11 17.45 11.4375L19.425 10.6C19.2375 10.05 18.4 8.2125 16.1 7.8125V6.25H13.9125V7.825C10.6625 8.525 10.6375 11.3875 10.6375 11.525C10.6375 14.1798 13.0995 15.0511 14.5427 15.5617C14.642 15.5969 14.7365 15.6303 14.825 15.6625C16.8 16.3625 17.675 17 17.675 18.2C17.675 18.443 17.6362 18.6619 17.5659 18.8579C18.1031 18.0213 18.82 17.311 19.662 16.7816ZM17.2562 19.3927C16.8292 20.2146 16.5664 21.1354 16.511 22.1118C16.3289 22.1564 16.182 22.1836 16.0875 22.2V23.75H13.9V22.1375C12.975 21.9125 10.9125 21.175 10.125 18.4375L12.2 17.6C12.275 17.875 12.925 20.2125 15.2 20.2125C15.9561 20.2125 16.7756 19.9587 17.2562 19.3927Z" fill="#FF871C"/>
<path fill-rule="evenodd" clip-rule="evenodd" d="M23.25 27.75C26.1449 27.75 28.5 25.3948 28.5 22.5C28.5 19.6053 26.1449 17.25 23.25 17.25C20.3552 17.25 18 19.6053 18 22.5C18 25.3948 20.3552 27.75 23.25 27.75ZM26.2179 21.2189L22.8602 24.5765C22.7547 24.682 22.6117 24.7414 22.4625 24.7414C22.3133 24.7414 22.1702 24.682 22.0648 24.5765L20.2821 22.7939C20.0626 22.5743 20.0625 22.218 20.2822 21.9985C20.5019 21.7789 20.8579 21.7789 21.0776 21.9985L22.4625 23.3833L25.4224 20.4235C25.642 20.2039 25.9981 20.204 26.2178 20.4235C26.4374 20.643 26.4374 20.9993 26.2179 21.2189Z" fill="#3CCE76"/>
</svg>
