<svg width="30" height="30" viewBox="0 0 30 30" fill="none" xmlns="http://www.w3.org/2000/svg">
<path fill-rule="evenodd" clip-rule="evenodd" d="M15 27C21.6169 27 27 21.6166 27 15C27 8.38353 21.6169 3 15 3C8.38322 3 3 8.38353 3 15C3 21.6166 8.38322 27 15 27ZM21.7838 12.0717L14.1091 19.7463C13.868 19.9874 13.5409 20.1231 13.2 20.1231C12.859 20.1231 12.5319 19.9874 12.2909 19.7463L8.2162 15.6717C7.71441 15.1699 7.71427 14.3553 8.21634 13.8536C8.71852 13.3519 9.53241 13.3517 10.0344 13.8537L13.2 17.0189L19.9654 10.2538C20.4675 9.7518 21.2815 9.7519 21.7836 10.2537C22.2855 10.7554 22.2856 11.5698 21.7838 12.0717Z" fill="#3CCE76"/>
</svg>
