<svg width="156" height="150" viewBox="0 0 156 150" fill="none" xmlns="http://www.w3.org/2000/svg">
<path d="M28.0202 7.76072C29.187 0.732836 39.8308 -2.43872 39.6227 2.14742L88.4181 2.43745C91.7981 2.45735 94.5386 5.54828 94.5407 9.34493L94.6416 139.817C94.6447 143.75 91.8568 146.966 88.4119 146.996L38.6001 147.431C38.2911 148.09 37.7123 148.691 36.8009 149.193C31.0882 149.316 28.3487 146.448 27.3477 143.206C27.0212 142.336 26.8441 141.373 26.8523 140.36C27.0511 138.662 27.6587 9.4088 28.0202 7.76072Z" fill="#408BFF"/>
<path d="M37.3336 149.215L94.51 148.84C98.0775 148.817 100.964 145.513 100.957 141.466L100.743 7.28745C100.737 3.38505 97.8962 0.215586 94.3978 0.204069L38.3315 0.0187386C34.8052 0.00722092 31.9206 3.17249 31.8917 7.09269L30.8752 141.893C30.8443 145.958 33.7362 149.238 37.3336 149.215Z" fill="white"/>
<path d="M36.5433 148.239C36.7812 148.271 37.0242 148.287 37.2652 148.285L94.4242 147.845C97.4901 147.821 99.9958 144.926 99.9907 141.394L99.7929 7.36179C99.7878 3.95465 97.3212 1.1747 94.314 1.16109L38.2539 0.912933C38.1664 0.912933 38.0778 0.91398 37.9902 0.918169C36.5793 0.985181 35.2611 1.63855 34.2755 2.75576C33.2683 3.89916 32.708 5.41321 32.6957 7.02255L31.6926 141.959C31.6699 145.158 33.7472 147.858 36.5433 148.239Z" fill="black"/>
<path d="M34.6617 7.70209L33.6978 142.169L98.0906 141.777L97.9258 7.70209H34.6617Z" fill="#005CEA"/>
<path d="M56.8626 76.5035H72.7782C74.1253 76.5035 75.2262 75.3832 75.2262 74.0147C75.2262 72.6451 74.1242 71.5258 72.7782 71.5258H56.8626C55.5155 71.5258 54.4146 72.6461 54.4146 74.0147C54.4135 75.3832 55.5155 76.5035 56.8626 76.5035Z" fill="#FF9F34"/>
<path d="M44.7556 58.0229H85.9082C87.2553 58.0229 88.3562 56.9025 88.3562 55.534C88.3562 54.1644 87.2543 53.0451 85.9082 53.0451H44.7556C43.4086 53.0451 42.3076 54.1655 42.3076 55.534C42.3066 56.9036 43.4086 58.0229 44.7556 58.0229Z" fill="white"/>
<path d="M44.7556 66.0413H85.9082C87.2553 66.0413 88.3562 64.9209 88.3562 63.5524C88.3562 62.1828 87.2543 61.0635 85.9082 61.0635H44.7556C43.4086 61.0635 42.3076 62.1839 42.3076 63.5524C42.3066 64.9209 43.4086 66.0413 44.7556 66.0413Z" fill="white"/>
<path d="M79.0852 64.6487C79.5612 64.6487 79.9472 64.2563 79.9472 63.7723C79.9472 63.2883 79.5612 62.8959 79.0852 62.8959C78.6091 62.8959 78.2231 63.2883 78.2231 63.7723C78.2231 64.2563 78.6091 64.6487 79.0852 64.6487Z" fill="#80B2FF"/>
<path d="M76.1296 64.6487C76.6056 64.6487 76.9916 64.2563 76.9916 63.7723C76.9916 63.2883 76.6056 62.8959 76.1296 62.8959C75.6535 62.8959 75.2676 63.2883 75.2676 63.7723C75.2676 64.2563 75.6535 64.6487 76.1296 64.6487Z" fill="#80B2FF"/>
<path d="M73.175 64.6487C73.6511 64.6487 74.037 64.2563 74.037 63.7723C74.037 63.2883 73.6511 62.8959 73.175 62.8959C72.6989 62.8959 72.313 63.2883 72.313 63.7723C72.313 64.2563 72.6989 64.6487 73.175 64.6487Z" fill="#80B2FF"/>
<path d="M70.2194 64.6487C70.6955 64.6487 71.0814 64.2563 71.0814 63.7723C71.0814 63.2883 70.6955 62.8959 70.2194 62.8959C69.7434 62.8959 69.3574 63.2883 69.3574 63.7723C69.3574 64.2563 69.7434 64.6487 70.2194 64.6487Z" fill="#80B2FF"/>
<path d="M67.2634 64.6487C67.7394 64.6487 68.1254 64.2563 68.1254 63.7723C68.1254 63.2883 67.7394 62.8959 67.2634 62.8959C66.7873 62.8959 66.4014 63.2883 66.4014 63.7723C66.4014 64.2563 66.7873 64.6487 67.2634 64.6487Z" fill="#80B2FF"/>
<path d="M64.3078 64.6487C64.7839 64.6487 65.1698 64.2563 65.1698 63.7723C65.1698 63.2883 64.7839 62.8959 64.3078 62.8959C63.8317 62.8959 63.4458 63.2883 63.4458 63.7723C63.4458 64.2563 63.8317 64.6487 64.3078 64.6487Z" fill="#80B2FF"/>
<path d="M61.3522 64.6487C61.8283 64.6487 62.2142 64.2563 62.2142 63.7723C62.2142 63.2883 61.8283 62.8959 61.3522 62.8959C60.8762 62.8959 60.4902 63.2883 60.4902 63.7723C60.4902 64.2563 60.8762 64.6487 61.3522 64.6487Z" fill="#80B2FF"/>
<path d="M58.3972 64.6487C58.8732 64.6487 59.2592 64.2563 59.2592 63.7723C59.2592 63.2883 58.8732 62.8959 58.3972 62.8959C57.9211 62.8959 57.5352 63.2883 57.5352 63.7723C57.5352 64.2563 57.9211 64.6487 58.3972 64.6487Z" fill="#80B2FF"/>
<path d="M55.4416 64.6487C55.9177 64.6487 56.3036 64.2563 56.3036 63.7723C56.3036 63.2883 55.9177 62.8959 55.4416 62.8959C54.9655 62.8959 54.5796 63.2883 54.5796 63.7723C54.5796 64.2563 54.9655 64.6487 55.4416 64.6487Z" fill="#80B2FF"/>
<path d="M72.0064 43.262C75.7008 39.5058 75.7008 33.4159 72.0064 29.6597C68.3119 25.9036 62.3219 25.9036 58.6274 29.6597C54.933 33.4159 54.933 39.5058 58.6274 43.262C62.3219 47.0181 68.3119 47.0181 72.0064 43.262Z" fill="white"/>
<path d="M65.3037 36.0743C64.3799 36.0743 63.5271 35.6168 62.9823 34.9184C62.5796 34.4126 62.3428 33.7624 62.3428 33.0399C62.3428 31.3783 63.6692 30.0056 65.3026 30.0056C66.9607 30.0056 68.2872 31.3783 68.2872 33.0399C68.2872 33.7624 68.0503 34.4126 67.6476 34.9184C67.1039 35.6168 66.2522 36.0743 65.3037 36.0743Z" fill="#005CEA"/>
<path d="M60.0607 41.4803C60.0607 43.3954 70.5767 43.3954 70.5767 41.4803L70.5736 39.249C70.1586 36.199 60.9154 36.0712 60.0586 39.249L60.0607 41.4803Z" fill="#005CEA"/>
<path d="M83.7148 63.0927V64.8581C83.7148 65.1628 85.9405 65.1628 85.9405 64.8581V63.0927H85.7942V62.9597C85.7942 62.4195 85.3617 61.9807 84.8313 61.9807C84.3009 61.9807 83.8683 62.4205 83.8683 62.9597V63.0927H83.7148ZM85.4502 63.0927H84.204V62.9597C84.204 62.6016 84.4162 62.3137 84.8302 62.3137C85.2442 62.3137 85.4502 62.6215 85.4502 62.9597V63.0927ZM84.5254 63.7199C84.5254 63.5503 84.6665 63.4058 84.8343 63.4058C85.0012 63.4058 85.1433 63.5492 85.1433 63.7199C85.1433 63.8372 85.0784 63.9293 84.9888 63.9817V64.4916C84.9888 64.5837 84.925 64.6487 84.8343 64.6487C84.7437 64.6487 84.6665 64.5837 84.6665 64.4916V63.9817C84.5892 63.9293 84.5254 63.8382 84.5254 63.7199Z" fill="#4D4D4D"/>
<path d="M84.8278 55.3529C84.6331 55.3529 84.4529 55.2565 84.3375 55.1089C84.2531 55.0021 84.2026 54.8649 84.2026 54.7121C84.2026 54.3613 84.4828 54.0723 84.8278 54.0723C85.1779 54.0723 85.457 54.3623 85.457 54.7121C85.457 54.8649 85.4076 55.0021 85.3221 55.1089C85.2078 55.2565 85.0276 55.3529 84.8278 55.3529Z" fill="#4D4D4D"/>
<path d="M83.7217 56.4941C83.7217 56.8983 85.9524 56.8983 85.9524 56.4941L85.9401 56.023C85.8525 55.379 83.9019 55.3518 83.7217 56.023V56.4941Z" fill="#4D4D4D"/>
<path d="M70.4127 56.2649H79.4313C79.8268 56.2649 80.1501 55.9361 80.1501 55.534C80.1501 55.1319 79.8268 54.8032 79.4313 54.8032H70.4127C70.0172 54.8032 69.6938 55.1319 69.6938 55.534C69.6949 55.9361 70.0183 56.2649 70.4127 56.2649Z" fill="#80B2FF"/>
<path d="M58.5187 56.2649H67.5372C67.9327 56.2649 68.2561 55.9361 68.2561 55.534C68.2561 55.1319 67.9327 54.8032 67.5372 54.8032H58.5187C58.1232 54.8032 57.7998 55.1319 57.7998 55.534C57.7998 55.9361 58.1232 56.2649 58.5187 56.2649Z" fill="#80B2FF"/>
<path d="M0.454742 150H152.852C153.103 150 153.307 149.773 153.307 149.493C153.307 149.213 153.103 148.986 152.852 148.986H0.454742C0.203527 148.986 0 149.213 0 149.493C0.000851577 149.773 0.203527 150 0.454742 150Z" fill="#003C99"/>
<path d="M0 79.4839C0 79.3792 0.00102987 79.3342 0.00102987 79.3227C0.00102987 79.3426 0 79.4839 0 79.4839Z" fill="#D9FFFF"/>
<path d="M0 79.4839C0 79.3792 0.00102987 79.3342 0.00102987 79.3227C0.00102987 79.3426 0 79.4839 0 79.4839Z" fill="#D9FFFF"/>
<path d="M61.1899 79.7624C61.1899 79.7624 61.191 79.621 61.191 79.6011C61.191 79.6116 61.191 79.6577 61.1899 79.7624Z" fill="#D9FFFF"/>
<path d="M61.1899 79.7624C61.1899 79.7624 61.191 79.621 61.191 79.6011C61.191 79.6116 61.191 79.6577 61.1899 79.7624Z" fill="#D9FFFF"/>
<path d="M30.7088 64.8648C23.9353 72.2414 13.1268 78.2871 1.56134 80.8629C1.55826 81.6482 1.53869 85.9998 1.45012 106.054C1.33271 132.808 26.3751 145.881 30.2629 147.887C34.0301 146.124 59.3887 133.072 59.5061 106.318C59.5947 86.2626 59.6132 81.912 59.6173 81.1267C48.0745 78.4463 37.4163 72.3031 30.7088 64.8648Z" fill="white"/>
<path d="M30.6482 67.7662C23.6657 74.279 13.9911 79.397 3.3535 82.1874L3.24845 106.05C3.20005 116.969 7.46681 126.846 15.9293 135.41C21.4896 141.035 27.3361 144.525 30.3032 146.095C30.4309 146.029 30.571 145.955 30.709 145.882V67.8228C30.6884 67.8039 30.6678 67.7851 30.6482 67.7662Z" fill="#FDE686"/>
<path d="M30.709 67.8228V145.882C33.7935 144.251 39.4011 140.878 44.7709 135.542C53.3085 127.056 57.6618 117.217 57.7091 106.299L57.8142 82.4366C47.2312 79.5572 37.6287 74.3711 30.709 67.8228Z" fill="#FDD116"/>
<path d="M52.022 91.7397C43.9231 93.0098 32.8952 100.519 25.9384 109.549C24.9631 105.292 20.5821 101.405 18.2896 100.555L11.3462 107.651C15.6819 109.637 20.4194 115.266 21.0476 121.028L27.9838 122.121C30.9086 116.248 38.4617 102.199 53.4875 94.6443C53.1991 93.4946 52.1384 91.9041 52.022 91.7397Z" fill="#FFB800"/>
<path d="M118.222 46.0363L137.862 45.9033L154.755 45.7253L154.829 48.3315C148.957 50.6371 144.349 51.3334 138.501 51.7763C132.577 53.7762 124.734 55.0986 118.666 55.5321C113.332 55.7907 112.888 46.2949 118.222 46.0363Z" fill="#F7A594"/>
<path d="M126.93 45.4709C124.572 45.4248 117.595 44.674 113.246 45.1944C109.311 46.8373 110.288 53.8149 112.09 54.9122C112.085 55.1091 119.723 57.2765 127.453 54.9709C128.616 53.5856 128.222 46.8519 126.93 45.4709Z" fill="#112E59"/>
<path d="M128.495 55.2452C127.27 55.6881 126.119 55.9697 125.259 55.6117C124.749 55.6368 124.181 45.184 124.691 45.1599L127.906 45.0039C128.926 44.9547 129.515 55.196 128.495 55.2452Z" fill="#1D498C"/>
<path d="M152.804 45.7745C153.376 43.0846 154.289 39.2597 155.399 39.2053C155.638 39.1937 155.673 39.3508 155.662 40.067C155.11 44.8489 156.38 46.1452 155.766 47.4969C155.091 48.8068 153.232 48.7806 153.232 48.7806C152.191 48.3053 152.106 46.5347 152.804 45.7745Z" fill="#F7A594"/>
<path d="M154.129 45.1945L155.286 41.7213C155.286 41.7213 156.041 41.8553 155.882 42.7736C155.724 43.6919 155.531 44.6803 155.531 44.6803C155.531 44.6803 156.435 46.6677 155.716 47.4907C154.995 48.3137 153.754 47.5095 154.129 45.1945Z" fill="#F7A594"/>
<path d="M155.874 47.3441L155.786 47.3158C156.181 46.0614 155.497 44.7159 155.49 44.7023L155.483 44.6877L155.486 44.6709C155.488 44.6615 155.68 43.6731 155.837 42.7653C155.9 42.4019 155.824 42.1234 155.613 41.9381C155.5 41.8386 155.376 41.7936 155.316 41.7758L154.172 45.2081L154.084 45.1777L155.254 41.6669L155.293 41.6742C155.301 41.6753 155.497 41.7119 155.673 41.8669C155.836 42.0103 156.013 42.2847 155.927 42.781C155.781 43.626 155.604 44.5411 155.578 44.672C155.654 44.828 156.257 46.1263 155.874 47.3441Z" fill="#D97B69"/>
<path d="M153.621 43.5391L153.531 43.516C153.572 43.3506 154.547 39.4628 155.384 39.1613L155.415 39.2503C154.624 39.5351 153.631 43.4993 153.621 43.5391Z" fill="#D97B69"/>
<path d="M93.7613 148.973H102.797C102.979 148.865 103.111 148.743 103.185 148.604C103.329 141.771 103.844 138.481 103.844 138.481L97.5378 138.221L96.3524 143.304C94.3133 144.769 91.9477 147.912 93.7613 148.973Z" fill="#231F20"/>
<path d="M103.488 149.096H92.7756C92.5037 149.096 92.5243 147.58 92.7951 147.58L103.447 147.641C103.726 147.642 103.767 149.096 103.488 149.096Z" fill="#231F20"/>
<path d="M102.379 77.2775C101.74 82.3359 99.0055 94.8305 99.3 108.57C96.3392 126.081 96.0127 129.937 95.6543 140.738L104.686 141.081C106.132 133.539 109.099 121.634 110.442 110.019C113.361 100.867 115.274 87.8225 116.214 77.466C117.162 68.5398 104.75 64.9306 102.379 77.2775Z" fill="#112E59"/>
<path d="M100.069 141.165L99.8848 141.163C99.9012 139.918 103.572 97.8052 107.3 80.7328L107.48 80.7737C103.754 97.8356 100.086 139.92 100.069 141.165Z" fill="#231F20"/>
<path d="M111.456 77.8953C112.728 95.3174 116.479 110.116 116.479 110.116C115.745 122.002 117.818 133.415 119.293 141.222L127.885 141.143C128.383 133.5 127.32 92.1259 125.096 78.0942C124.038 65.6865 109.923 65.0227 111.456 77.8953Z" fill="#112E59"/>
<path d="M120.92 141.221C120.536 144.036 120.268 146.233 120.605 148.78L134.657 149.058C134.657 149.058 135.982 147.682 134.138 145.618C132.294 143.554 129.032 144.748 126.714 141.142L120.92 141.221Z" fill="#231F20"/>
<path d="M135.296 149.096H120.38C120.108 149.096 120.108 147.58 120.38 147.58L135.236 147.641C135.515 147.642 135.576 149.096 135.296 149.096Z" fill="#231F20"/>
<path d="M123.045 80.8759L122.861 80.8852L125.806 141.051L125.99 141.042L123.045 80.8759Z" fill="#231F20"/>
<path d="M125.066 75.9153L102.73 77.645C102.933 63.427 96.6181 53.6087 97.9333 49.9471C99.7397 44.917 112.905 44.8814 117.918 46.8425C119.909 47.6216 123.147 52.126 123.529 57.7927C123.636 60.4292 123.662 62.2375 123.409 64.3463C123.157 66.4551 125.066 75.9153 125.066 75.9153Z" fill="#112E59"/>
<path d="M111.716 49.6749C110.678 48.8362 106.536 47.543 105.435 46.6258L105.683 39.3163L109.755 38.9131C110.936 39.0126 112.117 39.3006 113.133 39.7079L114.049 44.5212L114.251 45.5651C114.714 46.5923 113.799 47.831 111.716 49.6749Z" fill="#F7A594"/>
<path d="M107.054 40.9706C107.692 41.9706 110.367 44.5296 114.05 44.5212L113.257 40.357L107.054 40.9706Z" fill="#E6836F"/>
<path d="M116.067 31.3418C116.386 32.7815 117.044 35.9437 116.936 37.3991C116.772 39.6157 114.736 42.0742 112.96 42.3978C110.904 42.6103 108.133 41.9884 106.627 40.6743C105.79 39.6765 104.169 37.3091 103.423 35.2369C101.867 30.9146 104.871 27.1253 108.682 26.25C112.493 25.3746 115.071 26.852 116.067 31.3418Z" fill="#F7A594"/>
<path d="M104.7 38.0922C103.905 36.6703 104.962 36.0945 106.119 37.1981C105.922 36.1248 104.718 32.9805 105.784 31.9387C106.988 30.7293 112.285 31.2549 115.131 28.2383C115.131 28.2383 113.009 23.5098 106.047 26.3023C98.1842 30.5408 104.7 38.0922 104.7 38.0922Z" fill="#4D261C"/>
<path d="M105.745 38.9362C106.311 38.4576 106.279 37.469 105.674 36.728C105.068 35.9871 104.118 35.7744 103.552 36.253C102.985 36.7316 103.017 37.7202 103.622 38.4612C104.228 39.2022 105.178 39.4148 105.745 38.9362Z" fill="#F7A594"/>
<path d="M115.195 28.4341C114.311 28.1588 103.774 32.4161 104.05 33.2119C104.05 33.2119 111.68 33.2475 116.925 30.8193C119.789 29.4938 115.195 28.4341 115.195 28.4341Z" fill="#112E59"/>
<path d="M102.462 33.8956L115.262 28.4111L114.824 26.5683L101.265 32.2559C101.533 32.8894 101.997 33.5763 102.462 33.8956Z" fill="#1D498C"/>
<path d="M100.896 32.6664C99.4953 33.2087 98.7456 32.3397 100.16 30.6853C102.341 28.1336 103.831 21.6052 107.071 20.422C109.304 19.6064 110.994 22.2649 113.958 23.9161C115.302 24.6647 116.055 25.4479 115.551 26.3683C114.019 27.5337 102.361 32.0978 100.896 32.6664Z" fill="#112E59"/>
<path d="M109.783 22.8816C109.767 22.8397 109.759 22.8188 109.756 22.8083C109.439 22.8533 109.114 22.8512 108.81 22.8072C108.505 22.7633 108.22 22.6774 107.98 22.5559C107.98 22.557 107.979 22.558 107.978 22.5591C107.926 22.6847 107.861 22.8114 107.784 22.936C107.681 23.1015 107.555 23.2627 107.413 23.4145C107.342 23.491 107.268 23.5664 107.189 23.6365C107.07 23.7423 106.942 23.8407 106.809 23.9297C106.818 23.9548 106.853 24.0491 106.969 24.3642C106.993 24.427 107.019 24.4993 107.05 24.581C107.065 24.6218 107.08 24.6647 107.098 24.7108C107.149 24.849 107.209 25.0113 107.279 25.2008C107.373 25.4542 107.503 25.6657 107.653 25.8437C107.704 25.9024 107.756 25.9578 107.81 26.0102C107.972 26.1652 108.151 26.2877 108.33 26.385C108.509 26.4824 108.687 26.5536 108.852 26.606C109.07 26.6761 109.262 26.7117 109.391 26.7295C109.454 26.739 109.503 26.7431 109.532 26.7452C109.582 26.6908 109.717 26.5411 109.864 26.3212C109.923 26.2332 109.984 26.1338 110.041 26.0238C110.07 25.9694 110.099 25.9118 110.126 25.8521C110.341 25.3767 110.475 24.7537 110.225 24.0784C109.946 23.3203 109.829 23.0072 109.783 22.8816Z" fill="#F7BD0C"/>
<path d="M109.713 24.2909C109.908 24.827 109.636 25.4228 109.107 25.6217C108.578 25.8207 107.99 25.5474 107.794 25.0113C107.598 24.4752 107.87 23.8794 108.4 23.6805C108.93 23.4815 109.518 23.7548 109.713 24.2909Z" fill="white"/>
<path d="M111.624 47.653L112.297 49.0874L112.4 47.564L113.307 50.013C113.081 49.6068 112.311 49.2497 112.311 49.2497C112.311 49.2497 111.473 49.6413 111.067 50.5711L111.624 47.653Z" fill="#231F20"/>
<path d="M105.484 44.8667C106.489 46.185 109.759 47.0875 111.623 47.6529L111.068 50.5711C108.828 49.8026 105.933 48.9293 104.635 46.2049C104.341 45.4636 104.691 45.0521 105.484 44.8667Z" fill="#1D498C"/>
<path d="M114.064 44.4071C113.964 44.8867 113.888 46.7682 112.4 47.564L113.307 50.0131C115.359 48.8194 115.467 47.7137 115.151 45.9798C115.022 45.2898 114.795 44.5506 114.064 44.4071Z" fill="#1D498C"/>
<path d="M115.84 77.2178C115.794 77.2178 115.754 77.1822 115.749 77.1341C115.519 74.9677 115.333 72.3836 115.136 69.6476C114.599 62.1946 113.991 53.7458 112.226 49.2853C112.206 49.2372 112.23 49.1827 112.277 49.1628C112.325 49.144 112.378 49.167 112.398 49.2152C114.173 53.7029 114.783 62.1663 115.32 69.6329C115.517 72.3668 115.703 74.9499 115.932 77.1131C115.937 77.1644 115.901 77.2105 115.85 77.2168C115.848 77.2178 115.844 77.2178 115.84 77.2178Z" fill="#231F20"/>
<path d="M102.736 75.3164C107.102 76.5059 124.221 76.0514 124.902 75.5206C125.944 75.2829 126.178 79.09 125.574 80.0072C124.65 81.4092 102.658 81.1862 101.963 80.1769C101.268 79.1675 101.502 74.9803 102.736 75.3164Z" fill="#231F20"/>
<path d="M119.647 54.7238C119.642 54.6809 119.64 54.6589 119.639 54.6484C119.329 54.6159 119.023 54.5364 118.746 54.4222C118.469 54.3081 118.219 54.1594 118.02 53.9877C118.019 53.9887 118.018 53.9898 118.018 53.9908C117.941 54.0976 117.85 54.2013 117.748 54.3008C117.613 54.4327 117.457 54.5552 117.288 54.6651C117.203 54.7206 117.116 54.774 117.024 54.8222C116.888 54.8945 116.745 54.9573 116.598 55.0086C116.601 55.0337 116.612 55.1321 116.649 55.4578C116.656 55.5227 116.665 55.597 116.675 55.6818C116.68 55.7237 116.685 55.7688 116.69 55.8159C116.707 55.9583 116.725 56.1258 116.748 56.3216C116.778 56.5834 116.852 56.8137 116.953 57.0179C116.987 57.086 117.024 57.1498 117.063 57.2116C117.182 57.3969 117.322 57.555 117.468 57.6891C117.614 57.8231 117.767 57.933 117.91 58.021C118.1 58.1393 118.273 58.2189 118.39 58.266C118.448 58.2901 118.493 58.3058 118.518 58.3142C118.578 58.2744 118.741 58.1655 118.93 57.9927C119.007 57.9236 119.087 57.844 119.166 57.754C119.206 57.709 119.245 57.6618 119.285 57.6126C119.598 57.2147 119.868 56.6588 119.787 55.9614C119.699 55.1772 119.662 54.8536 119.647 54.7238Z" fill="#F7BD0C"/>
<path d="M120.722 59.0091L116.417 59.4352L116.494 60.2376L120.798 59.8116L120.722 59.0091Z" fill="#1D498C"/>
<path d="M115.968 90.0821H114.647L114.674 89.9669C115.267 87.4152 115.348 81.2082 115.349 81.1464L115.534 81.1485C115.533 81.2103 115.453 87.2571 114.88 89.8947H115.818C115.94 89.2696 116.762 84.8729 116.554 81.3056L116.739 81.2941C116.963 85.1494 115.994 89.9596 115.984 90.0078L115.968 90.0821Z" fill="#231F20"/>
<path d="M94.3953 61.2774C94.3953 61.2774 92.6569 71.2799 94.4282 74.8075C96.2594 78.4533 113.167 79.246 113.167 79.246L113.773 74.0724L102.122 71.0674L104.653 63.406L94.3953 61.2774Z" fill="#F7A594"/>
<path d="M98.7786 48.4121C98.7786 48.4121 93.8672 54.505 93.6694 63.2322C100.071 67.9775 104.289 64.5589 104.289 64.5589C104.289 64.5589 107.536 55.8358 106.816 51.591C106.096 47.3472 100.233 46.8719 98.7786 48.4121Z" fill="#112E59"/>
<path d="M93.8877 60.6177C94.7549 61.6899 104.703 63.783 104.909 62.605C105.186 63.7306 105.127 64.8269 104.235 65.8509C103.982 67.4865 93.1946 65.764 93.448 64.1285C92.8208 63.117 92.9681 61.9464 93.8877 60.6177Z" fill="#1D498C"/>
<path d="M104.909 62.6992C104.894 62.6992 104.878 62.695 104.863 62.6867C104.819 62.6605 104.804 62.6029 104.83 62.5579C105.548 61.3213 106.15 59.6502 106.483 57.9739C106.493 57.9226 106.542 57.8901 106.592 57.9006C106.643 57.9111 106.675 57.9603 106.664 58.0116C106.329 59.7078 105.718 61.4009 104.99 62.6542C104.971 62.6835 104.94 62.6992 104.909 62.6992Z" fill="#231F20"/>
<path d="M106.103 61.9378C106.104 61.8776 106.104 61.8512 106.104 61.8449C106.104 61.8565 106.103 61.9378 106.103 61.9378Z" fill="#D9FFFF"/>
<path d="M106.103 61.9378C106.104 61.8776 106.104 61.8512 106.104 61.8449C106.104 61.8565 106.103 61.9378 106.103 61.9378Z" fill="#D9FFFF"/>
<path d="M141.197 62.3305C141.197 62.3305 141.198 62.2491 141.198 62.2375C141.198 62.2439 141.198 62.2703 141.197 62.3305Z" fill="#D9FFFF"/>
<path d="M141.197 62.3305C141.197 62.3305 141.198 62.2491 141.198 62.2375C141.198 62.2439 141.198 62.2703 141.197 62.3305Z" fill="#D9FFFF"/>
<path d="M123.785 52.459C119.667 56.8651 113.117 60.4554 106.124 61.9569C106.119 62.4291 106.09 65.0437 105.958 77.0964C105.782 93.1751 120.851 101.133 123.191 102.354C125.472 101.31 140.835 93.5667 141.01 77.488C141.142 65.4353 141.17 62.8207 141.176 62.3485C134.218 60.691 127.807 56.9561 123.785 52.459Z" fill="white"/>
<path d="M123.724 55.3646C119.696 59.0555 114.128 61.9412 108.017 63.4929L107.868 77.1152C107.8 83.3484 110.21 89.0035 115.031 93.9247C118.199 97.158 121.54 99.1726 123.235 100.079C123.308 100.043 123.389 100.001 123.469 99.9589L123.759 55.395C123.748 55.3855 123.736 55.3751 123.724 55.3646Z" fill="#FDD116"/>
<path d="M123.76 55.396L123.469 99.96C125.245 99.0407 128.473 97.1361 131.572 94.1101C136.5 89.2978 139.034 83.6981 139.102 77.4649L139.251 63.8416C133.192 62.1589 127.704 59.1623 123.76 55.396Z" fill="#FDDD5D"/>
<path d="M116.542 74.9844L116.473 85.5378C116.466 86.7126 130.643 86.8068 130.651 85.632L130.72 75.0787L116.542 74.9844ZM124.313 80.6407L124.293 83.6321C124.29 84.0311 123.968 84.3588 123.574 84.3567C123.174 84.3536 122.856 84.0206 122.858 83.6227L122.878 80.625C122.272 80.3444 121.849 79.7203 121.854 79.0041C121.86 78.0251 122.653 77.2398 123.62 77.2471C124.588 77.2534 125.363 78.0492 125.357 79.0282C125.352 79.7496 124.927 80.3684 124.313 80.6407Z" fill="white"/>
<path d="M129.484 74.3185L128.049 74.309L128.053 73.5981C128.069 71.1354 126.102 69.1188 123.67 69.1031C121.236 69.0874 119.244 71.0768 119.228 73.5395L119.224 74.2504L117.788 74.241L117.792 73.53C117.814 70.2664 120.454 67.6299 123.679 67.6508C126.903 67.6728 129.509 70.3449 129.487 73.6075L129.484 74.3185Z" fill="white"/>
</svg>
