<svg width="19" height="18" viewBox="0 0 19 18" fill="none" xmlns="http://www.w3.org/2000/svg">
<mask id="path-2-inside-1_2064_5143" fill="white">
<path d="M9.23242 0C8.05053 -1.4094e-08 6.8802 0.232792 5.78827 0.685084C4.69634 1.13738 3.70419 1.80031 2.86846 2.63604C2.03273 3.47177 1.3698 4.46392 0.917506 5.55585C0.465213 6.64778 0.232422 7.8181 0.232422 9L9.23242 9V0Z"/>
</mask>
<path d="M9.23242 0C8.05053 -1.4094e-08 6.8802 0.232792 5.78827 0.685084C4.69634 1.13738 3.70419 1.80031 2.86846 2.63604C2.03273 3.47177 1.3698 4.46392 0.917506 5.55585C0.465213 6.64778 0.232422 7.8181 0.232422 9L9.23242 9V0Z" fill="#D70801" stroke="#D70801" stroke-width="3" mask="url(#path-2-inside-1_2064_5143)"/>
<rect x="0.982422" y="0.75" width="16.5" height="16.5" rx="8.25" stroke="#D70801" stroke-width="1.5"/>
</svg>
