<svg width="15" height="17" viewBox="0 0 15 17" fill="none" xmlns="http://www.w3.org/2000/svg">
<path fill-rule="evenodd" clip-rule="evenodd" d="M1.2345 6.73965C1.2345 3.76988 3.4378 1.35338 6.14596 1.35338C8.85442 1.35338 11.0577 3.76988 11.0577 6.73965C11.0577 9.70977 8.85442 12.1259 6.14596 12.1259C3.4378 12.1259 1.2345 9.70977 1.2345 6.73965ZM14.631 15.0878L10.9054 11.0023C11.7704 9.8406 12.2919 8.35741 12.2919 6.73987C12.2919 3.01749 9.54025 0 6.1458 0C2.75166 0 0 3.01749 0 6.73987C0 10.4622 2.75166 13.4797 6.1458 13.4797C7.62085 13.4797 8.97369 12.9089 10.0328 11.9593L13.7577 16.0451C13.8781 16.1771 14.0385 16.2431 14.1959 16.2431C14.3533 16.2431 14.5107 16.1771 14.631 16.0451C14.8717 15.7808 14.8717 15.3521 14.631 15.0878Z" fill="#19124F"/>
</svg>
