<svg width="21" height="20" viewBox="0 0 21 20" fill="none" xmlns="http://www.w3.org/2000/svg">
<path d="M9.30485 15.8333C12.9867 15.8333 15.9715 12.8486 15.9715 9.16667C15.9715 5.48477 12.9867 2.5 9.30485 2.5C5.62295 2.5 2.63818 5.48477 2.63818 9.16667C2.63818 12.8486 5.62295 15.8333 9.30485 15.8333Z" stroke="#222631" stroke-width="1.5" stroke-linecap="round" stroke-linejoin="round"/>
<path d="M9.30501 15.8333C10.1805 15.8333 11.0474 15.6609 11.8562 15.3259C12.6651 14.9908 13.4 14.4998 14.0191 13.8807C14.6381 13.2617 15.1292 12.5267 15.4642 11.7179C15.7992 10.9091 15.9717 10.0421 15.9717 9.16667" stroke="url(#paint0_linear_4361_7244)" stroke-width="1.5"/>
<path d="M18.1797 18.0417L15.6797 15.5417" stroke="#222631" stroke-width="1.5" stroke-linecap="round" stroke-linejoin="round"/>
<path fill-rule="evenodd" clip-rule="evenodd" d="M9.30485 3.125C5.96813 3.125 3.26318 5.82995 3.26318 9.16667C3.26318 12.5034 5.96813 15.2083 9.30485 15.2083C12.6416 15.2083 15.3465 12.5034 15.3465 9.16667C15.3465 5.82995 12.6416 3.125 9.30485 3.125ZM2.01318 9.16667C2.01318 5.13959 5.27777 1.875 9.30485 1.875C13.3319 1.875 16.5965 5.13959 16.5965 9.16667C16.5965 13.1937 13.3319 16.4583 9.30485 16.4583C5.27777 16.4583 2.01318 13.1937 2.01318 9.16667Z" fill="#222631"/>
<path fill-rule="evenodd" clip-rule="evenodd" d="M16.5965 9.16667C16.5965 10.1242 16.4079 11.0724 16.0415 11.9571C15.675 12.8417 15.1379 13.6456 14.4608 14.3227C13.7837 14.9997 12.9799 15.5368 12.0953 15.9033C11.2106 16.2697 10.2624 16.4583 9.30485 16.4583V15.2083C10.0983 15.2083 10.8839 15.0521 11.6169 14.7484C12.3499 14.4448 13.0159 13.9998 13.577 13.4388C14.138 12.8777 14.583 12.2117 14.8866 11.4787C15.1902 10.7457 15.3465 9.96007 15.3465 9.16667H16.5965Z" fill="url(#paint1_linear_4361_7244)"/>
<path fill-rule="evenodd" clip-rule="evenodd" d="M15.2379 15.0997C15.482 14.8557 15.8777 14.8557 16.1218 15.0997L18.6218 17.5997C18.8659 17.8438 18.8659 18.2396 18.6218 18.4836C18.3777 18.7277 17.982 18.7277 17.7379 18.4836L15.2379 15.9836C14.9938 15.7396 14.9938 15.3438 15.2379 15.0997Z" fill="#222631"/>
<defs>
<linearGradient id="paint0_linear_4361_7244" x1="15.9717" y1="9.16667" x2="2.63835" y2="9.16667" gradientUnits="userSpaceOnUse">
<stop offset="0.0349758" stop-color="#FFD600"/>
<stop offset="0.966035" stop-color="#FFC200"/>
</linearGradient>
<linearGradient id="paint1_linear_4361_7244" x1="10.409" y1="1.875" x2="10.409" y2="18.6667" gradientUnits="userSpaceOnUse">
<stop offset="0.0349758" stop-color="#FFD600"/>
<stop offset="0.966035" stop-color="#FFC200"/>
</linearGradient>
</defs>
</svg>
