<svg width="25" height="24" viewBox="0 0 25 24" fill="none" xmlns="http://www.w3.org/2000/svg">
<path d="M5.73846 8.26827L7.81165 12L5.73846 15.7317C4.52917 17.9084 3.92453 18.9968 4.41295 19.5282C4.90138 20.0596 6.03675 19.5487 8.3075 18.5269L18.7587 13.8238C20.5027 13.039 21.3748 12.6466 21.3748 12C21.3748 11.3534 20.5027 10.961 18.7587 10.1762L8.3075 5.47314C6.03675 4.4513 4.90138 3.94038 4.41295 4.47179C3.92453 5.00319 4.52917 6.09155 5.73846 8.26827Z" stroke="#222631" stroke-width="1.5"/>
<path d="M12.8116 12.75C13.2259 12.75 13.5616 12.4142 13.5616 12C13.5616 11.5858 13.2259 11.25 12.8116 11.25V12.75ZM8.46726 11.6358L5.96726 7.13577L4.65603 7.86423L7.15603 12.3642L8.46726 11.6358ZM5.96726 16.8642L8.46726 12.3642L7.15603 11.6358L4.65603 16.1358L5.96726 16.8642ZM7.81165 12.75H12.8116V11.25H7.81165V12.75Z" fill="white"/>
</svg>
