<svg width="24" height="22" viewBox="0 0 24 22" fill="none" xmlns="http://www.w3.org/2000/svg">
<path fill-rule="evenodd" clip-rule="evenodd" d="M9.28747 14.5H20.1725L21.7915 6H7.23547L9.28747 14.5ZM21 16.5H8.5C8.038 16.5 7.636 16.185 7.528 15.735L4.998 5.255C4.995 5.24 4.992 5.23 4.9895 5.22L4.2125 2H1C0.448 2 0 1.555 0 1C0 0.45 0.448 0 1 0H5C5.462 0 5.864 0.315 5.972 0.765L6.753 4H23C23.298 4 23.5805 4.135 23.7705 4.365C23.9605 4.595 24.038 4.895 23.9825 5.19L21.9825 15.69C21.8925 16.16 21.48 16.5 21 16.5Z" fill="#19124F"/>
<path fill-rule="evenodd" clip-rule="evenodd" d="M12.083 20.25C12.083 19.285 11.3 18.5 10.333 18.5C9.36701 18.5 8.58301 19.285 8.58301 20.25C8.58301 21.215 9.36701 22 10.333 22C11.3 22 12.083 21.215 12.083 20.25Z" fill="#19124F"/>
<path fill-rule="evenodd" clip-rule="evenodd" d="M21.083 20.25C21.083 19.285 20.3 18.5 19.333 18.5C18.367 18.5 17.583 19.285 17.583 20.25C17.583 21.215 18.367 22 19.333 22C20.3 22 21.083 21.215 21.083 20.25Z" fill="#19124F"/>
</svg>
