<svg width="75" height="75" viewBox="0 0 75 75" fill="none" xmlns="http://www.w3.org/2000/svg">
<g clip-path="url(#clip0_3070_49023)">
<path d="M1.52588e-05 7.02532V3.61809L0.510127 2.51635C0.727774 2.02668 1.21068 1.65944 1.748 1.70024C2.05406 1.72064 2.35333 1.85666 2.58458 2.09469L7.30481 7.02532H1.52588e-05Z" fill="url(#paint0_linear_3070_49023)"/>
<path d="M3.14229 0.0136017C11.4605 0.00680087 33.4497 0 33.4497 0C35.7962 0 38.0407 0.931719 39.7003 2.59113L72.4086 35.2965C74.0682 36.9559 75 39.2002 75 41.5465C75 41.5465 75 67.2742 74.9932 73.6058C74.9932 74.3743 74.3675 75 73.5921 75H72.3678C72.3814 75 72.5107 74.9932 72.5243 74.9932C73.9594 74.7008 73.3132 73.3746 72.7351 72.7693L61.1658 61.1602L61.1522 61.167C45.4203 45.4298 29.6817 29.6994 13.9431 13.9622L2.58456 2.09467C2.35332 1.85664 2.05405 1.72742 1.74799 1.70022C1.21067 1.65941 0.72776 2.02666 0.510117 2.51632L0 3.61806V3.1556C0 1.42138 1.40111 0.0136017 3.14229 0.0136017Z" fill="url(#paint1_linear_3070_49023)"/>
<path d="M68.1373 68.0223C70.579 70.5387 72.5447 72.5789 72.5447 72.5789C74.1294 74.1431 73.3744 74.9184 72.5447 75C72.5379 75 70.5722 75 68.1441 75V68.0223H68.1373Z" fill="url(#paint2_linear_3070_49023)"/>
<path d="M30.697 10.3465C30.7928 10.1734 30.8572 10.0003 30.8904 9.82718C30.9253 9.65224 30.9281 9.47822 30.8986 9.30512C30.8728 9.13202 30.8148 8.96168 30.7246 8.79411C30.6362 8.62838 30.5147 8.46817 30.36 8.31349C30.0709 8.02439 29.7449 7.84209 29.3822 7.76661C29.0213 7.69296 28.6429 7.73257 28.247 7.88543C27.853 8.03646 27.4589 8.30902 27.0649 8.70312C26.6709 9.09722 26.3956 9.49223 26.2391 9.88817C26.0826 10.2841 26.0412 10.6644 26.1149 11.029C26.1904 11.3918 26.3773 11.7223 26.6756 12.0206C26.9463 12.2913 27.2253 12.4745 27.5125 12.5703C27.8035 12.666 28.088 12.6761 28.366 12.6006C28.6459 12.5269 28.9064 12.3695 29.1476 12.1282L29.3548 12.4072L27.8964 10.9488L28.7968 10.0483L31.1639 12.4154L30.4513 13.1281C29.9542 13.6253 29.4221 13.9476 28.8549 14.095C28.2897 14.2405 27.7262 14.2258 27.1646 14.0509C26.6048 13.8741 26.0874 13.5482 25.6123 13.0731C25.082 12.5428 24.733 11.9599 24.5654 11.3246C24.3997 10.6875 24.4208 10.0402 24.6289 9.38274C24.8406 8.72532 25.2447 8.09826 25.8413 7.50159C26.2998 7.04303 26.7748 6.70049 27.2664 6.47396C27.7618 6.24744 28.2552 6.12956 28.7469 6.12033C29.2385 6.1111 29.7099 6.20131 30.161 6.39096C30.6122 6.58062 31.0246 6.86235 31.3984 7.23616C31.7189 7.55657 31.9702 7.90184 32.1525 8.27197C32.3367 8.64027 32.4509 9.01593 32.4951 9.39896C32.5411 9.78383 32.5154 10.1613 32.4178 10.5315C32.322 10.8998 32.1536 11.2432 31.9124 11.5618L30.697 10.3465ZM29.279 16.5851L33.5213 12.3421L34.698 13.5188L30.4557 17.7618L29.279 16.5851ZM34.6592 12.3862C34.4843 12.2113 34.3922 12.0032 34.383 11.762C34.3775 11.5208 34.4566 11.3182 34.6205 11.1543C34.7825 10.9922 34.9832 10.9149 35.2226 10.9222C35.4657 10.9296 35.6747 11.0207 35.8496 11.1957C36.0245 11.3706 36.1148 11.5787 36.1203 11.8199C36.1295 12.0612 36.0531 12.2628 35.8911 12.4249C35.7272 12.5888 35.5238 12.667 35.2807 12.6597C35.0413 12.6523 34.8342 12.5612 34.6592 12.3862ZM32.528 19.9943C32.2573 19.7236 32.063 19.4354 31.9452 19.1297C31.8292 18.8222 31.8024 18.5138 31.865 18.2044C31.9313 17.895 32.1044 17.6004 32.3842 17.3204C32.6199 17.0847 32.8611 16.93 33.1079 16.8563C33.3546 16.7827 33.6013 16.7716 33.8481 16.8232C34.0948 16.8747 34.3379 16.9705 34.5773 17.1104C34.8185 17.2522 35.0542 17.4179 35.2844 17.6076C35.5569 17.8286 35.7797 18.0035 35.9528 18.1324C36.1277 18.2594 36.2723 18.334 36.3864 18.3561C36.5006 18.3782 36.6028 18.3441 36.693 18.2539L36.7096 18.2373C36.8845 18.0624 36.9646 17.8718 36.9499 17.6655C36.937 17.4611 36.8302 17.2585 36.6294 17.0578C36.4177 16.8461 36.2022 16.7245 35.9831 16.6932C35.7658 16.6601 35.567 16.6933 35.3865 16.7927L34.3866 15.616C34.6996 15.4135 35.0311 15.2993 35.3809 15.2735C35.7326 15.2458 36.0871 15.3093 36.4443 15.464C36.8052 15.6187 37.1551 15.8654 37.4939 16.2043C37.7296 16.44 37.9276 16.6932 38.0878 16.9639C38.2498 17.2364 38.3566 17.5144 38.4082 17.798C38.4616 18.0835 38.446 18.3661 38.3613 18.6461C38.2785 18.9241 38.1109 19.1893 37.8586 19.4416L34.9973 22.3034L33.8814 21.1875L34.4697 20.5991L34.4366 20.566C34.2359 20.6305 34.0278 20.6563 33.8124 20.6434C33.5988 20.6287 33.3833 20.5697 33.166 20.4666C32.9506 20.3617 32.7379 20.2042 32.528 19.9943ZM33.677 19.5191C33.8501 19.6922 34.037 19.811 34.2377 19.8754C34.4402 19.938 34.6382 19.9482 34.8315 19.9058C35.0248 19.8634 35.1961 19.7677 35.3452 19.6185L35.7954 19.1682C35.7347 19.1554 35.6619 19.1268 35.5772 19.0826C35.4962 19.0384 35.4078 18.985 35.3121 18.9224C35.2181 18.858 35.1252 18.7926 35.0331 18.7263C34.9429 18.6582 34.8609 18.5965 34.7873 18.5413C34.6289 18.4234 34.4761 18.335 34.3287 18.2761C34.1814 18.2172 34.0415 18.1969 33.9089 18.2153C33.7782 18.2319 33.6576 18.2955 33.5471 18.406C33.3869 18.5662 33.3225 18.7466 33.3538 18.9474C33.3888 19.1481 33.4965 19.3387 33.677 19.5191ZM37.6071 15.3341L39.4494 14.6628L40.5376 15.7511L38.4385 16.1655L37.6071 15.3341ZM39.5445 27.0163C39.1099 26.5818 38.8282 26.1159 38.6993 25.6187C38.574 25.1215 38.5924 24.6243 38.7544 24.1271C38.9183 23.6317 39.2147 23.1694 39.6437 22.7404C40.0783 22.3057 40.5432 22.0083 41.0385 21.8481C41.5375 21.6879 42.0347 21.6713 42.53 21.7983C43.0272 21.9235 43.4903 22.2006 43.9193 22.6297C44.2895 22.9998 44.5463 23.3911 44.69 23.8036C44.8336 24.2161 44.865 24.6249 44.784 25.03C44.703 25.4352 44.5069 25.8099 44.1957 26.1543L43.0853 25.0439C43.2658 24.8008 43.3532 24.5476 43.3477 24.2843C43.3458 24.021 43.2372 23.7816 43.0217 23.5661C42.8394 23.3838 42.6304 23.2743 42.3947 23.2374C42.1627 23.2006 41.9151 23.2384 41.6518 23.3507C41.3885 23.4631 41.1233 23.6528 40.8563 23.9198C40.5857 24.1905 40.3923 24.4575 40.2763 24.7209C40.1622 24.9861 40.1235 25.2365 40.1604 25.4722C40.1972 25.7079 40.3068 25.9169 40.4891 26.0992C40.6235 26.2337 40.7717 26.3266 40.9338 26.3782C41.0977 26.4316 41.2671 26.4408 41.442 26.4058C41.6206 26.3708 41.7955 26.2898 41.9668 26.1627L43.0771 27.2731C42.7347 27.5788 42.3609 27.7758 41.9558 27.8642C41.5544 27.9527 41.1465 27.9278 40.7322 27.7897C40.3179 27.6516 39.922 27.3938 39.5445 27.0163ZM51.2383 29.5895L51.9205 30.2718C51.5983 30.5904 51.2816 30.8114 50.9704 30.9348C50.6611 31.0563 50.3398 31.0591 50.0065 30.9431C49.675 30.829 49.316 30.5785 48.9293 30.1918L49.454 29.667C49.71 29.9229 49.9319 30.0767 50.1197 30.1282C50.3094 30.1816 50.4898 30.1577 50.6611 30.0564C50.836 29.9551 51.0284 29.7995 51.2383 29.5895ZM46.8302 30.5234L49.2661 28.087L50.4401 29.2609L46.1978 33.5039L45.0708 32.3769L45.8414 31.6062L45.7972 31.562C45.4529 31.7149 45.0938 31.7554 44.72 31.6836C44.3481 31.6137 44.0028 31.4194 43.6843 31.1008C43.4007 30.8173 43.2156 30.5033 43.1291 30.1589C43.0425 29.8146 43.0572 29.4629 43.1732 29.1038C43.291 28.7465 43.5147 28.4012 43.8443 28.0679L46.5454 25.3663L47.7221 26.5429L45.2309 29.0346C44.9805 29.2851 44.8488 29.5493 44.836 29.8274C44.8249 30.1073 44.9308 30.3587 45.1536 30.5815C45.2954 30.7233 45.4593 30.8227 45.6453 30.8798C45.8349 30.9369 46.032 30.9387 46.2363 30.8853C46.4426 30.8337 46.6405 30.7131 46.8302 30.5234ZM42.8419 33.3245C42.667 33.1496 42.5749 32.9415 42.5657 32.7002C42.5565 32.459 42.6338 32.2564 42.7977 32.0925C42.9616 31.9286 43.1641 31.8513 43.4053 31.8605C43.6465 31.8697 43.8546 31.9617 44.0296 32.1367C44.2045 32.3116 44.2956 32.5188 44.303 32.7582C44.3122 32.9994 44.2349 33.202 44.071 33.3659C43.9072 33.5298 43.7046 33.6071 43.4634 33.5979C43.224 33.5906 43.0169 33.4994 42.8419 33.3245ZM49.6242 37.0961C49.1897 36.6615 48.9079 36.1956 48.779 35.6984C48.6538 35.2012 48.6722 34.704 48.8342 34.2068C48.998 33.7114 49.2945 33.2492 49.7235 32.8201C50.158 32.3855 50.6229 32.088 51.1182 31.9278C51.6172 31.7676 52.1144 31.751 52.6097 31.878C53.1069 32.0032 53.57 32.2803 53.9991 32.7094C54.3692 33.0795 54.6261 33.4708 54.7697 33.8833C54.9134 34.2958 54.9447 34.7046 54.8637 35.1098C54.7827 35.5149 54.5866 35.8897 54.2754 36.234L53.165 35.1237C53.3455 34.8806 53.4329 34.6274 53.4274 34.364C53.4255 34.1007 53.3169 33.8613 53.1014 33.6458C52.9191 33.4635 52.7102 33.354 52.4745 33.3172C52.2424 33.2803 51.9948 33.3181 51.7315 33.4305C51.4682 33.5428 51.203 33.7325 50.936 33.9995C50.6654 34.2702 50.4721 34.5373 50.3561 34.8006C50.2419 35.0658 50.2033 35.3162 50.2401 35.5519C50.2769 35.7876 50.3865 35.9967 50.5688 36.179C50.7032 36.3134 50.8515 36.4064 51.0135 36.4579C51.1774 36.5113 51.3468 36.5205 51.5217 36.4855C51.7003 36.4505 51.8752 36.3695 52.0465 36.2424L53.1569 37.3528C52.8144 37.6585 52.4406 37.8556 52.0355 37.944C51.6341 38.0324 51.2262 38.0075 50.8119 37.8694C50.3976 37.7314 50.0017 37.4736 49.6242 37.0961ZM60.7181 41.9585L59.5746 40.9476C59.6482 40.8371 59.6915 40.7146 59.7043 40.5802C59.7191 40.4439 59.6988 40.304 59.6436 40.1603C59.592 40.0167 59.4981 39.8768 59.3618 39.7405C59.1795 39.5582 58.9871 39.4431 58.7845 39.3952C58.5838 39.3455 58.42 39.3842 58.2929 39.5113C58.1916 39.6126 58.1465 39.7387 58.1576 39.8897C58.1686 40.0407 58.2515 40.2359 58.4062 40.4753L59.0194 41.3979C59.3472 41.8951 59.5185 42.3388 59.5332 42.7292C59.548 43.1196 59.4025 43.4677 59.0969 43.7734C58.8188 44.0515 58.4929 44.2136 58.1191 44.2596C57.7472 44.3075 57.3605 44.2486 56.9591 44.0829C56.5613 43.9172 56.1783 43.6502 55.81 43.2819C55.2484 42.7202 54.9179 42.1558 54.8184 41.5886C54.7226 41.0215 54.8487 40.5068 55.1967 40.0445L56.4148 41.1411C56.2786 41.3473 56.2325 41.5628 56.2767 41.7875C56.3228 42.0103 56.4508 42.2267 56.6607 42.4366C56.8669 42.6428 57.0723 42.769 57.2766 42.815C57.4847 42.861 57.6532 42.8214 57.7821 42.6962C57.887 42.5875 57.9294 42.4549 57.9091 42.2984C57.8907 42.14 57.8078 41.9504 57.6605 41.7294L57.0722 40.8483C56.7407 40.3511 56.5759 39.899 56.5777 39.492C56.5814 39.0869 56.7415 38.7259 57.0582 38.4092C57.3308 38.1366 57.6392 37.9755 57.9835 37.9257C58.3297 37.8779 58.6906 37.9349 59.0662 38.097C59.4437 38.2608 59.8138 38.5242 60.1766 38.8869C60.7124 39.4228 61.0209 39.9577 61.1019 40.4917C61.1848 41.0276 61.0569 41.5165 60.7181 41.9585ZM60.3572 47.829C59.9282 47.4 59.6482 46.9378 59.5175 46.4424C59.3904 45.9471 59.406 45.4508 59.5644 44.9536C59.7245 44.4545 60.0219 43.9877 60.4564 43.5531C60.8947 43.1148 61.3623 42.8164 61.8595 42.658C62.3585 42.4978 62.8547 42.4821 63.3482 42.611C63.8454 42.7399 64.3085 43.0188 64.7376 43.4479C65.1666 43.8769 65.4447 44.3391 65.5717 44.8345C65.7025 45.3299 65.6878 45.8271 65.5276 46.3261C65.3693 46.8233 65.071 47.2911 64.6328 47.7294C64.1983 48.164 63.7315 48.4614 63.2325 48.6217C62.7353 48.7801 62.2382 48.7948 61.741 48.6659C61.2475 48.5371 60.7863 48.2581 60.3572 47.829ZM61.2741 46.923C61.4693 47.1182 61.6875 47.2259 61.9288 47.2461C62.1718 47.2645 62.4232 47.2102 62.6828 47.0831C62.9442 46.9579 63.1983 46.7719 63.4451 46.5251C63.6918 46.2783 63.8778 46.0242 64.003 45.7627C64.13 45.503 64.1843 45.2517 64.1659 45.0086C64.1475 44.7655 64.0407 44.5464 63.8455 44.3512C63.6484 44.1542 63.4265 44.0446 63.1798 44.0225C62.9349 44.0023 62.6817 44.0548 62.4203 44.18C62.1606 44.3071 61.9075 44.494 61.6607 44.7408C61.414 44.9875 61.2271 45.2408 61.1001 45.5004C60.9749 45.7619 60.9224 46.0151 60.9427 46.26C60.9666 46.505 61.0771 46.7259 61.2741 46.923ZM63.7072 41.6L65.6793 41.854L66.3146 42.4893L66.5743 44.4671L65.7264 43.6191L65.6075 42.5722L64.5525 42.4452L63.7072 41.6ZM66.7704 43.6909L68.4525 43.3013L69.364 44.2128L67.4361 44.3566L66.7704 43.6909ZM65.1274 52.5992C64.6928 52.1647 64.4111 51.6988 64.2822 51.2016C64.1569 50.7044 64.1753 50.2072 64.3373 49.71C64.5012 49.2146 64.7976 48.7524 65.2267 48.3233C65.6612 47.8886 66.1261 47.5912 66.6214 47.431C67.1204 47.2708 67.6176 47.2542 68.1129 47.3812C68.6101 47.5064 69.0732 47.7835 69.5022 48.2126C69.8724 48.5827 70.1292 48.974 70.2729 49.3865C70.4165 49.799 70.4479 50.2078 70.3669 50.6129C70.2859 51.0181 70.0898 51.3928 69.7786 51.7372L68.6682 50.6268C68.8487 50.3837 68.9361 50.1305 68.9306 49.8672C68.9287 49.6039 68.8201 49.3645 68.6046 49.149C68.4223 48.9667 68.2133 48.8572 67.9776 48.8203C67.7456 48.7835 67.498 48.8213 67.2347 48.9336C66.9714 49.046 66.7062 49.2357 66.4392 49.5027C66.1686 49.7734 65.9752 50.0404 65.8592 50.3038C65.7451 50.569 65.7064 50.8194 65.7433 51.0551C65.7801 51.2908 65.8897 51.4998 66.072 51.6821C66.2064 51.8166 66.3546 51.9095 66.5167 51.9611C66.6806 52.0145 66.85 52.0237 67.0249 51.9887C67.2035 51.9537 67.3784 51.8727 67.5497 51.7456L68.66 52.856C68.3176 53.1617 67.9438 53.3587 67.5387 53.4471C67.1373 53.5356 66.7294 53.5107 66.3151 53.3726C65.9008 53.2345 65.5049 52.9767 65.1274 52.5992Z" fill="white"/>
</g>
<defs>
<linearGradient id="paint0_linear_3070_49023" x1="3.65724" y1="9.43256" x2="3.65724" y2="0.957585" gradientUnits="userSpaceOnUse">
<stop offset="0.00649351" stop-color="#BA192D"/>
<stop offset="1" stop-color="#690E19"/>
</linearGradient>
<linearGradient id="paint1_linear_3070_49023" x1="32.473" y1="46.4684" x2="58.632" y2="3.10495" gradientUnits="userSpaceOnUse">
<stop stop-color="#FF223E"/>
<stop offset="1" stop-color="#B5182C"/>
</linearGradient>
<linearGradient id="paint2_linear_3070_49023" x1="73.4676" y1="71.5091" x2="65.4994" y2="71.5091" gradientUnits="userSpaceOnUse">
<stop stop-color="#690E19"/>
<stop offset="0.9935" stop-color="#BA192D"/>
</linearGradient>
<clipPath id="clip0_3070_49023">
<rect width="75" height="75" fill="white" transform="matrix(-1 0 0 1 75 0)"/>
</clipPath>
</defs>
</svg>
