<svg width="140" height="139" viewBox="0 0 140 139" fill="none" xmlns="http://www.w3.org/2000/svg">
<g clip-path="url(#clip0_2488_32341)">
<path d="M72.1451 0.738241C62.6042 2.45377 60.6488 5.70192 42.777 10.2765C25.0813 14.8064 23.0258 12.6388 17.5232 15.803C1.70122 24.9002 -2.06627 54.6973 2.03712 75.2953C7.27084 101.566 29.2601 136.49 65.6895 138.873C106.589 141.549 137.536 101.366 139.426 66.1035C139.631 62.2901 140.837 30.3374 117.084 11.4622C97.9363 -3.75338 73.6505 0.467521 72.1451 0.738241Z" fill="#FEFDEA"/>
<path d="M64.5057 77.277C64.6782 78.61 65.8523 79.6124 67.2421 79.6124H72.7577C74.1475 79.6124 75.3216 78.61 75.4941 77.277L78.2519 55.949C78.3515 55.1913 78.1065 54.426 77.5839 53.8531C77.0589 53.2805 76.3074 52.9524 75.5156 52.9524H64.4842C63.6923 52.9524 62.9409 53.2805 62.4158 53.8531C61.8933 54.426 61.6482 55.1913 61.7479 55.949L64.5057 77.277ZM69.9999 84.9445C65.4377 84.9445 61.7264 88.5322 61.7264 92.9425C61.7264 97.3528 65.4377 100.94 69.9999 100.94C74.5621 100.94 78.2734 97.3528 78.2734 92.9425C78.2734 88.5322 74.5621 84.9445 69.9999 84.9445Z" fill="white"/>
<g clip-path="url(#clip1_2488_32341)">
<path d="M106.14 65.3299C106.14 85.2898 89.9597 101.47 69.9999 101.47C50.04 101.47 33.8599 85.2898 33.8599 65.3299C33.8599 45.3701 50.04 29.1899 69.9999 29.1899C89.9597 29.1899 106.14 45.3701 106.14 65.3299Z" fill="url(#paint0_linear_2488_32341)"/>
<path d="M88.588 56.7489L83.0075 51.0089C82.2808 50.262 81.1037 50.262 80.377 51.0089L66.8108 64.9618L60.6853 58.6622C59.9586 57.9153 58.7815 57.9153 58.0549 58.6622L52.4743 64.4021C51.7481 65.1495 51.7481 66.3603 52.4743 67.1077L63.6354 78.5876C63.9842 78.9463 64.4574 79.1481 64.9506 79.1481H68.671C69.1642 79.1481 69.6374 78.9463 69.9862 78.5876L88.588 59.4544C89.3142 58.707 89.3142 57.4963 88.588 56.7489Z" fill="white"/>
</g>
<path d="M114.48 87.5699C117.551 87.5699 120.04 85.0807 120.04 82.0099C120.04 78.9392 117.551 76.45 114.48 76.45C111.409 76.45 108.92 78.9392 108.92 82.0099C108.92 85.0807 111.409 87.5699 114.48 87.5699Z" fill="#07CC66"/>
<path d="M36.6402 93.13C38.9441 93.13 40.8102 94.9961 40.8102 97.3C40.8102 99.6039 38.9441 101.47 36.6402 101.47C34.3363 101.47 32.4702 99.6039 32.4702 97.3C32.4702 94.9961 34.3363 93.13 36.6402 93.13Z" fill="#07CC66"/>
<path d="M113.785 45.87C114.936 45.87 115.87 46.8041 115.87 47.955C115.87 49.1059 114.936 50.04 113.785 50.04C112.634 50.04 111.7 49.1059 111.7 47.955C111.7 46.8041 112.634 45.87 113.785 45.87Z" fill="#94D4FF"/>
<path d="M97.105 29.1899C98.2559 29.1899 99.19 30.124 99.19 31.2749C99.19 32.4259 98.2559 33.3599 97.105 33.3599C95.9541 33.3599 95.02 32.4259 95.02 31.2749C95.02 30.124 95.9541 29.1899 97.105 29.1899Z" fill="#94D4FF"/>
<path d="M87.375 105.64C88.526 105.64 89.46 106.574 89.46 107.725C89.46 108.876 88.526 109.81 87.375 109.81C86.2241 109.81 85.29 108.876 85.29 107.725C85.29 106.574 86.2241 105.64 87.375 105.64Z" fill="#94D4FF"/>
<path d="M37.335 36.14C38.4859 36.14 39.42 37.0741 39.42 38.225C39.42 39.3759 38.4859 40.31 37.335 40.31C36.1839 40.31 35.25 39.3759 35.25 38.225C35.25 37.0741 36.1839 36.14 37.335 36.14Z" fill="#94D4FF"/>
<path d="M26.2149 62.55C27.3658 62.55 28.2999 63.4841 28.2999 64.635C28.2999 65.786 27.3658 66.7201 26.2149 66.7201C25.0638 66.7201 24.1299 65.786 24.1299 64.635C24.1299 63.4841 25.0638 62.55 26.2149 62.55Z" fill="#94D4FF"/>
</g>
<defs>
<linearGradient id="paint0_linear_2488_32341" x1="69.9999" y1="29.1899" x2="69.9999" y2="101.47" gradientUnits="userSpaceOnUse">
<stop stop-color="#FFE25A"/>
<stop offset="1" stop-color="#F7C102"/>
</linearGradient>
<clipPath id="clip0_2488_32341">
<rect width="139" height="139" fill="white" transform="translate(0.5)"/>
</clipPath>
<clipPath id="clip1_2488_32341">
<rect width="72.28" height="72.28" fill="white" transform="translate(33.8599 29.1899)"/>
</clipPath>
</defs>
</svg>
