<svg width="98" height="97" viewBox="0 0 98 97" fill="none" xmlns="http://www.w3.org/2000/svg">
<g clip-path="url(#clip0_2061_3685)">
<path d="M0.232155 9.08642V4.67973L0.891899 3.25481C1.17339 2.62152 1.79795 2.14654 2.49288 2.19932C2.88872 2.22571 3.27577 2.40162 3.57485 2.70947L9.67969 9.08642H0.232155Z" fill="#AC0600"/>
<path d="M4.29644 0.0175916C15.0547 0.00879579 43.494 0 43.494 0C46.5289 0 49.4317 1.20502 51.5781 3.3512L93.8809 45.6502C96.0273 47.7963 97.2324 50.6989 97.2324 53.7335C97.2324 53.7335 97.2324 87.008 97.2236 95.1969C97.2236 96.1908 96.4143 97 95.4115 97H93.8281C93.8457 97 94.0129 96.9912 94.0305 96.9912C95.8865 96.613 95.0509 94.8978 94.3032 94.115L79.3402 79.1006L79.3226 79.1094C58.9761 58.7559 38.6207 38.4112 18.2654 18.0578L3.57512 2.7091C3.27604 2.40125 2.88899 2.23413 2.49314 2.19895C1.79821 2.14617 1.17365 2.62115 0.892166 3.25444L0.232422 4.67936V4.08125C0.232422 1.83832 2.04452 0.0175916 4.29644 0.0175916Z" fill="#D70801"/>
<path d="M88.3563 87.9756C91.5143 91.23 94.0565 93.8688 94.0565 93.8688C96.1061 95.8918 95.1297 96.8945 94.0565 97.0001C94.0477 97.0001 91.5055 97.0001 88.3651 97.0001V87.9756H88.3563Z" fill="#AC0600"/>
<path d="M34.0772 12.4834L34.9098 11.653L37.8755 14.627L37.0428 15.4575L34.0772 12.4834ZM38.8357 22.6782L44.8328 16.6969L42.6756 16.1692L43.8304 15.0175L45.9728 15.56L47.0256 16.6157L39.8885 23.734L38.8357 22.6782ZM44.0981 28.2528C43.6137 27.7671 43.2911 27.232 43.1302 26.6477C42.9726 26.0601 42.9734 25.4727 43.1326 24.8855C43.2951 24.3017 43.6192 23.7675 44.1049 23.2831L46.5632 20.8313C47.0489 20.3468 47.5839 20.0242 48.1682 19.8633C48.7558 19.7057 49.3414 19.7081 49.9253 19.8706C50.5124 20.0298 51.0482 20.3523 51.5325 20.838C52.0169 21.3238 52.3379 21.8605 52.4955 22.4481C52.6564 23.0324 52.6556 23.6165 52.4931 24.2004C52.3339 24.7876 52.0115 25.3234 51.5257 25.8078L49.0674 28.2596C48.5817 28.7441 48.0451 29.0651 47.4575 29.2227C46.8733 29.3836 46.2876 29.3844 45.7004 29.2252C45.1166 29.0627 44.5825 28.7386 44.0981 28.2528ZM45.0894 27.2642C45.353 27.5286 45.6547 27.7055 45.9944 27.7951C46.3408 27.8847 46.6856 27.8868 47.0288 27.8015C47.3754 27.7128 47.6826 27.5351 47.9502 27.2681L50.5473 24.6779C50.8116 24.4142 50.9869 24.1109 51.0732 23.7678C51.1627 23.4214 51.1616 23.0766 51.0696 22.7333C50.9843 22.3899 50.8099 22.0861 50.5462 21.8217C50.2826 21.5574 49.9776 21.3804 49.6313 21.2908C49.2916 21.2013 48.9484 21.2008 48.6018 21.2894C48.2585 21.3748 47.9547 21.5493 47.6904 21.8129L45.0933 24.4031C44.8256 24.6701 44.647 24.9767 44.5575 25.3231C44.4712 25.6662 44.4707 26.0094 44.5561 26.3527C44.648 26.696 44.8258 26.9998 45.0894 27.2642ZM56.0885 35.7367C55.8743 35.522 55.7146 35.2693 55.6094 34.9787C55.5075 34.6915 55.4254 34.3977 55.3631 34.0973C55.3041 33.8002 55.2402 33.5246 55.1712 33.2704C55.1056 33.0195 55.0036 32.8247 54.8652 32.6859C54.707 32.5273 54.5239 32.4957 54.3159 32.5911C54.1145 32.6865 53.946 32.8645 53.8103 33.125L52.8613 32.1733C53.116 31.748 53.4117 31.4266 53.7486 31.2093C54.0887 30.9952 54.4386 30.9033 54.7983 30.9335C55.1612 30.967 55.509 31.1506 55.8419 31.4844C56.0528 31.6959 56.2108 31.9469 56.316 32.2374C56.4212 32.528 56.5033 32.8251 56.5622 33.1288C56.6245 33.4291 56.6885 33.7048 56.7541 33.9557C56.8198 34.2066 56.9235 34.403 57.0652 34.5451C57.2134 34.6938 57.3916 34.7238 57.5996 34.635C57.8076 34.5462 57.986 34.3649 58.1349 34.0912L59.0839 35.0429C58.8259 35.4649 58.5269 35.7863 58.1867 36.0069C57.8531 36.2276 57.5032 36.3228 57.137 36.2926C56.7741 36.2591 56.4246 36.0738 56.0885 35.7367ZM61.2666 45.4699C60.8053 45.0073 60.4991 44.4822 60.3481 43.8946C60.2005 43.3037 60.2095 42.708 60.3753 42.1077C60.5444 41.5106 60.8735 40.9682 61.3625 40.4805L63.6375 38.2115C64.1562 37.6941 64.7193 37.3468 65.3267 37.1694C65.9373 36.9953 66.5428 36.9912 67.1432 37.157C67.7468 37.3262 68.299 37.6619 68.7999 38.1641C69.1755 38.5409 69.4571 38.9653 69.6445 39.4374C69.8319 39.9096 69.9055 40.4063 69.8652 40.9277L68.4002 40.8762C68.4402 40.566 68.4093 40.2575 68.3074 39.9504C68.2122 39.6434 68.0492 39.3742 67.8185 39.1429C67.522 38.8455 67.1906 38.6553 66.8245 38.5723C66.4616 38.486 66.1019 38.4921 65.7454 38.5906C65.3922 38.6924 65.0851 38.8735 64.8241 39.1339L63.5156 40.4389L63.541 40.0082C64.0129 39.9462 64.4781 39.9897 64.9365 40.1389C65.395 40.288 65.7972 40.536 66.1432 40.883C66.5848 41.3258 66.8745 41.8245 67.0123 42.3791C67.1567 42.9337 67.151 43.4864 66.9952 44.0373C66.8426 44.5915 66.545 45.0894 66.1022 45.531C65.6561 45.9759 65.1393 46.2672 64.5518 46.405C63.9709 46.5428 63.3868 46.5321 62.7997 46.3729C62.2192 46.2137 61.7082 45.9127 61.2666 45.4699ZM62.2628 44.4763C62.5198 44.7341 62.8166 44.9061 63.153 44.9923C63.4895 45.0786 63.826 45.0791 64.1627 44.9937C64.4994 44.9084 64.7966 44.7372 65.0543 44.4801C65.3121 44.2231 65.4841 43.9263 65.5703 43.5899C65.6599 43.2567 65.662 42.9217 65.5766 42.585C65.4913 42.2483 65.3201 41.9511 65.0631 41.6933C64.8061 41.4356 64.5077 41.2619 64.168 41.1723C63.8315 41.0861 63.4949 41.0856 63.1582 41.171C62.8216 41.2563 62.5244 41.4275 62.2666 41.6845C62.0122 41.9383 61.8419 42.2334 61.7556 42.5699C61.6694 42.9064 61.6673 43.2446 61.7493 43.5846C61.8346 43.9213 62.0058 44.2186 62.2628 44.4763ZM67.441 51.6618C66.9566 51.176 66.634 50.641 66.4731 50.0567C66.3155 49.4691 66.3163 48.8817 66.4755 48.2945C66.638 47.7106 66.9621 47.1765 67.4478 46.692L69.9061 44.2402C70.3919 43.7558 70.9268 43.4331 71.5111 43.2722C72.0987 43.1146 72.6844 43.1171 73.2682 43.2796C73.8553 43.4388 74.3911 43.7612 74.8755 44.247C75.3598 44.7328 75.6808 45.2694 75.8384 45.8571C75.9993 46.4414 75.9985 47.0255 75.836 47.6094C75.6768 48.1965 75.3544 48.7323 74.8687 49.2168L72.4103 51.6686C71.9246 52.153 71.388 52.474 70.8004 52.6316C70.2162 52.7925 69.6305 52.7934 69.0433 52.6342C68.4595 52.4717 67.9254 52.1476 67.441 51.6618ZM68.4323 50.6732C68.6959 50.9375 68.9976 51.1145 69.3373 51.204C69.6837 51.2936 70.0285 51.2957 70.3718 51.2104C70.7183 51.1218 71.0255 50.944 71.2931 50.6771L73.8902 48.0868C74.1545 47.8232 74.3298 47.5198 74.4161 47.1768C74.5057 46.8304 74.5045 46.4855 74.4126 46.1422C74.3272 45.7989 74.1528 45.4951 73.8892 45.2307C73.6255 44.9663 73.3206 44.7894 72.9742 44.6998C72.6345 44.6102 72.2913 44.6098 71.9447 44.6984C71.6014 44.7837 71.2976 44.9582 71.0333 45.2218L68.4362 47.8121C68.1686 48.079 67.99 48.3857 67.9004 48.732C67.8141 49.0751 67.8137 49.4183 67.899 49.7616C67.9909 50.105 68.1687 50.4088 68.4323 50.6732ZM72.3407 56.2779L72.3426 54.8919L85.2163 54.9145L85.2094 56.3054L72.3407 56.2779ZM77.1397 61.3879C76.8135 61.0608 76.5946 60.6826 76.483 60.2535C76.378 59.8243 76.3785 59.3953 76.4847 58.9665C76.5942 58.5343 76.8142 58.1535 77.1446 57.8239C77.4684 57.501 77.8481 57.287 78.2838 57.182C78.7195 57.077 79.1535 57.0792 79.5856 57.1887C80.0177 57.2982 80.3919 57.5116 80.7082 57.8288C81.0345 58.156 81.2517 58.5358 81.36 58.9682C81.4716 59.3974 81.471 59.8264 81.3582 60.2552C81.2521 60.684 81.0338 61.0632 80.7034 61.3928C80.3729 61.7223 79.9915 61.9413 79.5591 62.0496C79.1333 62.1579 78.7044 62.1573 78.2722 62.0478C77.8434 61.935 77.4659 61.7151 77.1397 61.3879ZM78.0368 60.4932C78.1983 60.6551 78.3845 60.7626 78.5956 60.8157C78.8134 60.8688 79.0295 60.8675 79.244 60.8117C79.4619 60.7592 79.6501 60.6538 79.8087 60.4956C79.9673 60.3374 80.0732 60.1495 80.1263 59.9318C80.1826 59.7173 80.1829 59.5028 80.1271 59.2883C80.0779 59.0737 79.9726 58.8855 79.8111 58.7235C79.653 58.5649 79.465 58.4591 79.2473 58.406C79.0362 58.3529 78.8217 58.3526 78.6039 58.4051C78.3893 58.4609 78.2028 58.5679 78.0442 58.7261C77.8856 58.8843 77.7781 59.0706 77.7217 59.285C77.6686 59.5027 77.6666 59.7189 77.7158 59.9334C77.7716 60.148 77.8786 60.3346 78.0368 60.4932ZM76.8488 53.3636C76.5225 53.0365 76.3036 52.6583 76.192 52.2292C76.0837 51.7967 76.0827 51.3661 76.1888 50.9372C76.3016 50.5084 76.5232 50.1292 76.8536 49.7996C77.1774 49.4767 77.5572 49.2627 77.9929 49.1577C78.4286 49.0527 78.8625 49.0549 79.2946 49.1644C79.7267 49.2739 80.1009 49.4873 80.4173 49.8045C80.7435 50.1317 80.9591 50.5098 81.0641 50.9389C81.1757 51.3681 81.1768 51.7987 81.0673 52.2309C80.9611 52.6597 80.7428 53.0389 80.4124 53.3685C80.082 53.698 79.7006 53.917 79.2682 54.0253C78.8391 54.1303 78.4085 54.128 77.9764 54.0186C77.5508 53.9091 77.175 53.6908 76.8488 53.3636ZM77.7458 52.4689C77.904 52.6275 78.0903 52.735 78.3047 52.7914C78.5224 52.8445 78.7385 52.8431 78.9531 52.7873C79.1709 52.7348 79.3592 52.6295 79.5178 52.4713C79.6764 52.3131 79.7822 52.1252 79.8353 51.9075C79.8917 51.693 79.892 51.4785 79.8362 51.264C79.7837 51.0461 79.6784 50.8578 79.5202 50.6992C79.362 50.5406 79.1741 50.4348 78.9564 50.3817C78.7453 50.3286 78.5308 50.3283 78.3129 50.3808C78.0951 50.4333 77.9069 50.5386 77.7483 50.6968C77.5897 50.855 77.4838 51.0429 77.4307 51.2607C77.3776 51.4784 77.3757 51.6945 77.4249 51.9091C77.4774 52.1204 77.5844 52.307 77.7458 52.4689Z" fill="white"/>
</g>
<defs>
<clipPath id="clip0_2061_3685">
<rect width="97" height="97" fill="white" transform="matrix(-1 0 0 1 97.2324 0)"/>
</clipPath>
</defs>
</svg>
