<svg width="100" height="100" viewBox="0 0 100 100" fill="none" xmlns="http://www.w3.org/2000/svg">
<circle cx="50" cy="50" r="49" stroke="black" stroke-width="2"/>
<circle cx="49.9996" cy="50" r="35.3659" fill="#F0F0F0"/>
<path d="M44.3775 62.221H55.6348C57.5213 62.221 58.734 61.0818 58.832 59.1953L59.6527 41.5559H61.0001C61.6249 41.5559 62.1026 41.066 62.1026 40.4535C62.1026 39.841 61.6126 39.3755 61.0001 39.3755H55.5613V37.5381C55.5613 35.6517 54.3609 34.5492 52.3152 34.5492H47.6604C45.6147 34.5492 44.4142 35.6517 44.4142 37.5381V39.3755H38.9999C38.3874 39.3755 37.8975 39.8533 37.8975 40.4535C37.8975 41.0782 38.3874 41.5559 38.9999 41.5559H40.3474L41.1681 59.1953C41.2661 61.094 42.4665 62.221 44.3775 62.221ZM46.7049 37.6483C46.7049 37.0236 47.1459 36.6194 47.8196 36.6194H52.156C52.8297 36.6194 53.2707 37.0236 53.2707 37.6483V39.3755H46.7049V37.6483ZM44.6225 60.0283C43.9487 60.0283 43.4588 59.5261 43.422 58.8033L42.6013 41.5559H57.362L56.5658 58.8033C56.5413 59.5383 56.0636 60.0283 55.3653 60.0283H44.6225ZM46.3864 58.0561C46.9131 58.0561 47.2439 57.7254 47.2316 57.2354L46.8641 44.4223C46.8519 43.9324 46.5089 43.6139 46.0067 43.6139C45.4922 43.6139 45.1615 43.9446 45.1737 44.4346L45.5412 57.2476C45.5534 57.7376 45.8964 58.0561 46.3864 58.0561ZM50 58.0561C50.5145 58.0561 50.8698 57.7376 50.8698 57.2476V44.4346C50.8698 43.9446 50.5145 43.6139 50 43.6139C49.4855 43.6139 49.1426 43.9446 49.1426 44.4346V57.2476C49.1426 57.7376 49.4855 58.0561 50 58.0561ZM53.6137 58.0684C54.1036 58.0684 54.4466 57.7376 54.4589 57.2476L54.8264 44.4346C54.8386 43.9446 54.5079 43.6261 53.9934 43.6261C53.4912 43.6261 53.1482 43.9446 53.1359 44.4346L52.7684 57.2476C52.7562 57.7254 53.0869 58.0684 53.6137 58.0684Z" fill="#1C1C1E"/>
</svg>
