<svg width="23" height="23" viewBox="0 0 23 23" fill="none" xmlns="http://www.w3.org/2000/svg">
<path d="M0 5.33333C0 2.38781 2.38781 0 5.33333 0H17.6667C20.6122 0 23 2.38781 23 5.33333V17.6667C23 20.6122 20.6122 23 17.6667 23H5.33333C2.38781 23 0 20.6122 0 17.6667V5.33333Z" fill="black"/>
<path fill-rule="evenodd" clip-rule="evenodd" d="M9.2777 4.8335C8.4595 4.8335 7.79622 5.46187 7.79622 6.237V7.64051H7.05547H5.57399C5.16489 7.64051 4.83325 7.9547 4.83325 8.34227C4.83325 8.72983 5.16489 9.04402 5.57399 9.04402H6.32363L6.42229 16.7803C6.43209 17.5487 7.09244 18.1668 7.90366 18.1668H15.2036C16.0218 18.1668 16.6851 17.5385 16.6851 16.7633V9.04402H17.4258C17.8349 9.04402 18.1666 8.72983 18.1666 8.34227C18.1666 7.9547 17.8349 7.64051 17.4258 7.64051H15.9444H15.2036V6.237C15.2036 5.46187 14.5403 4.8335 13.7221 4.8335H9.2777ZM13.7221 7.64051V6.237H9.2777V7.64051H13.7221ZM9.2777 9.04402H7.80522L7.90366 16.7633L15.2036 16.7633V9.04402H13.7221H9.2777ZM10.7592 10.4475C10.7592 10.06 10.4275 9.74577 10.0184 9.74577C9.60934 9.74577 9.2777 10.06 9.2777 10.4475V14.6581C9.2777 15.0456 9.60934 15.3598 10.0184 15.3598C10.4275 15.3598 10.7592 15.0456 10.7592 14.6581V10.4475ZM12.9814 9.74577C13.3905 9.74577 13.7221 10.06 13.7221 10.4475V14.6581C13.7221 15.0456 13.3905 15.3598 12.9814 15.3598C12.5723 15.3598 12.2407 15.0456 12.2407 14.6581V10.4475C12.2407 10.06 12.5723 9.74577 12.9814 9.74577Z" fill="white"/>
</svg>
