<svg width="30" height="30" viewBox="0 0 30 30" fill="none" xmlns="http://www.w3.org/2000/svg">
<path d="M30 23.5711C30 24.5506 29.2061 25.3446 28.2267 25.3446H1.77334C0.793945 25.3446 0 24.5506 0 23.5711V6.42867C0 5.44922 0.793945 4.65527 1.77334 4.65527H28.2267C29.2061 4.65527 30 5.44928 30 6.42867V23.5711Z" fill="white"/>
<path d="M6.65848 15.1191L5.95406 11.7399C5.83365 11.2739 5.48326 11.1353 5.04545 11.1169H1.81588L1.78711 11.2713C4.30248 11.8811 5.96684 13.3522 6.65848 15.1191Z" fill="#666666"/>
<path d="M14.1419 11.1851H12.0552L10.752 18.8331H12.8352L14.1419 11.1851Z" fill="#333333"/>
<path d="M7.93021 18.8254L11.2121 11.1902H9.00359L6.96201 16.4067L6.7441 15.6191C6.34391 14.6715 5.20016 13.3078 3.85742 12.4492L5.72363 18.8279L7.93021 18.8254Z" fill="#333333"/>
<path d="M20.0942 16.333C20.102 15.4647 19.5445 14.8024 18.343 14.2554C17.6129 13.902 17.1679 13.6664 17.1732 13.3079C17.1732 12.9911 17.5501 12.6509 18.3667 12.6509C19.0499 12.6404 19.5419 12.7896 19.9267 12.944L20.1152 13.0304L20.398 11.3736C19.9844 11.2191 19.3378 11.0542 18.5291 11.0542C16.4692 11.0542 15.0191 12.0908 15.006 13.5775C14.9929 14.6769 16.0427 15.2894 16.833 15.6557C17.6444 16.0292 17.9166 16.2682 17.9114 16.6033C17.9062 17.1155 17.2648 17.3492 16.6654 17.3492C15.8305 17.3492 15.3881 17.234 14.702 16.9482L14.4354 16.8257L14.1426 18.5396C14.6291 18.7522 15.5294 18.938 16.4639 18.9458C18.6546 18.9458 20.0785 17.9224 20.0942 16.333Z" fill="#333333"/>
<path d="M22.5731 17.6867C22.8113 17.6867 24.9393 17.6893 25.243 17.6893C25.3058 17.9556 25.4969 18.8357 25.4969 18.8357H27.4311L25.7429 11.1929H24.1332C23.6332 11.1929 23.2617 11.329 23.0417 11.8262L19.9453 18.8357H22.1362C22.1361 18.8357 22.492 17.8936 22.5731 17.6867ZM24.0022 13.983C23.9919 14.0039 24.175 13.5407 24.2797 13.2527L24.421 13.9123C24.421 13.9123 24.819 15.7393 24.9026 16.1215H23.1725C23.3453 15.6818 24.0022 13.983 24.0022 13.983Z" fill="#333333"/>
<path d="M28.2267 4.65527H1.77334C0.793945 4.65527 0 5.44922 0 6.42867V8.26922H30V6.42867C30 5.44922 29.2061 4.65527 28.2267 4.65527Z" fill="url(#paint0_linear_3570_48686)"/>
<path d="M28.2267 25.3447H1.77334C0.793945 25.3447 0 24.5507 0 23.5713V21.7307H30V23.5713C30 24.5507 29.2061 25.3447 28.2267 25.3447Z" fill="url(#paint1_linear_3570_48686)"/>
<path opacity="0.15" d="M1.26076 23.5711V6.42867C1.26076 5.44922 2.05477 4.65527 3.03422 4.65527H1.77328C0.793945 4.65527 0 5.44922 0 6.42867V23.5712C0 24.5506 0.793945 25.3446 1.77334 25.3446H3.03428C2.05482 25.3446 1.26076 24.5506 1.26076 23.5711Z" fill="#202121"/>
<defs>
<linearGradient id="paint0_linear_3570_48686" x1="15" y1="4.65527" x2="15" y2="8.26922" gradientUnits="userSpaceOnUse">
<stop stop-color="#FFE25A"/>
<stop offset="1" stop-color="#F7C102"/>
</linearGradient>
<linearGradient id="paint1_linear_3570_48686" x1="15" y1="21.7307" x2="15" y2="25.3447" gradientUnits="userSpaceOnUse">
<stop stop-color="#FFE25A"/>
<stop offset="1" stop-color="#F7C102"/>
</linearGradient>
</defs>
</svg>
