<svg width="50" height="50" viewBox="0 0 50 50" fill="none" xmlns="http://www.w3.org/2000/svg">
<path d="M13.8125 29.4375C12.3438 29.4375 10.9844 29.9531 9.90625 30.8125C8.46875 31.9531 7.5625 33.7188 7.5625 35.6875C7.5625 36.8594 7.89063 37.9687 8.46875 38.9062C9.54688 40.7187 11.5312 41.9375 13.8125 41.9375C15.3906 41.9375 16.8281 41.3594 17.9219 40.375C18.4063 39.9688 18.8281 39.4687 19.1562 38.9062C19.7344 37.9687 20.0625 36.8594 20.0625 35.6875C20.0625 32.2344 17.2656 29.4375 13.8125 29.4375ZM17.0469 35.0156L13.7188 38.0937C13.5 38.2968 13.2031 38.4062 12.9219 38.4062C12.625 38.4062 12.3281 38.2969 12.0937 38.0625L10.5469 36.5157C10.0938 36.0625 10.0938 35.3125 10.5469 34.8593C11 34.4062 11.75 34.4062 12.2031 34.8593L12.9531 35.6094L15.4531 33.2968C15.9219 32.8593 16.6719 32.8906 17.1094 33.3594C17.5469 33.8281 17.5156 34.5781 17.0469 35.0156Z" fill="#0066CC"/>
<path opacity="0.4" d="M36.4375 26.2344H39.5938V23.9844C39.5938 20.75 36.9531 18.1094 33.7188 18.1094H15.7812C12.5469 18.1094 9.90625 20.75 9.90625 23.9844V30.8125C10.9844 29.9531 12.3438 29.4375 13.8125 29.4375C17.2656 29.4375 20.0625 32.2344 20.0625 35.6875C20.0625 36.8594 19.7344 37.9687 19.1562 38.9062C18.8281 39.4687 18.4063 39.9688 17.9219 40.375H33.7188C36.9531 40.375 39.5938 37.7344 39.5938 34.5V32.6406H36.625C34.9375 32.6406 33.3906 31.4062 33.25 29.7187C33.1563 28.7344 33.5312 27.8125 34.1875 27.1719C34.7656 26.5781 35.5625 26.2344 36.4375 26.2344Z" fill="#1A1A1A"/>
<path d="M29.2031 12.1722V18.1096H15.7812C12.5469 18.1096 9.90625 20.7503 9.90625 23.9847V18.2503C9.90625 16.3909 11.0469 14.7346 12.7812 14.0784L25.1875 9.39086C27.125 8.67211 29.2031 10.094 29.2031 12.1722Z" fill="#1A1A1A"/>
<path d="M41.2511 27.8281V31.0469C41.2511 31.9063 40.5636 32.6093 39.6886 32.6406H36.6261C34.9386 32.6406 33.3917 31.4062 33.2511 29.7187C33.1573 28.7343 33.5323 27.8125 34.1886 27.1718C34.7667 26.5781 35.5636 26.2344 36.4386 26.2344H39.6886C40.5636 26.2656 41.2511 26.9687 41.2511 27.8281Z" fill="#1A1A1A"/>
<path d="M27.875 25.9219H16.9375C16.2969 25.9219 15.7656 25.3906 15.7656 24.75C15.7656 24.1094 16.2969 23.5781 16.9375 23.5781H27.875C28.5156 23.5781 29.0469 24.1094 29.0469 24.75C29.0469 25.3906 28.5156 25.9219 27.875 25.9219Z" fill="#1A1A1A"/>
</svg>
