<svg width="50" height="50" viewBox="0 0 50 50" fill="none" xmlns="http://www.w3.org/2000/svg">
<path d="M13.8125 29.4375C12.3438 29.4375 10.9844 29.9531 9.90625 30.8125C8.46875 31.9531 7.5625 33.7188 7.5625 35.6875C7.5625 39.1406 10.3594 41.9375 13.8125 41.9375C15.3906 41.9375 16.8281 41.3438 17.9375 40.375C19.2344 39.2344 20.0625 37.5625 20.0625 35.6875C20.0625 32.2344 17.2656 29.4375 13.8125 29.4375ZM15.375 36.0781C15.375 36.4844 15.1562 36.875 14.8125 37.0781L12.8594 38.25C12.6719 38.3594 12.4688 38.4219 12.25 38.4219C11.8594 38.4219 11.4688 38.2188 11.25 37.8594C10.9219 37.2969 11.0937 36.5781 11.6562 36.25L13.0469 35.4219V33.7344C13.0469 33.0938 13.5781 32.5625 14.2187 32.5625C14.8594 32.5625 15.3906 33.0938 15.3906 33.7344V36.0781H15.375Z" fill="#FDD116"/>
<path opacity="0.4" d="M36.4375 26.2344H39.5938V23.9844C39.5938 20.75 36.9531 18.1094 33.7188 18.1094H15.7812C12.5469 18.1094 9.90625 20.75 9.90625 23.9844V30.8125C10.9844 29.9531 12.3438 29.4375 13.8125 29.4375C17.2656 29.4375 20.0625 32.2344 20.0625 35.6875C20.0625 36.8594 19.7344 37.9687 19.1562 38.9062C18.8281 39.4687 18.4063 39.9688 17.9219 40.375H33.7188C36.9531 40.375 39.5938 37.7344 39.5938 34.5V32.6406H36.625C34.9375 32.6406 33.3906 31.4062 33.25 29.7187C33.1563 28.7344 33.5312 27.8125 34.1875 27.1719C34.7656 26.5781 35.5625 26.2344 36.4375 26.2344Z" fill="#1A1A1A"/>
<path d="M29.2031 12.1722V18.1096H15.7812C12.5469 18.1096 9.90625 20.7503 9.90625 23.9847V18.2503C9.90625 16.3909 11.0469 14.7346 12.7812 14.0784L25.1875 9.39086C27.125 8.67211 29.2031 10.094 29.2031 12.1722Z" fill="#1A1A1A"/>
<path d="M41.2496 27.8281V31.0469C41.2496 31.9063 40.5621 32.6093 39.6871 32.6406H36.6246C34.9371 32.6406 33.3902 31.4062 33.2496 29.7187C33.1559 28.7343 33.5308 27.8125 34.1871 27.1718C34.7652 26.5781 35.5621 26.2344 36.4371 26.2344H39.6871C40.5621 26.2656 41.2496 26.9687 41.2496 27.8281Z" fill="#1A1A1A"/>
<path d="M27.875 25.9219H16.9375C16.2969 25.9219 15.7656 25.3906 15.7656 24.75C15.7656 24.1094 16.2969 23.5781 16.9375 23.5781H27.875C28.5156 23.5781 29.0469 24.1094 29.0469 24.75C29.0469 25.3906 28.5156 25.9219 27.875 25.9219Z" fill="#1A1A1A"/>
</svg>
