<svg width="30" height="30" viewBox="0 0 30 30" fill="none" xmlns="http://www.w3.org/2000/svg">
<path d="M10.6256 6L22.5 2.42698L21.8712 1.0258C21.4597 0.115029 20.4563 -0.261078 19.6301 0.192463L9 6H10.6256Z" fill="#888888"/>
<path d="M22.5598 2.25C22.4088 2.25 22.2577 2.27391 22.1067 2.32173L19.2437 3.23034L10.5 6H20.4245H24.75L24.2145 3.72051C24.0085 2.83183 23.315 2.25 22.5598 2.25Z" fill="#888888"/>
<path d="M26.5873 5.70117H26.2033H25.6811H25.1589H21.1735H6.52892H4.60865H2.99158H2.69175H1.68782C1.15553 5.70117 0.680517 5.94613 0.370578 6.33201C0.229085 6.50986 0.12128 6.71455 0.0606401 6.93937C0.0235823 7.0803 0 7.22794 0 7.37894V7.58027V9.49293V26.0726C0 26.9988 0.754632 27.7504 1.68445 27.7504H26.5839C27.5138 27.7504 28.2684 26.9988 28.2684 26.0726V21.3917H18.2729C16.6929 21.3917 15.4093 20.1132 15.4093 18.5395V17.0026V16.4825V15.9624V14.8081C15.4093 14.0363 15.7192 13.3351 16.2212 12.8217C16.6659 12.3653 17.2622 12.0566 17.9293 11.9794C18.0404 11.966 18.155 11.9593 18.2695 11.9593H26.8669H27.3891H27.9113H28.2684V7.37894C28.2718 6.45281 27.5171 5.70117 26.5873 5.70117Z" fill="url(#paint0_linear_3570_48655)"/>
<path d="M29.4504 13.5606C29.2819 13.4063 29.0832 13.2888 28.8608 13.2117C28.689 13.1546 28.5071 13.1211 28.3151 13.1211H28.2713H28.2376H27.7154H25.8322H18.2723C17.3425 13.1211 16.5879 13.8727 16.5879 14.7989V15.6344V16.1545V16.6746V18.5335C16.5879 19.4597 17.3425 20.2113 18.2723 20.2113H28.2713H28.3151C28.5071 20.2113 28.689 20.1778 28.8608 20.1207C29.0832 20.0469 29.2819 19.9261 29.4504 19.7717C29.7873 19.4664 29.9995 19.0235 29.9995 18.5336V14.7989C29.9995 14.3089 29.7873 13.866 29.4504 13.5606ZM21.7895 17.0001C21.7895 17.4631 21.4122 17.8389 20.9473 17.8389H20.388C19.9231 17.8389 19.5458 17.4631 19.5458 17.0001V16.443C19.5458 16.1746 19.6704 15.9363 19.8692 15.7853C20.0141 15.6746 20.1927 15.6042 20.388 15.6042H20.5295H20.9473C21.4122 15.6042 21.7895 15.9799 21.7895 16.443V17.0001Z" fill="#FDD116"/>
<defs>
<linearGradient id="paint0_linear_3570_48655" x1="14.1342" y1="5.70117" x2="14.1342" y2="27.7504" gradientUnits="userSpaceOnUse">
<stop stop-color="#FFE25A"/>
<stop offset="1" stop-color="#F7C102"/>
</linearGradient>
</defs>
</svg>
