<svg width="50" height="50" viewBox="0 0 50 50" fill="none" xmlns="http://www.w3.org/2000/svg">
<path d="M38.1429 31.2862V38.0545H12.9197C12.0268 38.0545 11.3571 37.3584 11.3571 36.4301V17.7884C12.0268 18.1751 12.7708 18.4072 13.5893 18.4072H38.1057V24.9821H40.3378V17.2469C40.3378 16.5894 39.8542 16.0867 39.2218 16.0867H36.5432V10.2852C36.5432 9.62772 36.0596 9.125 35.4272 9.125H13.5893C11.1339 9.12493 9.125 11.2135 9.125 13.766C9.125 13.8434 9.125 13.9594 9.125 14.0368V36.4301C9.125 38.5959 10.8363 40.375 12.9197 40.375H39.259C39.8914 40.375 40.375 39.8722 40.375 39.2148V31.2862H38.1429ZM13.5893 11.4455H34.311V12.6444H13.6265C12.994 12.6444 12.5104 13.1472 12.5104 13.8047C12.5104 14.4621 12.9941 14.9649 13.6265 14.9649H34.311V16.0865H13.5893C12.3244 16.0865 11.3571 15.0809 11.3571 13.766C11.3571 12.451 12.3244 11.4455 13.5893 11.4455Z" fill="#222631"/>
<path d="M27.0625 27.1875C27.0625 25.3926 28.5176 23.9375 30.3125 23.9375H39.625V31.8125H30.3125C28.5176 31.8125 27.0625 30.3574 27.0625 28.5625V27.1875Z" stroke="url(#paint0_linear_4138_10553)" stroke-width="1.5"/>
<defs>
<linearGradient id="paint0_linear_4138_10553" x1="33.3438" y1="23.1875" x2="33.3438" y2="32.5625" gradientUnits="userSpaceOnUse">
<stop offset="0.0349758" stop-color="#FFD600"/>
<stop offset="0.966035" stop-color="#FFC200"/>
</linearGradient>
</defs>
</svg>
