<svg width="841" height="128" viewBox="0 0 841 128" fill="none" xmlns="http://www.w3.org/2000/svg">
<g clip-path="url(#clip0_1283_23073)">
<rect width="841" height="128" rx="4" fill="#0A0A0A"/>
<g filter="url(#filter0_f_1283_23073)">
<ellipse cx="797.355" cy="44.8879" rx="110.888" ry="110.355" transform="rotate(90 797.355 44.8879)" fill="#F4D15E" fill-opacity="0.5"/>
</g>
<path d="M270.456 175.753L178.521 175.753C163.537 175.753 149.161 170.437 138.562 160.965L84.8416 112.962C83.0426 111.354 84.3198 108.613 86.8586 108.613H159.293C181.745 108.613 203.247 116.706 218.932 131.062C220.248 132.266 222.538 131.438 222.538 129.754L222.662 52.3627C222.67 48.3403 228.114 46.3292 231.299 49.1754L297.822 108.62L300.486 111C327.221 134.89 308.281 175.753 270.456 175.753Z" fill="white" fill-opacity="0.16"/>
<path d="M310.143 32.8294L237.592 32.8294C215.132 32.8294 193.622 24.736 177.93 10.3865C176.613 9.18257 174.324 10.0177 174.324 11.7017V89.0584C174.324 93.0877 168.872 95.1058 165.687 92.2526L96.5238 30.4494C69.7805 6.55206 88.7359 -34.3184 126.561 -34.3184L218.512 -34.3184C233.48 -34.3184 247.848 -29.0017 258.44 -19.5513L312.168 28.48C313.951 30.0875 312.682 32.8294 310.143 32.8294Z" fill="white" fill-opacity="0.16"/>
</g>
<defs>
<filter id="filter0_f_1283_23073" x="567" y="-186" width="460.709" height="461.775" filterUnits="userSpaceOnUse" color-interpolation-filters="sRGB">
<feFlood flood-opacity="0" result="BackgroundImageFix"/>
<feBlend mode="normal" in="SourceGraphic" in2="BackgroundImageFix" result="shape"/>
<feGaussianBlur stdDeviation="60" result="effect1_foregroundBlur_1283_23073"/>
</filter>
<clipPath id="clip0_1283_23073">
<rect width="841" height="128" rx="4" fill="white"/>
</clipPath>
</defs>
</svg>
