<svg width="50" height="50" viewBox="0 0 50 50" fill="none" xmlns="http://www.w3.org/2000/svg">
<path opacity="0.4" d="M36.4375 26.2344H39.5938V23.9844C39.5938 20.75 36.9531 18.1094 33.7188 18.1094H15.7812C12.5469 18.1094 9.90625 20.75 9.90625 23.9844V34.5C9.90625 37.7344 12.5469 40.375 15.7812 40.375H33.7188C36.9531 40.375 39.5938 37.7344 39.5938 34.5V32.6406H36.625C34.9375 32.6406 33.3906 31.4062 33.25 29.7187C33.1562 28.7344 33.5313 27.8125 34.1875 27.1719C34.7656 26.5781 35.5625 26.2344 36.4375 26.2344ZM16.3125 38.1563C16.0781 38.375 15.7812 38.4843 15.4844 38.4843C15.1875 38.4843 14.8906 38.375 14.6563 38.1563L13.8281 37.3281L12.9687 38.1875C12.7344 38.4218 12.4375 38.5313 12.1406 38.5313C11.8438 38.5313 11.5469 38.4218 11.3125 38.1875C10.8594 37.7343 10.8594 36.9843 11.3125 36.5312L12.1719 35.6719L11.3437 34.8438C10.8906 34.3907 10.8906 33.6407 11.3437 33.1875C11.8125 32.7344 12.5469 32.7344 13.0156 33.1875L13.8281 34.0156L14.6094 33.2187C15.0781 32.7656 15.8125 32.7656 16.2813 33.2187C16.7344 33.6875 16.7344 34.4219 16.2813 34.8906L15.4844 35.6719L16.3125 36.4844C16.7656 36.9531 16.7656 37.6875 16.3125 38.1563Z" fill="#1A1A1A"/>
<path d="M29.2031 12.1722V18.1096H15.7812C12.5469 18.1096 9.90625 20.7503 9.90625 23.9847V18.2503C9.90625 16.3909 11.0469 14.7346 12.7813 14.0784L25.1875 9.39086C27.125 8.67211 29.2031 10.094 29.2031 12.1722Z" fill="#1A1A1A"/>
<path d="M41.2511 27.8281V31.0469C41.2511 31.9063 40.5636 32.6093 39.6886 32.6406H36.6261C34.9386 32.6406 33.3917 31.4062 33.2511 29.7187C33.1573 28.7343 33.5323 27.8125 34.1886 27.1718C34.7667 26.5781 35.5636 26.2344 36.4386 26.2344H39.6886C40.5636 26.2656 41.2511 26.9687 41.2511 27.8281Z" fill="#1A1A1A"/>
<path d="M27.875 25.9219H16.9375C16.2969 25.9219 15.7656 25.3906 15.7656 24.75C15.7656 24.1094 16.2969 23.5781 16.9375 23.5781H27.875C28.5156 23.5781 29.0469 24.1094 29.0469 24.75C29.0469 25.3906 28.5156 25.9219 27.875 25.9219Z" fill="#1A1A1A"/>
<path d="M13.8125 29.4375C12.3438 29.4375 10.9844 29.9531 9.90625 30.8125C8.46875 31.9531 7.5625 33.7188 7.5625 35.6875C7.5625 36.8594 7.89063 37.9687 8.46875 38.9062C9.54688 40.7187 11.5312 41.9375 13.8125 41.9375C15.3906 41.9375 16.8281 41.3594 17.9219 40.375C18.4063 39.9688 18.8281 39.4687 19.1562 38.9062C19.7344 37.9687 20.0625 36.8594 20.0625 35.6875C20.0625 32.2344 17.2656 29.4375 13.8125 29.4375ZM11.3437 34.8438C10.8906 34.3907 10.8906 33.6407 11.3437 33.1875C11.8125 32.7344 12.5469 32.7344 13.0156 33.1875L13.8281 34.0156L14.6094 33.2187C15.0781 32.7656 15.8125 32.7656 16.2813 33.2187C16.7344 33.6875 16.7344 34.4219 16.2813 34.8906L15.4844 35.6719L16.3125 36.4844C16.7656 36.9531 16.7656 37.6875 16.3125 38.1563C16.0781 38.375 15.7812 38.4843 15.4844 38.4843C15.1875 38.4843 14.8906 38.375 14.6563 38.1563L13.8281 37.3281L12.9687 38.1875C12.7344 38.4218 12.4375 38.5313 12.1406 38.5313C11.8438 38.5313 11.5469 38.4218 11.3125 38.1875C10.8594 37.7343 10.8594 36.9843 11.3125 36.5312L12.1719 35.6719L11.3437 34.8438Z" fill="#FE564B"/>
</svg>
