<svg width="32" height="32" viewBox="0 0 32 32" fill="none" xmlns="http://www.w3.org/2000/svg">
<g clip-path="url(#clip0_4708_1404)">
<path d="M26.2764 31.4545C19.4473 32.1831 12.56 32.1831 5.73091 31.4545C4.40476 31.3145 3.16668 30.7241 2.22308 29.7818C1.27947 28.8396 0.687362 27.6023 0.545458 26.2764C-0.183121 19.4473 -0.183121 12.56 0.545458 5.73091C0.685501 4.40476 1.27588 3.16668 2.21816 2.22308C3.16044 1.27947 4.39769 0.687362 5.72364 0.545458C12.5527 -0.183121 19.44 -0.183121 26.2691 0.545458C27.5952 0.685501 28.8333 1.27588 29.7769 2.21816C30.7205 3.16044 31.3126 4.39769 31.4545 5.72364C32.1831 12.5527 32.1831 19.44 31.4545 26.2691C31.3145 27.5952 30.7241 28.8333 29.7818 29.7769C28.8396 30.7205 27.6023 31.3126 26.2764 31.4545V31.4545Z" fill="#E60000"/>
<path d="M25.5332 11.1897C25.1332 9.95882 23.8095 9.21336 22.5914 9.04245C18.2097 8.57699 13.7911 8.57699 9.40954 9.04245C8.19136 9.21336 6.86408 9.95155 6.46772 11.1897C5.84409 14.3673 5.84409 17.6358 6.46772 20.8134C6.86772 22.0425 8.19136 22.7897 9.40954 22.9606C13.7911 23.4261 18.2097 23.4261 22.5914 22.9606C23.8095 22.7897 25.1368 22.0515 25.5332 20.8134C26.1568 17.6358 26.1568 14.3673 25.5332 11.1897V11.1897ZM13.6077 19.8334V12.1679L19.8477 16.0006C17.7441 17.2934 15.7023 18.5461 13.6077 19.8334Z" fill="white"/>
</g>
<defs>
<clipPath id="clip0_4708_1404">
<rect width="32" height="32" fill="white"/>
</clipPath>
</defs>
</svg>
