<svg width="123" height="31" viewBox="0 0 123 31" fill="none" xmlns="http://www.w3.org/2000/svg">
<g clip-path="url(#clip0_5173_31701)">
<path d="M41.7046 12.3298C41.0545 11.9401 40.3248 11.6298 39.5335 11.4082C38.7998 11.2013 38.0562 11.0259 37.3385 10.8836C36.5452 10.7156 35.7837 10.5291 35.0779 10.3277C34.4954 10.1615 34.0281 9.91953 33.6882 9.61109C33.4237 9.37098 33.2945 8.9979 33.2945 8.47151C33.2945 8.0504 33.4217 7.68839 33.6842 7.35962C33.9764 6.99577 34.3542 6.71685 34.8433 6.50815C35.3503 6.2902 35.8871 6.18492 36.4856 6.18492C37.4121 6.18492 38.2193 6.37147 38.8833 6.73902C39.5355 7.10103 40.0146 7.61264 40.3486 8.30526L40.7562 9.14749L43.8797 7.61449L43.5456 6.88124C42.9432 5.56249 41.9829 4.54483 40.6946 3.86145C39.444 3.19838 38.0463 2.86035 36.5432 2.86035C35.3185 2.86035 34.1733 3.10048 33.1414 3.57516C32.0976 4.05537 31.2467 4.72398 30.6164 5.56251C29.9643 6.42875 29.6342 7.42428 29.6342 8.52139C29.6342 9.54461 29.8569 10.4127 30.2983 11.0998C30.7277 11.7739 31.3142 12.328 32.0379 12.7473C32.704 13.1351 33.4396 13.4436 34.227 13.6634C34.9586 13.8702 35.7042 14.0476 36.4418 14.1916C37.2311 14.3412 37.9827 14.5148 38.6765 14.7069C39.2432 14.8639 39.6965 15.0985 40.0226 15.4014C40.279 15.6397 40.4083 16.0349 40.4083 16.5742C40.4083 17.1006 40.2711 17.5291 39.9888 17.8819C39.6866 18.2605 39.2849 18.5412 38.7561 18.7426C38.1894 18.9587 37.5294 19.0676 36.7957 19.0676C35.7678 19.0676 34.8711 18.8682 34.1275 18.4766C33.4078 18.098 32.8988 17.579 32.5668 16.8937L32.1692 16.07L29 17.542L29.342 18.2919C29.9464 19.6162 30.9504 20.6468 32.3282 21.3561C33.6583 22.0432 35.1614 22.3904 36.7937 22.3904C38.1238 22.3904 39.3426 22.1521 40.4162 21.683C41.5137 21.2028 42.4024 20.5249 43.0546 19.6661C43.7266 18.7814 44.0665 17.7415 44.0665 16.5724C44.0665 15.5528 43.8439 14.6829 43.4065 13.9847C42.979 13.3087 42.4064 12.751 41.7046 12.3298Z" fill="white"/>
<path d="M58.9305 8.44965C57.8589 7.83646 56.5765 7.52616 55.1172 7.52616C53.97 7.52616 52.8964 7.74781 51.9301 8.1874C51.5702 8.35178 51.2303 8.53833 50.9161 8.74704V2H47.3115V22.1857H50.9161V14.9603C50.9161 14.1328 51.0931 13.3941 51.443 12.7661C51.789 12.1455 52.2542 11.6708 52.8626 11.318C53.465 10.9689 54.1291 10.799 54.8925 10.799C55.7315 10.799 56.4016 10.9689 56.9364 11.318C57.4911 11.68 57.8967 12.1455 58.175 12.7402C58.4673 13.3663 58.6164 14.0682 58.6164 14.831V22.1875H62.221V14.6999C62.221 13.3054 61.9447 12.0661 61.3999 11.0133C60.8372 9.92911 60.0062 9.06655 58.9305 8.44965Z" fill="white"/>
<path d="M76.6354 8.53481C75.4266 7.86621 74.0388 7.52637 72.5099 7.52637C71.0207 7.52637 69.6449 7.86435 68.4182 8.53112C67.2014 9.19418 66.2212 10.0937 65.5074 11.2074C64.7877 12.3285 64.4219 13.5919 64.4219 14.9623C64.4219 16.3309 64.7857 17.598 65.5055 18.7265C66.2172 19.8458 67.1915 20.7545 68.3963 21.4268C69.6131 22.1046 70.9969 22.45 72.5099 22.45C74.0209 22.45 75.4047 22.1065 76.6234 21.4268C77.8303 20.7545 78.7986 19.8439 79.5024 18.7228C80.2102 17.5943 80.568 16.3291 80.568 14.9642C80.568 13.6159 80.2082 12.3599 79.5024 11.2314C78.7986 10.1048 77.8343 9.19973 76.6354 8.53481ZM76.3749 17.0808C75.9733 17.7254 75.4444 18.226 74.7605 18.6138C74.0905 18.9943 73.3549 19.1772 72.5099 19.1772C71.6649 19.1772 70.9293 18.9924 70.2592 18.612C69.5713 18.2241 69.0385 17.7199 68.6269 17.0734C68.2233 16.4399 68.0265 15.7566 68.0265 14.9864C68.0265 14.2162 68.2233 13.5346 68.6269 12.8993C69.0385 12.2528 69.5713 11.7504 70.2592 11.3607C70.9313 10.9802 71.6669 10.7974 72.5099 10.7974C73.3529 10.7974 74.0885 10.9821 74.7605 11.3607C75.4464 11.7486 75.9733 12.2491 76.3749 12.8919C76.7706 13.5291 76.9634 14.2125 76.9634 14.9864C76.9654 15.7602 76.7706 16.4454 76.3749 17.0808Z" fill="white"/>
<path d="M94.984 8.53481C93.7752 7.86621 92.3874 7.52637 90.8585 7.52637C89.3713 7.52637 87.9974 7.85884 86.7727 8.51637C85.552 9.17205 84.5718 10.0678 83.858 11.1816C83.1383 12.3045 82.7725 13.5752 82.7725 14.9623V28.0002H86.3771V21.0481C86.6296 21.2273 86.894 21.3936 87.1723 21.545C88.2957 22.16 89.5562 22.474 90.9161 22.474C92.4271 22.474 93.8069 22.1342 95.0138 21.4656C96.2166 20.8006 97.1769 19.8864 97.8728 18.7523C98.5667 17.6164 98.9206 16.342 98.9206 14.9623C98.9206 13.614 98.5627 12.3581 97.8549 11.2277C97.1471 10.1048 96.1809 9.19788 94.984 8.53481ZM94.7215 17.0975C94.3199 17.7476 93.793 18.2518 93.1091 18.6397C92.4391 19.0183 91.7035 19.203 90.8585 19.203C90.0155 19.203 89.2778 19.0183 88.6078 18.6397C87.9219 18.2518 87.3891 17.7457 86.9775 17.0919C86.5719 16.4492 86.3751 15.7603 86.3751 14.9882C86.3751 14.218 86.5719 13.5346 86.9755 12.9011C87.3871 12.2547 87.9199 11.7523 88.6078 11.3626C89.2798 10.9821 90.0155 10.7992 90.8585 10.7992C91.7015 10.7992 92.4371 10.9839 93.1091 11.3626C93.795 11.7504 94.3219 12.251 94.7235 12.8937C95.1212 13.5309 95.314 14.2162 95.314 14.9882C95.314 15.7621 95.1192 16.451 94.7215 17.0975Z" fill="white"/>
<path d="M112.663 8.94109C112.407 8.76008 112.134 8.59197 111.85 8.43867C110.729 7.83286 109.47 7.52627 108.112 7.52627C106.623 7.52627 105.255 7.86059 104.048 8.51997C102.846 9.17749 101.883 10.0806 101.187 11.2073C100.492 12.3358 100.138 13.6158 100.138 15.0139C100.138 16.3622 100.498 17.62 101.203 18.7467C101.907 19.8697 102.875 20.7784 104.082 21.4507C105.299 22.1285 106.683 22.4739 108.196 22.4739C109.703 22.4739 111.085 22.1396 112.3 21.4839C113.508 20.8301 114.485 19.9269 115.2 18.804C115.92 17.6736 116.284 16.3992 116.284 15.0139V2.00195H112.681L112.663 8.94109ZM112.091 17.1066C111.689 17.7493 111.158 18.2499 110.466 18.6359C109.784 19.0164 109.043 19.2029 108.198 19.2029C107.355 19.2029 106.617 19.0182 105.947 18.6378C105.263 18.2499 104.734 17.7493 104.333 17.1066C103.935 16.4694 103.742 15.786 103.742 15.0121C103.742 14.2382 103.937 13.5475 104.335 12.9029C104.736 12.2527 105.263 11.7485 105.947 11.3606C106.619 10.9801 107.355 10.7973 108.198 10.7973C109.043 10.7973 109.784 10.982 110.466 11.3643C111.156 11.7503 111.687 12.2546 112.089 12.9029C112.486 13.5493 112.681 14.2401 112.681 15.0139C112.679 15.786 112.486 16.4712 112.091 17.1066Z" fill="white"/>
<path d="M123.636 7.8125H120.031V22.1876H123.636V7.8125Z" fill="white"/>
<path d="M123.709 3.38903C123.521 3.08428 123.27 2.83679 122.962 2.65578C122.33 2.28639 121.445 2.26236 120.739 2.6373C120.397 2.8183 120.125 3.07135 119.93 3.38903C119.737 3.70302 119.64 4.05393 119.64 4.43256C119.64 4.80934 119.737 5.1603 119.93 5.47428C120.125 5.79197 120.399 6.04497 120.739 6.22597C121.077 6.40513 121.445 6.49748 121.833 6.49748C122.254 6.49748 122.632 6.39962 122.964 6.20753C123.27 6.02653 123.521 5.78089 123.709 5.47613C123.902 5.16215 124 4.81119 124 4.43441C124 4.05393 123.902 3.70302 123.709 3.38903Z" fill="white"/>
<path d="M24.7476 7.89108H16.8061C14.3487 7.89108 11.9922 6.93983 10.277 5.25352C10.1329 5.10939 9.88068 5.21028 9.88068 5.40485V14.4994C9.88068 14.975 9.28255 15.2129 8.93664 14.8742L1.36985 7.61724C-1.55598 4.80671 0.519482 0 4.65599 0H14.7162C16.3521 0 17.9231 0.626963 19.0833 1.73676L24.9638 7.38663C25.1584 7.574 25.0215 7.89829 24.7404 7.89829" fill="url(#paint0_linear_5173_31701)"/>
<path d="M20.4091 25.0637H10.3416C8.69856 25.0637 7.12755 24.4367 5.9673 23.3269L0.0940321 17.6771C-0.100543 17.4897 0.0363804 17.1654 0.317433 17.1654H8.23734C10.6947 17.1654 13.0441 18.1167 14.7664 19.803C14.9105 19.9471 15.1628 19.8462 15.1628 19.6516L15.1772 10.5571C15.1772 10.0815 15.7753 9.85085 16.1212 10.1823L23.3998 17.1726L23.688 17.4537C26.6138 20.2642 24.5384 25.0637 20.4019 25.0637" fill="white"/>
</g>
<defs>
<linearGradient id="paint0_linear_5173_31701" x1="0.0631683" y1="7.61911" x2="25.2111" y2="7.61911" gradientUnits="userSpaceOnUse">
<stop stop-color="#FED500"/>
<stop offset="1" stop-color="#FEC20E"/>
</linearGradient>
<clipPath id="clip0_5173_31701">
<rect width="123" height="30.6419" fill="white"/>
</clipPath>
</defs>
</svg>
