<svg width="124" height="31" viewBox="0 0 124 31" fill="none" xmlns="http://www.w3.org/2000/svg">
<g clip-path="url(#clip0_5173_6967)">
<path d="M42.1694 12.3298C41.5193 11.9401 40.7896 11.6298 39.9983 11.4082C39.2647 11.2013 38.5211 11.0259 37.8033 10.8836C37.01 10.7156 36.2486 10.5291 35.5428 10.3277C34.9602 10.1615 34.493 9.91953 34.153 9.61109C33.8886 9.37098 33.7593 8.9979 33.7593 8.47151C33.7593 8.0504 33.8866 7.68839 34.149 7.35962C34.4413 6.99577 34.8191 6.71685 35.3082 6.50815C35.8152 6.2902 36.352 6.18492 36.9504 6.18492C37.8769 6.18492 38.6841 6.37147 39.3482 6.73902C40.0003 7.10103 40.4795 7.61264 40.8135 8.30526L41.2211 9.14749L44.3445 7.61449L44.0105 6.88124C43.4081 5.56249 42.4478 4.54483 41.1594 3.86145C39.9088 3.19838 38.5111 2.86035 37.0081 2.86035C35.7833 2.86035 34.6381 3.10048 33.6063 3.57516C32.5624 4.05537 31.7115 4.72398 31.0812 5.56251C30.4291 6.42875 30.0991 7.42428 30.0991 8.52139C30.0991 9.54461 30.3217 10.4127 30.7631 11.0998C31.1926 11.7739 31.7791 12.328 32.5028 12.7473C33.1688 13.1351 33.9045 13.4436 34.6918 13.6634C35.4235 13.8702 36.169 14.0476 36.9067 14.1916C37.696 14.3412 38.4475 14.5148 39.1414 14.7069C39.708 14.8639 40.1613 15.0985 40.4874 15.4014C40.7439 15.6397 40.8731 16.0349 40.8731 16.5742C40.8731 17.1006 40.7359 17.5291 40.4536 17.8819C40.1514 18.2605 39.7498 18.5412 39.2209 18.7426C38.6543 18.9587 37.9942 19.0676 37.2606 19.0676C36.2327 19.0676 35.336 18.8682 34.5924 18.4766C33.8727 18.098 33.3637 17.579 33.0317 16.8937L32.634 16.07L29.4648 17.542L29.8068 18.2919C30.4112 19.6162 31.4153 20.6468 32.7931 21.3561C34.1232 22.0432 35.6263 22.3904 37.2586 22.3904C38.5887 22.3904 39.8074 22.1521 40.8811 21.683C41.9785 21.2028 42.8673 20.5249 43.5194 19.6661C44.1914 18.7814 44.5314 17.7415 44.5314 16.5724C44.5314 15.5528 44.3087 14.6829 43.8713 13.9847C43.4439 13.3087 42.8713 12.751 42.1694 12.3298Z" fill="#222631"/>
<path d="M59.3954 8.44965C58.3237 7.83646 57.0414 7.52616 55.582 7.52616C54.4348 7.52616 53.3612 7.74781 52.3949 8.1874C52.0351 8.35178 51.6951 8.53833 51.381 8.74704V2H47.7764V22.1857H51.381V14.9603C51.381 14.1328 51.5579 13.3941 51.9078 12.7661C52.2538 12.1455 52.719 11.6708 53.3274 11.318C53.9298 10.9689 54.5939 10.799 55.3574 10.799C56.1964 10.799 56.8664 10.9689 57.4012 11.318C57.9559 11.68 58.3615 12.1455 58.6399 12.7402C58.9321 13.3663 59.0813 14.0682 59.0813 14.831V22.1875H62.6859V14.6999C62.6859 13.3054 62.4095 12.0661 61.8647 11.0133C61.3021 9.92911 60.471 9.06655 59.3954 8.44965Z" fill="#222631"/>
<path d="M77.1002 8.53481C75.8914 7.86621 74.5036 7.52637 72.9747 7.52637C71.4856 7.52637 70.1097 7.86435 68.883 8.53112C67.6662 9.19418 66.6861 10.0937 65.9723 11.2074C65.2526 12.3285 64.8867 13.5919 64.8867 14.9623C64.8867 16.3309 65.2506 17.598 65.9703 18.7265C66.6821 19.8458 67.6563 20.7545 68.8611 21.4268C70.0779 22.1046 71.4617 22.45 72.9747 22.45C74.4857 22.45 75.8695 22.1065 77.0883 21.4268C78.2951 20.7545 79.2634 19.8439 79.9672 18.7228C80.675 17.5943 81.0329 16.3291 81.0329 14.9642C81.0329 13.6159 80.673 12.3599 79.9672 11.2314C79.2634 10.1048 78.2991 9.19973 77.1002 8.53481ZM76.8398 17.0808C76.4381 17.7254 75.9093 18.226 75.2253 18.6138C74.5553 18.9943 73.8197 19.1772 72.9747 19.1772C72.1297 19.1772 71.3941 18.9924 70.7241 18.612C70.0362 18.2241 69.5033 17.7199 69.0918 17.0734C68.6882 16.4399 68.4913 15.7566 68.4913 14.9864C68.4913 14.2162 68.6882 13.5346 69.0918 12.8993C69.5033 12.2528 70.0362 11.7504 70.7241 11.3607C71.3961 10.9802 72.1317 10.7974 72.9747 10.7974C73.8177 10.7974 74.5533 10.9821 75.2253 11.3607C75.9113 11.7486 76.4381 12.2491 76.8398 12.8919C77.2354 13.5291 77.4283 14.2125 77.4283 14.9864C77.4303 15.7602 77.2354 16.4454 76.8398 17.0808Z" fill="#222631"/>
<path d="M95.4488 8.53481C94.24 7.86621 92.8522 7.52637 91.3233 7.52637C89.8361 7.52637 88.4623 7.85884 87.2376 8.51637C86.0168 9.17205 85.0366 10.0678 84.3229 11.1816C83.6031 12.3045 83.2373 13.5752 83.2373 14.9623V28.0002H86.8419V21.0481C87.0944 21.2273 87.3588 21.3936 87.6372 21.545C88.7605 22.16 90.021 22.474 91.381 22.474C92.892 22.474 94.2718 22.1342 95.4786 21.4656C96.6815 20.8006 97.6418 19.8864 98.3377 18.7523C99.0315 17.6164 99.3854 16.342 99.3854 14.9623C99.3854 13.614 99.0276 12.3581 98.3198 11.2277C97.612 10.1048 96.6457 9.19788 95.4488 8.53481ZM95.1864 17.0975C94.7848 17.7476 94.2579 18.2518 93.5739 18.6397C92.9039 19.0183 92.1683 19.203 91.3233 19.203C90.4803 19.203 89.7427 19.0183 89.0727 18.6397C88.3867 18.2518 87.8539 17.7457 87.4423 17.0919C87.0368 16.4492 86.8399 15.7603 86.8399 14.9882C86.8399 14.218 87.0368 13.5346 87.4404 12.9011C87.8519 12.2547 88.3847 11.7523 89.0727 11.3626C89.7447 10.9821 90.4803 10.7992 91.3233 10.7992C92.1663 10.7992 92.9019 10.9839 93.5739 11.3626C94.2599 11.7504 94.7867 12.251 95.1884 12.8937C95.586 13.5309 95.7788 14.2162 95.7788 14.9882C95.7788 15.7621 95.584 16.451 95.1864 17.0975Z" fill="#222631"/>
<path d="M113.128 8.94109C112.872 8.76008 112.599 8.59197 112.315 8.43867C111.194 7.83286 109.935 7.52627 108.577 7.52627C107.088 7.52627 105.72 7.86059 104.513 8.51997C103.31 9.17749 102.348 10.0806 101.652 11.2073C100.956 12.3358 100.603 13.6158 100.603 15.0139C100.603 16.3622 100.962 17.62 101.668 18.7467C102.372 19.8697 103.34 20.7784 104.547 21.4507C105.764 22.1285 107.148 22.4739 108.661 22.4739C110.168 22.4739 111.55 22.1396 112.764 21.4839C113.973 20.8301 114.949 19.9269 115.665 18.804C116.385 17.6736 116.749 16.3992 116.749 15.0139V2.00195H113.146L113.128 8.94109ZM112.556 17.1066C112.154 17.7493 111.623 18.2499 110.931 18.6359C110.249 19.0164 109.508 19.2029 108.663 19.2029C107.82 19.2029 107.082 19.0182 106.412 18.6378C105.728 18.2499 105.199 17.7493 104.798 17.1066C104.4 16.4694 104.207 15.786 104.207 15.0121C104.207 14.2382 104.402 13.5475 104.8 12.9029C105.201 12.2527 105.728 11.7485 106.412 11.3606C107.084 10.9801 107.82 10.7973 108.663 10.7973C109.508 10.7973 110.249 10.982 110.931 11.3643C111.621 11.7503 112.152 12.2546 112.554 12.9029C112.951 13.5493 113.146 14.2401 113.146 15.0139C113.144 15.786 112.951 16.4712 112.556 17.1066Z" fill="#222631"/>
<path d="M124.101 7.8125H120.496V22.1876H124.101V7.8125Z" fill="#222631"/>
<path d="M124.174 3.38903C123.985 3.08428 123.735 2.83679 123.427 2.65578C122.795 2.28639 121.91 2.26236 121.204 2.6373C120.862 2.8183 120.59 3.07135 120.395 3.38903C120.202 3.70302 120.104 4.05393 120.104 4.43256C120.104 4.80934 120.202 5.1603 120.395 5.47428C120.59 5.79197 120.864 6.04497 121.204 6.22597C121.542 6.40513 121.91 6.49748 122.297 6.49748C122.719 6.49748 123.097 6.39962 123.429 6.20753C123.735 6.02653 123.985 5.78089 124.174 5.47613C124.367 5.16215 124.465 4.81119 124.465 4.43441C124.465 4.05393 124.367 3.70302 124.174 3.38903Z" fill="#222631"/>
<path d="M25.2125 7.89108H17.2709C14.8135 7.89108 12.457 6.93983 10.7419 5.25352C10.5978 5.10939 10.3455 5.21028 10.3455 5.40485V14.4994C10.3455 14.975 9.74739 15.2129 9.40148 14.8742L1.83469 7.61724C-1.09114 4.80671 0.984326 0 5.12084 0H15.1811C16.8169 0 18.3879 0.626963 19.5482 1.73676L25.4287 7.38663C25.6232 7.574 25.4863 7.89829 25.2053 7.89829" fill="url(#paint0_linear_5173_6967)"/>
<path d="M20.8739 25.0637H10.8065C9.1634 25.0637 7.59239 24.4367 6.43215 23.3269L0.558876 17.6771C0.364301 17.4897 0.501224 17.1654 0.782276 17.1654H8.70219C11.1596 17.1654 13.5089 18.1167 15.2312 19.803C15.3754 19.9471 15.6276 19.8462 15.6276 19.6516L15.642 10.5571C15.642 10.0815 16.2402 9.85085 16.5861 10.1823L23.8646 17.1726L24.1529 17.4537C27.0787 20.2642 25.0032 25.0637 20.8667 25.0637" fill="#222631"/>
</g>
<defs>
<linearGradient id="paint0_linear_5173_6967" x1="0.528012" y1="7.61911" x2="25.676" y2="7.61911" gradientUnits="userSpaceOnUse">
<stop stop-color="#FED500"/>
<stop offset="1" stop-color="#FEC20E"/>
</linearGradient>
<clipPath id="clip0_5173_6967">
<rect width="123" height="30.6419" fill="white" transform="translate(0.464844)"/>
</clipPath>
</defs>
</svg>
